<svg width="589" height="589" viewBox="0 0 589 589" fill="none" xmlns="http://www.w3.org/2000/svg">
<g clip-path="url(#clip0_924_51948)">
<path d="M512.84 294.5C512.84 414.892 414.892 512.84 294.5 512.84L274.484 550.92L294.5 589C373.159 589 447.117 558.37 502.749 502.737C558.382 447.105 589.012 373.159 589.012 294.488H512.852L512.84 294.5Z" fill="url(#paint0_linear_924_51948)"/>
<path d="M502.749 86.2627C447.117 30.6305 373.171 0 294.5 0V76.1597C414.892 76.1597 512.84 174.108 512.84 294.5L550.92 314.516L589 294.5C589 215.841 558.37 141.883 502.737 86.2509L502.749 86.2627Z" fill="url(#paint1_linear_924_51948)"/>
<path d="M294.5 0C215.841 0 141.883 30.6305 86.2627 86.2627C30.6424 141.895 0 215.841 0 294.5H76.1597C76.1597 174.108 174.108 76.1597 294.5 76.1597L314.516 38.0798L294.5 0Z" fill="url(#paint2_linear_924_51948)"/>
<path d="M76.1597 294.5L38.0798 274.484L0 294.5C0 373.159 30.6305 447.117 86.2627 502.749C141.895 558.382 215.841 589.012 294.512 589.012V512.852C174.12 512.852 76.1716 414.904 76.1716 294.512L76.1597 294.5Z" fill="url(#paint3_linear_924_51948)"/>
<path d="M258.416 46.7852C254.174 46.7852 251.596 43.6211 251.596 38.0664C251.596 32.5117 254.174 29.3477 258.416 29.3477C262.658 29.3477 265.236 32.5352 265.236 38.0664C265.236 43.6445 262.658 46.7852 258.416 46.7852ZM258.416 43.8789C260.385 43.8789 261.65 41.9805 261.627 38.0664C261.627 34.1992 260.385 32.2305 258.416 32.2305C256.447 32.2305 255.205 34.1992 255.205 38.0664C255.182 41.9805 256.447 43.8789 258.416 43.8789ZM274.986 29.582V46.5508H271.447V32.9336H271.354L267.463 35.3711V32.2539L271.658 29.582H274.986Z" fill="white"/>
<path d="M544.176 273.234C539.934 273.234 537.355 270.07 537.355 264.516C537.355 258.961 539.934 255.797 544.176 255.797C548.418 255.797 550.996 258.984 550.996 264.516C550.996 270.094 548.418 273.234 544.176 273.234ZM544.176 270.328C546.145 270.328 547.41 268.43 547.387 264.516C547.387 260.648 546.145 258.68 544.176 258.68C542.207 258.68 540.965 260.648 540.965 264.516C540.941 268.43 542.207 270.328 544.176 270.328ZM553.434 273L553.41 270.445L559.504 264.844C561.098 263.32 561.941 262.383 561.941 261.047C561.941 259.547 560.793 258.609 559.246 258.609C557.652 258.609 556.621 259.617 556.621 261.234H553.27C553.246 257.906 555.707 255.797 559.293 255.797C562.926 255.797 565.34 257.859 565.34 260.812C565.34 262.734 564.402 264.328 560.91 267.492L558.332 270V270.094H565.574V273H553.434Z" fill="white"/>
<path d="M319.336 560.234C315.094 560.234 312.516 557.07 312.516 551.516C312.516 545.961 315.094 542.797 319.336 542.797C323.578 542.797 326.156 545.984 326.156 551.516C326.156 557.094 323.578 560.234 319.336 560.234ZM319.336 557.328C321.305 557.328 322.57 555.43 322.547 551.516C322.547 547.648 321.305 545.68 319.336 545.68C317.367 545.68 316.125 547.648 316.125 551.516C316.102 555.43 317.367 557.328 319.336 557.328ZM334.875 560.234C331.148 560.234 328.477 558.172 328.406 555.219H331.969C332.039 556.484 333.258 557.328 334.898 557.328C336.586 557.328 337.805 556.367 337.781 555.008C337.805 553.625 336.562 552.641 334.57 552.641H333V550.039H334.57C336.234 550.039 337.406 549.125 337.406 547.789C337.406 546.5 336.422 545.609 334.922 545.609C333.422 545.609 332.18 546.453 332.133 547.742H328.758C328.805 544.812 331.453 542.797 334.922 542.797C338.461 542.797 340.828 544.883 340.805 547.578C340.828 549.477 339.492 550.836 337.594 551.164V551.305C340.078 551.609 341.461 553.133 341.438 555.242C341.461 558.148 338.695 560.234 334.875 560.234Z" fill="white"/>
<path d="M30.1133 334.234C25.8711 334.234 23.293 331.07 23.293 325.516C23.293 319.961 25.8711 316.797 30.1133 316.797C34.3555 316.797 36.9336 319.984 36.9336 325.516C36.9336 331.094 34.3555 334.234 30.1133 334.234ZM30.1133 331.328C32.082 331.328 33.3477 329.43 33.3242 325.516C33.3242 321.648 32.082 319.68 30.1133 319.68C28.1445 319.68 26.9023 321.648 26.9023 325.516C26.8789 329.43 28.1445 331.328 30.1133 331.328ZM39.0898 331V328.211L46.2617 317.031H50.6914V328.164H52.8477V331H50.6914V334H47.3398V331H39.0898ZM42.6523 328.164H47.3867V320.898H47.2227L42.6523 328.023V328.164Z" fill="white"/>
<circle cx="294.5" cy="294.5" r="192.5" stroke="#DFDFDF" stroke-width="2" stroke-dasharray="4 4"/>
<rect x="224" y="130" width="56" height="56" rx="28" fill="#0171CB" fill-opacity="0.2"/>
<path d="M242.711 145.184V151.992C243.969 151.972 245.158 151.89 246.512 151.609L246.689 152.717C245.09 153.045 243.736 153.113 242.219 153.113H241.412V145.184H242.711ZM251.379 143.912V156.162H250.148V143.912H251.379ZM248.754 144.186V155.561H247.523V149.012H244.844V147.945H247.523V144.186H248.754ZM262.891 150.434V151.473H254.359V144.924H262.768V145.977H255.672V147.631H262.508V148.656H255.672V150.434H262.891ZM264.162 153.551V154.617H252.951V153.551H264.162ZM251.092 159.926V172.162H249.779V169.236H247.072V168.252H249.779V159.926H251.092ZM240.797 166.297C243.121 166.283 246.211 166.27 248.891 165.9L248.959 166.857C247.797 167.062 246.587 167.186 245.404 167.254V171.779H244.105V167.322C242.984 167.37 241.918 167.377 240.975 167.377L240.797 166.297ZM244.83 160.486C246.635 160.486 247.934 161.484 247.934 162.934C247.934 164.41 246.635 165.367 244.83 165.367C242.984 165.367 241.699 164.41 241.699 162.934C241.699 161.484 242.984 160.486 244.83 160.486ZM244.83 161.484C243.695 161.484 242.916 162.072 242.93 162.934C242.916 163.809 243.695 164.369 244.83 164.369C245.924 164.369 246.703 163.809 246.703 162.934C246.703 162.072 245.924 161.484 244.83 161.484ZM262.809 161.102V162.592C262.809 164.383 262.809 166.064 262.275 168.607L260.99 168.484C261.25 167.363 261.387 166.379 261.455 165.463L254.1 165.859L253.936 164.793L261.523 164.506C261.544 163.85 261.544 163.221 261.551 162.592V162.168H254.277V161.102H262.809ZM264.121 169.455V170.521H252.951V169.455H264.121Z" fill="black"/>
<rect x="159" y="344" width="56" height="56" rx="28" fill="#01BA4E" fill-opacity="0.15"/>
<path d="M177.711 359.184V365.992C178.969 365.972 180.158 365.89 181.512 365.609L181.689 366.717C180.09 367.045 178.736 367.113 177.219 367.113H176.412V359.184H177.711ZM186.379 357.912V370.162H185.148V357.912H186.379ZM183.754 358.186V369.561H182.523V363.012H179.844V361.945H182.523V358.186H183.754ZM197.891 364.434V365.473H189.359V358.924H197.768V359.977H190.672V361.631H197.508V362.656H190.672V364.434H197.891ZM199.162 367.551V368.617H187.951V367.551H199.162ZM186.092 373.926V386.162H184.779V383.236H182.072V382.252H184.779V373.926H186.092ZM175.797 380.297C178.121 380.283 181.211 380.27 183.891 379.9L183.959 380.857C182.797 381.062 181.587 381.186 180.404 381.254V385.779H179.105V381.322C177.984 381.37 176.918 381.377 175.975 381.377L175.797 380.297ZM179.83 374.486C181.635 374.486 182.934 375.484 182.934 376.934C182.934 378.41 181.635 379.367 179.83 379.367C177.984 379.367 176.699 378.41 176.699 376.934C176.699 375.484 177.984 374.486 179.83 374.486ZM179.83 375.484C178.695 375.484 177.916 376.072 177.93 376.934C177.916 377.809 178.695 378.369 179.83 378.369C180.924 378.369 181.703 377.809 181.703 376.934C181.703 376.072 180.924 375.484 179.83 375.484ZM197.809 375.102V376.592C197.809 378.383 197.809 380.064 197.275 382.607L195.99 382.484C196.25 381.363 196.387 380.379 196.455 379.463L189.1 379.859L188.936 378.793L196.523 378.506C196.544 377.85 196.544 377.221 196.551 376.592V376.168H189.277V375.102H197.809ZM199.121 383.455V384.521H187.951V383.455H199.121Z" fill="black"/>
<rect x="312" y="402" width="56" height="56" rx="28" fill="#FAC301" fill-opacity="0.2"/>
<path d="M330.711 417.184V423.992C331.969 423.972 333.158 423.89 334.512 423.609L334.689 424.717C333.09 425.045 331.736 425.113 330.219 425.113H329.412V417.184H330.711ZM339.379 415.912V428.162H338.148V415.912H339.379ZM336.754 416.186V427.561H335.523V421.012H332.844V419.945H335.523V416.186H336.754ZM350.891 422.434V423.473H342.359V416.924H350.768V417.977H343.672V419.631H350.508V420.656H343.672V422.434H350.891ZM352.162 425.551V426.617H340.951V425.551H352.162ZM339.092 431.926V444.162H337.779V441.236H335.072V440.252H337.779V431.926H339.092ZM328.797 438.297C331.121 438.283 334.211 438.27 336.891 437.9L336.959 438.857C335.797 439.062 334.587 439.186 333.404 439.254V443.779H332.105V439.322C330.984 439.37 329.918 439.377 328.975 439.377L328.797 438.297ZM332.83 432.486C334.635 432.486 335.934 433.484 335.934 434.934C335.934 436.41 334.635 437.367 332.83 437.367C330.984 437.367 329.699 436.41 329.699 434.934C329.699 433.484 330.984 432.486 332.83 432.486ZM332.83 433.484C331.695 433.484 330.916 434.072 330.93 434.934C330.916 435.809 331.695 436.369 332.83 436.369C333.924 436.369 334.703 435.809 334.703 434.934C334.703 434.072 333.924 433.484 332.83 433.484ZM350.809 433.102V434.592C350.809 436.383 350.809 438.064 350.275 440.607L348.99 440.484C349.25 439.363 349.387 438.379 349.455 437.463L342.1 437.859L341.936 436.793L349.523 436.506C349.544 435.85 349.544 435.221 349.551 434.592V434.168H342.277V433.102H350.809ZM352.121 441.455V442.521H340.951V441.455H352.121Z" fill="black"/>
<rect x="375" y="188" width="56" height="56" rx="28" fill="#01B7FD" fill-opacity="0.1"/>
<path d="M396.131 204.168C396.131 205.727 397.211 207.148 399.07 207.736L398.455 208.748C397.061 208.304 396.042 207.381 395.502 206.219C394.969 207.559 393.896 208.618 392.426 209.131L391.756 208.092C393.67 207.463 394.818 205.877 394.832 204.182V203.84H392.139V202.787H398.77V203.84H396.131V204.168ZM401.477 201.912V204.947H403.254V206.014H401.477V209.268H400.178V201.912H401.477ZM397.525 209.568C400.055 209.568 401.586 210.402 401.586 211.838C401.586 213.287 400.055 214.148 397.525 214.135C394.969 214.148 393.41 213.287 393.41 211.838C393.41 210.402 394.969 209.568 397.525 209.568ZM397.525 210.594C395.748 210.594 394.695 211.045 394.709 211.838C394.695 212.658 395.748 213.109 397.525 213.109C399.289 213.109 400.314 212.658 400.314 211.838C400.314 211.045 399.289 210.594 397.525 210.594ZM414.096 201.912V214.189H412.797V201.912H414.096ZM405.934 202.938V206.082H409.229V202.938H410.514V211.25H404.635V202.938H405.934ZM405.934 210.184H409.229V207.107H405.934V210.184ZM401.49 217.912V220.961H403.24V222.068H401.49V225.131H400.191V217.912H401.49ZM401.49 225.65V228.207H394.723V229.137H401.941V230.039H393.424V227.373H400.205V226.553H393.396V225.65H401.49ZM391.77 223.969C392.72 223.969 393.82 223.969 394.969 223.928V223.244C393.561 223.114 392.686 222.554 392.699 221.631C392.686 220.633 393.834 220.045 395.611 220.045C397.375 220.045 398.523 220.633 398.523 221.631C398.523 222.547 397.655 223.107 396.268 223.244V223.887C397.361 223.832 398.469 223.743 399.494 223.6L399.604 224.447C396.965 224.885 394.066 224.898 391.906 224.898L391.77 223.969ZM399.152 218.787V219.689H392.084V218.787H394.969V217.803H396.268V218.787H399.152ZM395.611 220.893C394.559 220.893 393.93 221.166 393.93 221.631C393.93 222.123 394.559 222.424 395.611 222.424C396.65 222.424 397.279 222.123 397.279 221.631C397.279 221.166 396.65 220.893 395.611 220.893ZM415.121 223.887V224.939H403.951V223.887H406.631V222.232C405.688 221.85 405.154 221.234 405.154 220.428C405.154 218.979 406.836 218.131 409.529 218.131C412.209 218.131 413.904 218.979 413.904 220.428C413.904 221.234 413.364 221.856 412.414 222.232V223.887H415.121ZM409.529 225.773C412.168 225.773 413.754 226.553 413.754 227.947C413.754 229.369 412.168 230.135 409.529 230.135C406.863 230.135 405.277 229.369 405.277 227.947C405.277 226.553 406.863 225.773 409.529 225.773ZM409.529 226.771C407.656 226.771 406.59 227.195 406.59 227.947C406.59 228.713 407.656 229.15 409.529 229.137C411.375 229.15 412.455 228.713 412.455 227.947C412.455 227.195 411.375 226.771 409.529 226.771ZM409.529 219.129C407.629 219.129 406.48 219.607 406.494 220.428C406.48 221.248 407.629 221.713 409.529 221.713C411.43 221.713 412.564 221.248 412.564 220.428C412.564 219.607 411.43 219.129 409.529 219.129ZM407.943 223.887H411.129V222.574C410.65 222.656 410.11 222.697 409.529 222.697C408.955 222.697 408.422 222.656 407.943 222.588V223.887Z" fill="black"/>
<rect x="129" y="266" width="56" height="56" rx="28" fill="#0171CB" fill-opacity="0.2"/>
<path d="M156.037 279.912V292.162H154.725V279.912H156.037ZM152.387 281.225C152.387 284.807 150.855 287.924 146.658 289.934L145.975 288.881C149.235 287.329 150.821 285.121 151.074 282.264H146.562V281.225H152.387ZM161.342 280.473C162.955 280.459 164.199 281.396 164.473 282.77H166.865V279.912H168.164V286.488H166.865V283.836H164.486C164.22 285.244 162.969 286.188 161.342 286.188C159.469 286.188 158.129 285.012 158.129 283.316C158.129 281.648 159.469 280.459 161.342 280.473ZM161.342 281.553C160.18 281.553 159.373 282.264 159.373 283.316C159.373 284.369 160.18 285.094 161.342 285.094C162.477 285.094 163.283 284.369 163.283 283.316C163.283 282.264 162.477 281.553 161.342 281.553ZM161.465 287.076V288.498H166.865V287.076H168.164V292.012H160.18V287.076H161.465ZM161.465 290.945H166.865V289.523H161.465V290.945ZM150.363 299.521C150.363 301.572 151.703 303.691 153.59 304.498L152.879 305.51C151.437 304.874 150.288 303.527 149.721 301.887C149.153 303.637 147.998 305.127 146.576 305.824L145.824 304.799C147.67 303.938 149.037 301.627 149.051 299.521V298.223H146.248V297.143H153.152V298.223H150.363V299.521ZM155.996 295.912V308.162H154.697V295.912H155.996ZM168.137 295.926V305.209H166.838V304.033H164.377V303.117H166.838V295.926H168.137ZM168.438 306.85V307.902H159.592V304.307H160.877V306.85H168.438ZM157.896 301.518C160.166 301.504 163.215 301.477 165.826 301.148L165.908 302.078C164.862 302.249 163.762 302.365 162.682 302.434V304.826H161.383V302.502C160.193 302.557 159.052 302.563 158.061 302.557L157.896 301.518ZM161.902 296.391C163.693 296.391 164.938 297.252 164.938 298.551C164.938 299.85 163.693 300.684 161.902 300.684C160.084 300.684 158.854 299.85 158.854 298.551C158.854 297.252 160.084 296.391 161.902 296.391ZM161.902 297.361C160.809 297.348 160.07 297.812 160.084 298.551C160.07 299.275 160.809 299.727 161.902 299.727C162.955 299.727 163.693 299.275 163.707 298.551C163.693 297.812 162.955 297.348 161.902 297.361Z" fill="black"/>
<rect x="224" y="402" width="56" height="56" rx="28" fill="#01BA4E" fill-opacity="0.15"/>
<path d="M240.38 432.375C243.073 432.375 244.604 433.031 244.604 434.275C244.604 435.506 243.073 436.148 240.38 436.135C237.659 436.148 236.128 435.506 236.128 434.275C236.128 433.031 237.659 432.375 240.38 432.375ZM240.38 433.332C238.466 433.332 237.454 433.66 237.454 434.275C237.454 434.877 238.466 435.191 240.38 435.178C242.28 435.191 243.292 434.877 243.292 434.275C243.292 433.66 242.28 433.332 240.38 433.332ZM245.343 424.896V425.895H235.376V424.896H239.737V423.762H241.036V424.896H245.343ZM240.38 426.346C242.964 426.346 244.399 426.934 244.399 428.109C244.399 429.142 243.203 429.736 241.036 429.832V430.68H245.972V431.705H234.802V430.68H239.737V429.832C237.57 429.736 236.347 429.148 236.36 428.109C236.347 426.934 237.81 426.346 240.38 426.346ZM240.38 427.234C238.671 427.234 237.741 427.535 237.741 428.109C237.741 428.643 238.671 428.93 240.38 428.943C242.103 428.93 243.019 428.643 243.019 428.109C243.019 427.535 242.103 427.234 240.38 427.234ZM258.112 433.564V434.645H246.901V433.564H251.837V431.049H248.187V424.746H249.485V426.852H255.501V424.746H256.786V431.049H253.122V433.564H258.112ZM249.485 429.996H255.501V427.904H249.485V429.996ZM270.171 428.984V430.023H265.222V431.09H268.763V433.961H261.626V435.041H269.104V436.039H260.354V433.018H267.478V432.088H260.341V431.09H263.923V430.023H259.001V428.984H270.171ZM268.735 424.309V428.082H260.437V424.309H268.735ZM261.708 425.334V427.057H267.437V425.334H261.708Z" fill="black"/>
<rect x="311" y="130" width="56" height="56" rx="28" fill="#01B7FD" fill-opacity="0.1"/>
<path d="M338.037 143.912V156.162H336.725V143.912H338.037ZM334.387 145.225C334.387 148.807 332.855 151.924 328.658 153.934L327.975 152.881C331.235 151.329 332.821 149.121 333.074 146.264H328.562V145.225H334.387ZM343.342 144.473C344.955 144.459 346.199 145.396 346.473 146.77H348.865V143.912H350.164V150.488H348.865V147.836H346.486C346.22 149.244 344.969 150.188 343.342 150.188C341.469 150.188 340.129 149.012 340.129 147.316C340.129 145.648 341.469 144.459 343.342 144.473ZM343.342 145.553C342.18 145.553 341.373 146.264 341.373 147.316C341.373 148.369 342.18 149.094 343.342 149.094C344.477 149.094 345.283 148.369 345.283 147.316C345.283 146.264 344.477 145.553 343.342 145.553ZM343.465 151.076V152.498H348.865V151.076H350.164V156.012H342.18V151.076H343.465ZM343.465 154.945H348.865V153.523H343.465V154.945ZM332.363 163.521C332.363 165.572 333.703 167.691 335.59 168.498L334.879 169.51C333.437 168.874 332.288 167.527 331.721 165.887C331.153 167.637 329.998 169.127 328.576 169.824L327.824 168.799C329.67 167.938 331.037 165.627 331.051 163.521V162.223H328.248V161.143H335.152V162.223H332.363V163.521ZM337.996 159.912V172.162H336.697V159.912H337.996ZM350.137 159.926V169.209H348.838V168.033H346.377V167.117H348.838V159.926H350.137ZM350.438 170.85V171.902H341.592V168.307H342.877V170.85H350.438ZM339.896 165.518C342.166 165.504 345.215 165.477 347.826 165.148L347.908 166.078C346.862 166.249 345.762 166.365 344.682 166.434V168.826H343.383V166.502C342.193 166.557 341.052 166.563 340.061 166.557L339.896 165.518ZM343.902 160.391C345.693 160.391 346.938 161.252 346.938 162.551C346.938 163.85 345.693 164.684 343.902 164.684C342.084 164.684 340.854 163.85 340.854 162.551C340.854 161.252 342.084 160.391 343.902 160.391ZM343.902 161.361C342.809 161.348 342.07 161.812 342.084 162.551C342.07 163.275 342.809 163.727 343.902 163.727C344.955 163.727 345.693 163.275 345.707 162.551C345.693 161.812 344.955 161.348 343.902 161.361Z" fill="black"/>
<rect x="159" y="188" width="56" height="56" rx="28" fill="#0171CB" fill-opacity="0.2"/>
<path d="M180.131 204.168C180.131 205.727 181.211 207.148 183.07 207.736L182.455 208.748C181.061 208.304 180.042 207.381 179.502 206.219C178.969 207.559 177.896 208.618 176.426 209.131L175.756 208.092C177.67 207.463 178.818 205.877 178.832 204.182V203.84H176.139V202.787H182.77V203.84H180.131V204.168ZM185.477 201.912V204.947H187.254V206.014H185.477V209.268H184.178V201.912H185.477ZM181.525 209.568C184.055 209.568 185.586 210.402 185.586 211.838C185.586 213.287 184.055 214.148 181.525 214.135C178.969 214.148 177.41 213.287 177.41 211.838C177.41 210.402 178.969 209.568 181.525 209.568ZM181.525 210.594C179.748 210.594 178.695 211.045 178.709 211.838C178.695 212.658 179.748 213.109 181.525 213.109C183.289 213.109 184.314 212.658 184.314 211.838C184.314 211.045 183.289 210.594 181.525 210.594ZM198.096 201.912V214.189H196.797V201.912H198.096ZM189.934 202.938V206.082H193.229V202.938H194.514V211.25H188.635V202.938H189.934ZM189.934 210.184H193.229V207.107H189.934V210.184ZM185.6 218.678V219.758C185.6 220.92 185.6 222.178 185.258 223.928H187.021V224.994H182.059V230.176H180.746V224.994H175.852V223.928H183.945C184.314 222.185 184.314 220.899 184.314 219.758V219.744H177.219V218.678H185.6ZM199.121 224.037V225.076H194.172V226.361H197.754V230.135H196.441V227.414H189.195V226.361H192.887V225.076H187.951V224.037H199.121ZM194.172 217.871V219.088H198V220.113H194.254C194.377 221.33 196.059 222.226 198.506 222.451L198.096 223.422C195.99 223.23 194.281 222.526 193.529 221.371C192.771 222.526 191.062 223.23 188.963 223.422L188.553 222.451C190.986 222.226 192.668 221.33 192.818 220.113H189.072V219.088H192.887V217.871H194.172Z" fill="black"/>
<rect x="267" y="339" width="56" height="56" rx="28" fill="#01BA4E" fill-opacity="0.15"/>
<path d="M288.015 360.926V369.895H286.716V365.287H284.378V364.234H286.716V360.926H288.015ZM288.343 371.85V372.902H280.058V369.088H281.356V371.85H288.343ZM282.19 363.4C282.19 364.932 283.298 366.463 285.144 367.078L284.474 368.117C283.1 367.632 282.081 366.647 281.548 365.438C281.015 366.784 279.941 367.871 278.485 368.391L277.815 367.338C279.702 366.695 280.864 365.082 280.864 363.4V362.922H278.212V361.855H284.815V362.922H282.19V363.4ZM294.399 364.029C294.386 366.271 295.739 368.514 297.64 369.361L296.86 370.387C295.452 369.717 294.338 368.343 293.771 366.668C293.196 368.459 292.068 369.942 290.599 370.66L289.806 369.566C291.733 368.705 293.087 366.367 293.087 364.029V361.938H294.399V364.029ZM300.046 360.912V373.189H298.747V360.912H300.046ZM312.132 360.912V373.162H310.833V360.912H312.132ZM302.069 369.826C303.074 369.819 304.229 369.812 305.433 369.771V368.555C303.997 368.37 303.067 367.529 303.081 366.326C303.067 364.945 304.271 364.029 306.048 364.029C307.839 364.029 309.069 364.945 309.069 366.326C309.069 367.516 308.14 368.35 306.718 368.541V369.73C307.853 369.683 309.001 369.594 310.081 369.457L310.177 370.428C307.456 370.879 304.489 370.906 302.247 370.906L302.069 369.826ZM309.808 362.375V363.414H302.329V362.375H305.433V360.939H306.731V362.375H309.808ZM306.048 365.041C305.022 365.041 304.298 365.547 304.312 366.326C304.298 367.105 305.022 367.584 306.048 367.584C307.101 367.584 307.825 367.105 307.825 366.326C307.825 365.547 307.101 365.041 306.048 365.041Z" fill="black"/>
<rect x="375" y="344" width="56" height="56" rx="28" fill="#FAC301" fill-opacity="0.2"/>
<path d="M396.042 365.926V378.162H394.729V375.236H392.022V374.252H394.729V365.926H396.042ZM385.747 372.297C388.071 372.283 391.161 372.27 393.841 371.9L393.909 372.857C392.747 373.062 391.537 373.186 390.354 373.254V377.779H389.056V373.322C387.935 373.37 386.868 373.377 385.925 373.377L385.747 372.297ZM389.78 366.486C391.585 366.486 392.884 367.484 392.884 368.934C392.884 370.41 391.585 371.367 389.78 371.367C387.935 371.367 386.649 370.41 386.649 368.934C386.649 367.484 387.935 366.486 389.78 366.486ZM389.78 367.484C388.646 367.484 387.866 368.072 387.88 368.934C387.866 369.809 388.646 370.369 389.78 370.369C390.874 370.369 391.653 369.809 391.653 368.934C391.653 368.072 390.874 367.484 389.78 367.484ZM407.759 367.102V368.592C407.759 370.383 407.759 372.064 407.226 374.607L405.94 374.484C406.2 373.363 406.337 372.379 406.405 371.463L399.05 371.859L398.886 370.793L406.474 370.506C406.494 369.85 406.494 369.221 406.501 368.592V368.168H399.228V367.102H407.759ZM409.071 375.455V376.521H397.901V375.455H409.071ZM412.667 373.445V374.635H418.464V373.445H419.763V378.012H411.382V373.445H412.667ZM412.667 376.959H418.464V375.633H412.667V376.959ZM421.171 371.75V372.803H410.001V371.75H413.022V370.314H414.308V371.75H416.864V370.314H418.149V371.75H421.171ZM416.235 366.555C416.235 368.004 418.149 369.207 420.542 369.467L420.091 370.465C418.115 370.205 416.358 369.364 415.579 368.086C414.786 369.357 413.05 370.205 411.067 370.465L410.589 369.467C412.981 369.207 414.909 367.99 414.923 366.555V366.035H416.235V366.555Z" fill="black"/>
<rect x="267" y="266" width="56" height="56" rx="28" fill="#01B7FD" fill-opacity="0.1"/>
<path d="M294.037 279.912V292.162H292.725V279.912H294.037ZM290.387 281.225C290.387 284.807 288.855 287.924 284.658 289.934L283.975 288.881C287.235 287.329 288.821 285.121 289.074 282.264H284.562V281.225H290.387ZM302.199 280.377C302.199 281.785 304.141 282.961 306.533 283.234L306.082 284.219C304.072 283.979 302.315 283.132 301.529 281.881C300.736 283.132 298.979 283.979 296.99 284.219L296.539 283.234C298.932 282.961 300.873 281.785 300.873 280.377V279.967H302.199V280.377ZM307.121 284.93V285.969H302.172V287.062H305.713V289.961H298.576V291.041H306.055V292.039H297.305V289.018H304.428V288.061H297.291V287.062H300.873V285.969H295.951V284.93H307.121ZM288.117 299.521C288.117 301.463 289.389 303.623 291.248 304.498L290.51 305.51C289.136 304.847 288.049 303.466 287.502 301.859C286.935 303.616 285.786 305.127 284.385 305.824L283.619 304.799C285.479 303.91 286.832 301.6 286.832 299.521V298.223H284.07V297.143H290.783V298.223H288.117V299.521ZM293.395 295.912V300.766H295.363V301.859H293.395V308.162H292.096V295.912H293.395ZM307.148 302.105V303.158H302.281V305.537H300.996V303.158H295.938V302.105H307.148ZM305.699 296.486V300.834H297.373V296.486H305.699ZM298.645 297.512V299.809H304.414V297.512H298.645ZM305.904 306.85V307.902H297.332V304.375H298.631V306.85H305.904Z" fill="black"/>
<rect x="267" y="193" width="56" height="56" rx="28" fill="#0171CB" fill-opacity="0.2"/>
<path d="M294.037 206.912V219.162H292.725V206.912H294.037ZM290.387 208.225C290.387 211.807 288.855 214.924 284.658 216.934L283.975 215.881C287.235 214.329 288.821 212.121 289.074 209.264H284.562V208.225H290.387ZM305.576 206.926V210.535H307.354V211.629H305.576V215.922H304.277V206.926H305.576ZM306.096 217.85V218.902H297.811V215.033H299.109V217.85H306.096ZM297.701 207.801V209.756H300.914V207.801H302.199V213.898H296.43V207.801H297.701ZM297.701 212.859H300.914V210.781H297.701V212.859ZM295.021 229.188V230.24H283.852V229.188H288.787V227.779H290.072V229.188H295.021ZM290.072 222.898V224.074H293.9V225.113H290.154C290.291 226.296 291.986 227.185 294.42 227.383L294.023 228.381C291.904 228.183 290.188 227.472 289.43 226.33C288.664 227.472 286.948 228.183 284.85 228.381L284.439 227.383C286.859 227.185 288.555 226.296 288.705 225.113H284.973V224.074H288.787V222.898H290.072ZM289.43 231.047C292.096 231.047 293.654 231.771 293.654 233.098C293.654 234.424 292.096 235.148 289.43 235.135C286.75 235.148 285.178 234.424 285.178 233.098C285.178 231.771 286.75 231.047 289.43 231.047ZM289.43 232.018C287.543 232.018 286.49 232.4 286.49 233.098C286.49 233.795 287.543 234.164 289.43 234.15C291.289 234.164 292.355 233.795 292.355 233.098C292.355 232.4 291.289 232.018 289.43 232.018ZM302.773 223.555V224.17C302.773 224.867 302.773 225.934 302.473 227.287L301.201 227.15C301.427 226.057 301.468 225.229 301.488 224.58H296.594V223.555H302.773ZM299.629 226.002V228.094C300.955 228.053 302.302 227.971 303.539 227.82L303.635 228.723C301.078 229.16 298.193 229.201 295.965 229.188L295.842 228.162C296.614 228.162 297.469 228.155 298.357 228.135V226.002H299.629ZM305.645 222.912V225.742H307.34V226.795H305.645V229.488H304.318V222.912H305.645ZM305.645 229.994V232.92H298.754V234.041H306.082V235.039H297.469V231.977H304.332V230.965H297.441V229.994H305.645Z" fill="black"/>
<rect x="395" y="267" width="56" height="56" rx="28" fill="#01B7FD" fill-opacity="0.1"/>
<path d="M423.062 290.564V291.645H411.852V290.564H416.787V288.049H413.137V281.746H414.436V283.852H420.451V281.746H421.736V288.049H418.072V290.564H423.062ZM414.436 286.996H420.451V284.904H414.436V286.996ZM426.658 287.898V289.43H432.441V287.898H433.713V293.012H425.373V287.898H426.658ZM426.658 291.945H432.441V290.441H426.658V291.945ZM433.74 281.445V282.375C433.74 283.312 433.74 284.364 433.426 285.848H435.162V286.9H423.951V285.848H432.154C432.441 284.439 432.455 283.407 432.455 282.512H425.359V281.445H433.74ZM421.49 296.926V300.562H423.24V301.629H421.49V305.17H420.191V296.926H421.49ZM411.77 303.803C412.72 303.803 413.82 303.803 414.969 303.762V302.941C413.574 302.798 412.686 302.142 412.699 301.15C412.686 300.029 413.848 299.332 415.611 299.346C417.361 299.332 418.523 300.029 418.523 301.15C418.523 302.135 417.648 302.791 416.268 302.941V303.721C417.361 303.666 418.469 303.577 419.494 303.434L419.604 304.363C416.965 304.828 414.066 304.842 411.906 304.842L411.77 303.803ZM421.49 305.744V309.162H420.191V306.756H413.301V305.744H421.49ZM419.152 297.965V298.936H412.084V297.965H414.969V296.816H416.268V297.965H419.152ZM415.611 300.234C414.559 300.221 413.93 300.562 413.93 301.15C413.93 301.725 414.559 302.094 415.611 302.094C416.65 302.094 417.279 301.725 417.279 301.15C417.279 300.562 416.65 300.221 415.611 300.234ZM428.203 299.154C428.203 300.795 429.352 302.34 431.211 302.969L430.541 303.994C429.167 303.509 428.148 302.531 427.602 301.301C427.068 302.675 426.016 303.748 424.58 304.281L423.855 303.256C425.797 302.586 426.918 300.945 426.918 299.113V297.664H428.203V299.154ZM433.576 296.898V300.59H435.354V301.697H433.576V305.936H432.277V296.898H433.576ZM434.109 307.85V308.902H425.824V305.061H427.15V307.85H434.109Z" fill="black"/>
<circle cx="150" cy="167" r="8" fill="white" stroke="#D9D9D9" stroke-width="2"/>
<circle cx="150" cy="167" r="3" fill="#0171CB"/>
<circle cx="150" cy="423" r="8" fill="white" stroke="#D9D9D9" stroke-width="2"/>
<circle cx="150" cy="423" r="3" fill="#01BA4E"/>
<circle cx="438" cy="167" r="8" fill="white" stroke="#D9D9D9" stroke-width="2"/>
<circle cx="438" cy="167" r="3" fill="#01B7FD"/>
<circle cx="438" cy="423" r="8" fill="white" stroke="#D9D9D9" stroke-width="2"/>
<circle cx="438" cy="423" r="3" fill="#FAC301"/>
</g>
<defs>
<linearGradient id="paint0_linear_924_51948" x1="274.27" y1="511.698" x2="519.409" y2="299.879" gradientUnits="userSpaceOnUse">
<stop stop-color="#F9C200"/>
<stop offset="1" stop-color="#F9C200" stop-opacity="0"/>
</linearGradient>
<linearGradient id="paint1_linear_924_51948" x1="512.269" y1="314.159" x2="294.5" y2="76.1597" gradientUnits="userSpaceOnUse">
<stop stop-color="#00B6FC"/>
<stop offset="1" stop-color="#00B6FC" stop-opacity="0"/>
</linearGradient>
<linearGradient id="paint2_linear_924_51948" x1="314.73" y1="74.3747" x2="74.3509" y2="293.929" gradientUnits="userSpaceOnUse">
<stop stop-color="#0070CA"/>
<stop offset="1" stop-color="#0070CA" stop-opacity="0"/>
</linearGradient>
<linearGradient id="paint3_linear_924_51948" x1="91.6058" y1="274.889" x2="294.5" y2="521.813" gradientUnits="userSpaceOnUse">
<stop stop-color="#00B94D"/>
<stop offset="1" stop-color="#00B94D" stop-opacity="0"/>
</linearGradient>
<clipPath id="clip0_924_51948">
<rect width="589" height="589" fill="white"/>
</clipPath>
</defs>
</svg>
