<svg width="215" height="56" viewBox="0 0 215 56" fill="none" xmlns="http://www.w3.org/2000/svg">
<path d="M33.6299 28.3088C32.5399 27.5188 29.6699 26.6288 25.8499 26.7588C16.1299 27.0988 9.98986 30.6188 8.35986 31.7588C9.10986 35.8088 11.7799 39.1888 15.3899 40.9288C16.0099 40.3388 16.7899 39.7288 17.7599 39.1188C21.9299 36.5088 26.4499 29.1188 26.4499 29.1188C26.4499 29.1188 31.1899 30.6988 28.3699 36.8188C27.3999 38.9288 25.4499 40.6888 23.1499 41.9988C29.1499 40.9488 33.7099 35.7088 33.7099 29.4188C33.7099 29.0488 33.6799 28.6888 33.6299 28.3188V28.3088Z" fill="url(#paint0_radial_924_52246)"/>
<path d="M8.14988 29.3192C8.14988 29.3192 8.15988 29.2992 8.16988 29.2892C12.4999 26.7292 22.2999 24.7292 28.0899 24.7292C29.8899 24.7292 31.4499 24.9692 32.7699 25.3192C31.7499 22.8692 30.2299 20.8492 29.9099 20.3892C29.4099 21.6492 27.9199 23.0092 25.8499 22.5192C23.7099 22.0092 23.1499 20.9292 19.8799 19.3292C17.8399 18.3292 15.3599 18.2992 13.5299 18.9992C10.2599 21.3192 8.12988 25.1192 8.12988 29.4292C8.12988 29.3992 8.12988 29.3692 8.12988 29.3392L8.14988 29.3192Z" fill="url(#paint1_radial_924_52246)"/>
<path d="M45.1999 28.4588C44.7699 24.8688 35.6499 22.6088 24.3899 23.9488C14.4999 25.1188 6.36992 29.4388 4.66992 31.9688C6.31992 30.4488 11.0199 27.6588 20.5699 26.7088C33.1299 25.4688 42.2899 27.8688 34.7599 33.9988C32.8999 35.5088 31.3799 36.2688 30.2899 36.6388C39.1899 34.8988 45.5699 31.5288 45.1999 28.4588Z" fill="url(#paint2_linear_924_52246)"/>
<path d="M30.1402 18.089C29.8202 15.499 27.5602 13.899 26.6602 13.389C21.4102 10.429 13.1902 12.269 6.92021 18.249C2.80021 22.169 0.420211 27.019 0.0402111 31.399C-0.0197889 32.059 0.32021 25.119 8.63021 19.929C11.8602 17.909 14.0802 17.559 16.9402 17.409C22.4102 17.609 22.5402 20.279 25.8302 21.629C27.9702 22.509 30.4702 20.729 30.1402 18.089Z" fill="url(#paint3_linear_924_52246)"/>
<path d="M28.33 29.5192C25.8 27.3192 22.65 28.9592 20.57 32.1492C17.52 36.8092 12.73 40.5692 6.27 39.9192C0.16 39.2992 0 33.5792 0 33.5792C0.14 36.2492 1.05 38.6592 2.81 40.5092C7.92 45.8692 18.63 45.0392 26.46 38.1292C29.26 35.6592 30.37 31.2792 28.33 29.5092V29.5192Z" fill="url(#paint4_linear_924_52246)"/>
<path d="M89.68 19.1789V20.5489C89.68 23.2189 88.55 25.1989 86.29 26.5089C84.59 27.5089 82.41 28.0489 79.77 28.1289V25.5189C82.11 25.4489 83.89 24.9989 85.14 24.1589C86.17 23.4589 86.68 22.6189 86.68 21.6489H80.04V19.1789H89.69H89.68ZM93.34 28.2089C94.55 29.2389 95.16 30.5189 95.16 32.0689C95.16 33.6189 94.55 34.8889 93.34 35.9089C92.21 36.8789 90.89 37.3689 89.38 37.3689C87.87 37.3689 86.56 36.8789 85.44 35.9089C84.25 34.8789 83.66 33.5989 83.66 32.0689C83.66 30.5389 84.25 29.2289 85.44 28.2089C86.56 27.2489 87.87 26.7689 89.38 26.7689C90.89 26.7689 92.21 27.2489 93.34 28.2089ZM87.45 30.1389C86.86 30.6689 86.56 31.3089 86.56 32.0789C86.56 32.8489 86.86 33.4789 87.45 34.0189C88.01 34.5289 88.67 34.7889 89.43 34.7889C90.19 34.7889 90.84 34.5289 91.41 34.0189C91.99 33.4889 92.28 32.8489 92.28 32.0789C92.28 31.3089 91.99 30.6489 91.41 30.1389C90.86 29.6389 90.2 29.3889 89.43 29.3889C88.66 29.3889 88.02 29.6389 87.45 30.1389ZM92.96 20.2889V19.1689H95.81V27.4089H92.96V26.0689H90.39V23.7989H92.96V22.5689H90.39V20.2889H92.96Z" fill="#1D1D1B"/>
<path d="M99.46 19.1887H102.31V24.3987H112.64V19.1787H115.49V22.1487H117.8V24.7587H115.49V28.0487H112.64V27.0087H100.83C100.36 27.0087 100.01 26.9087 99.8 26.6987C99.57 26.4487 99.46 26.0287 99.46 25.4487V19.1987V19.1887ZM100.42 28.9787H115.5V35.2487C115.5 35.8287 115.37 36.2387 115.12 36.4887C114.9 36.6987 114.57 36.7987 114.11 36.7987H101.83C101.36 36.7987 101.01 36.6987 100.8 36.4887C100.56 36.2387 100.43 35.8287 100.43 35.2487V28.9787H100.42ZM112.64 31.5487H103.23V34.2387H112.64V31.5487Z" fill="#1D1D1B"/>
<path d="M122.02 27.1187V30.3787H127.65V32.9687H120.52C120.06 32.9687 119.72 32.8687 119.51 32.6587C119.28 32.4087 119.17 31.9987 119.17 31.4187V19.1787H126.72V21.7687H122.02V24.6387H126.43V27.1187H122.02ZM127.35 24.5287H128.73V19.1787H131.39V36.8187H128.73V27.1987H127.35V24.5287ZM132.47 19.1787H135.21V36.8087H132.47V19.1787Z" fill="#1D1D1B"/>
<path d="M151.31 21.7189H139.16V19.1689H154.16V33.0089H155.48V35.5589H138.25V33.0089H151.31V27.5289H139.26V24.9889H151.31V21.7089V21.7189Z" fill="#1D1D1B"/>
<path d="M174.16 28.359H168.02V33.029H175.21V35.569H157.98V33.029H165.17V28.359H160.39C159.91 28.359 159.56 28.259 159.36 28.049C159.12 27.809 159 27.399 159 26.829V19.209H161.89V25.809H174.16V28.359Z" fill="#1D1D1B"/>
<path d="M187.25 30.3787H191.45V19.1787H194.3V25.2287H196.61V27.8187H194.3V36.8287H191.45V32.9687H178.14V30.3787H179.46V21.7687H178.14V19.1787H188.64V21.7687H187.24V30.3787H187.25ZM182.12 21.7187V30.1687H184.59V21.7187H182.12Z" fill="#1D1D1B"/>
<path d="M210.4 21.7189H198.25V19.1689H213.25V33.0089H214.57V35.5589H197.34V33.0089H210.4V27.5289H198.35V24.9889H210.4V21.7089V21.7189Z" fill="#1D1D1B"/>
<path d="M56.21 37.3686C54.86 36.6986 53.89 35.5386 53.32 33.8986C52.8 32.4286 52.55 30.4086 52.57 27.8186C52.57 25.2986 52.85 23.2986 53.41 21.8186C53.99 20.2686 54.93 19.1786 56.21 18.5586V21.4986C55.63 21.9086 55.21 22.8186 54.96 24.2386C54.78 25.2186 54.7 26.4286 54.7 27.8586C54.7 29.2886 54.79 30.5086 54.96 31.5286C55.21 33.0186 55.62 33.9986 56.21 34.4786V37.3686Z" fill="#1D1D1B"/>
<path d="M61.87 22.3686C61.89 25.1786 62.16 27.1986 62.65 28.4286C63.02 29.3586 63.57 29.9086 64.29 30.0686V32.7386C63.61 32.6786 62.98 32.3686 62.41 31.8286C61.65 31.1486 61.11 30.1586 60.77 28.8786C60.41 30.1486 59.85 31.1286 59.09 31.8286C58.49 32.3786 57.87 32.6786 57.23 32.7386V30.0686C57.94 29.8986 58.48 29.3486 58.85 28.4286C59.35 27.1886 59.61 25.1686 59.63 22.3686H57.36V20.0186H64.15V22.3686H61.88H61.87ZM68.11 27.3186H67.19V35.9486H65.1V20.0286H67.19V24.9386H68.11V20.0286H70.23V35.9486H68.11V27.3186Z" fill="#1D1D1B"/>
<path d="M72.97 31.5791C73.14 30.5591 73.23 29.3391 73.23 27.9091C73.22 26.4791 73.12 25.2791 72.95 24.2891C72.71 22.8691 72.3 21.9691 71.72 21.5691V18.6191C72.99 19.2391 73.92 20.3191 74.52 21.8591C75.09 23.3391 75.38 25.3391 75.38 27.8591C75.38 30.3791 75.12 32.4691 74.61 33.9391C74.03 35.5891 73.07 36.7491 71.71 37.4091V34.5191C72.29 34.0591 72.71 33.0791 72.96 31.5791H72.97Z" fill="#1D1D1B"/>
<defs>
<radialGradient id="paint0_radial_924_52246" cx="0" cy="0" r="1" gradientUnits="userSpaceOnUse" gradientTransform="translate(16.4429 9.32933) scale(16.695)">
<stop stop-color="white"/>
<stop offset="0.17" stop-color="#FBFBFB"/>
<stop offset="0.34" stop-color="#EFEFEF"/>
<stop offset="0.51" stop-color="#DBDBDB"/>
<stop offset="0.68" stop-color="#C0C0C0"/>
<stop offset="0.84" stop-color="#9D9D9D"/>
<stop offset="1" stop-color="#737373"/>
</radialGradient>
<radialGradient id="paint1_radial_924_52246" cx="0" cy="0" r="1" gradientUnits="userSpaceOnUse" gradientTransform="translate(16.4429 9.32971) scale(16.6985)">
<stop stop-color="white"/>
<stop offset="0.17" stop-color="#FBFBFB"/>
<stop offset="0.34" stop-color="#EFEFEF"/>
<stop offset="0.51" stop-color="#DBDBDB"/>
<stop offset="0.68" stop-color="#C0C0C0"/>
<stop offset="0.84" stop-color="#9D9D9D"/>
<stop offset="1" stop-color="#737373"/>
</radialGradient>
<linearGradient id="paint2_linear_924_52246" x1="16.2899" y1="28.6188" x2="42.0099" y2="31.0888" gradientUnits="userSpaceOnUse">
<stop stop-color="#76B72A"/>
<stop offset="1" stop-color="#00843E"/>
</linearGradient>
<linearGradient id="paint3_linear_924_52246" x1="8.73021" y1="27.459" x2="23.9102" y2="14.609" gradientUnits="userSpaceOnUse">
<stop stop-color="#F29100"/>
<stop offset="0.28" stop-color="#E67306"/>
<stop offset="0.88" stop-color="#CA2A17"/>
<stop offset="1" stop-color="#C41A1B"/>
</linearGradient>
<linearGradient id="paint4_linear_924_52246" x1="8.84" y1="39.8392" x2="22.28" y2="27.6592" gradientUnits="userSpaceOnUse">
<stop stop-color="#00B0EA"/>
<stop offset="1" stop-color="#00569D"/>
</linearGradient>
</defs>
</svg>
