<svg width="211" height="40" viewBox="0 0 211 40" fill="none" xmlns="http://www.w3.org/2000/svg">
<path d="M77.9326 6.50885V8.34885H89.8026L89.8226 17.5688L93.0826 17.5388V8.52885C93.0826 6.36885 91.7726 6.44885 90.3026 6.45885L77.9326 6.50885Z" fill="#1B94CD"/>
<path d="M85.8425 20.4186L93.9525 20.4286V22.4486L77.5625 22.4286V20.4386H82.7025L82.6925 15.6086L85.8425 15.5986V20.4186Z" fill="#1B94CD"/>
<path d="M96.863 6.51852L112.763 6.47852V8.13852H99.763L99.773 10.5785H112.763V12.4985H97.923C97.273 12.4985 96.853 11.9885 96.863 11.2285V6.51852Z" fill="#1B94CD"/>
<path d="M95.5527 15.3289V13.6589L114.163 13.6289V15.3589L95.5527 15.3289Z" fill="#1B94CD"/>
<path d="M104.803 16.2188C109.303 16.2188 112.973 17.8087 112.973 19.7587C112.973 21.7087 109.303 23.2888 104.803 23.2888C100.303 23.2888 96.6328 21.6988 96.6328 19.7587C96.6328 17.8187 100.303 16.2188 104.803 16.2188ZM104.803 17.8287C102.183 17.8287 100.053 18.6987 100.053 19.7487C100.053 20.7987 102.183 21.6687 104.803 21.6687C107.423 21.6687 109.553 20.8087 109.553 19.7487C109.553 18.6887 107.423 17.8287 104.803 17.8287Z" fill="#1B94CD"/>
<path d="M115.763 6.49805V8.34805L122.883 8.27805L115.763 20.418H118.963L125.603 8.81805C126.113 8.00805 125.713 6.53805 124.693 6.50805H115.773L115.763 6.49805Z" fill="#1B94CD"/>
<path d="M128.293 5.9182V22.3982H131.123V5.9082L128.293 5.9182Z" fill="#1B94CD"/>
<path d="M151.703 12.3481L133.383 12.3281V13.9081H140.773V14.8481L134.593 14.9081V16.8581H147.483V17.8081L134.593 17.8281V20.2981C134.593 21.3581 134.863 22.0281 136.073 22.0281L150.463 22.0081L150.493 20.1681L137.623 20.1981V19.1981H150.503L150.463 14.8281H144.303V13.8781H151.693V12.3481H151.703Z" fill="#1B94CD"/>
<path d="M159.243 5.47852C162.353 5.47852 164.893 7.53852 164.893 10.0685C164.893 12.5985 162.353 14.6585 159.243 14.6585C156.133 14.6585 153.603 12.5985 153.603 10.0685C153.603 7.53852 156.133 5.47852 159.243 5.47852ZM159.243 7.55852C157.703 7.55852 156.443 8.67852 156.443 10.0685C156.443 11.4585 157.693 12.5685 159.243 12.5685C160.793 12.5685 162.033 11.4385 162.033 10.0685C162.033 8.69852 160.773 7.55852 159.243 7.55852Z" fill="#1B94CD"/>
<path d="M166.133 7.71883H167.643V6.04883H170.713L170.733 14.7088L167.633 14.6788V13.0388H166.133V11.2088H167.643V9.55883H166.133V7.71883Z" fill="#1B94CD"/>
<path d="M154.493 15.5088H157.573V20.3788L170.733 20.4388V22.3788H156.293C155.373 22.4788 154.603 21.8088 154.513 20.6288L154.483 15.5188L154.493 15.5088Z" fill="#1B94CD"/>
<path d="M173.483 5.97875V8.07875L185.623 8.10875V13.8287H189.043V8.30875C188.963 7.37875 188.913 6.01875 187.133 5.96875H173.493L173.483 5.97875Z" fill="#1B94CD"/>
<path d="M172.253 14.9084V16.8784H179.453L179.483 22.3684L182.963 22.3784L182.953 16.8684H190.373V14.8984L172.253 14.9084Z" fill="#1B94CD"/>
<path d="M198.613 5.36816C201.983 5.36816 204.743 6.67816 204.743 8.28816C204.743 9.89816 201.983 11.1982 198.613 11.1982C195.243 11.1982 192.493 9.88816 192.493 8.28816C192.493 6.68816 195.243 5.36816 198.613 5.36816ZM198.613 7.14816C196.943 7.14816 195.583 7.65816 195.583 8.27816C195.583 8.89816 196.943 9.41816 198.613 9.41816C200.283 9.41816 201.653 8.90816 201.653 8.27816C201.653 7.64816 200.293 7.14816 198.613 7.14816Z" fill="#1B94CD"/>
<path d="M192.633 12.1289H204.733V13.9089H200.833V16.8789H197.383V13.9089H192.633V12.1289Z" fill="#1B94CD"/>
<path d="M193.493 16.5085V20.4185C193.473 21.6485 193.883 22.2685 194.693 22.3085H209.393V20.4285H196.243V16.4785L193.503 16.5085H193.493Z" fill="#1B94CD"/>
<path d="M206.333 14.8983H203.233L203.213 16.8683L206.333 16.8783L206.363 18.7583L209.493 18.7383L209.483 6.02832L206.343 6.03832L206.333 14.8983Z" fill="#1B94CD"/>
<path d="M134.312 11.3489L137.652 11.3689L138.852 8.02893H146.102L147.372 11.3489H150.792L148.742 6.66893C148.492 6.20893 148.222 6.03893 147.572 6.05893H137.423C136.883 6.03893 136.573 6.05893 136.253 6.82893L134.322 11.3389L134.312 11.3489Z" fill="#1B94CD"/>
<path d="M70.6027 22.9385C69.4927 25.3885 65.5727 31.6885 61.8627 32.4785C60.6127 32.7385 59.6827 32.5685 59.2427 31.6385C58.9827 31.0885 58.9227 28.1985 58.8827 28.0585L58.8227 19.1785L60.2227 19.2085C60.5227 19.2085 60.8027 19.2085 61.0627 19.3085C64.2827 20.5085 63.8127 22.9485 64.0827 24.8185C64.2827 25.9385 64.8527 25.9285 64.9927 25.0285L64.8727 12.6785C64.7827 12.1985 64.4627 12.1485 64.2227 12.5385C63.7827 15.9085 62.7527 17.7385 60.5127 18.0685H58.8427L58.7727 10.7985C58.7527 8.97848 58.9227 7.40848 61.0627 7.46848C63.1027 7.52848 65.2927 8.92848 66.4427 10.5485C67.6227 12.1985 68.9427 15.2285 69.9227 17.0585C70.5327 17.4485 70.5827 16.8885 70.5627 16.5485C70.2027 12.7485 69.4927 8.80848 68.6727 4.51848C68.3127 3.28848 67.5627 4.61848 67.3727 4.72848L65.9027 5.59848C65.1427 6.04848 64.1827 6.29848 63.1027 6.34848L46.1227 6.45848C45.3127 6.57848 45.4527 7.46848 46.3127 7.55848C47.0827 7.66848 48.1527 7.81848 48.3927 8.26848C48.6527 8.74848 48.7927 10.0285 48.7927 11.7285L48.8527 28.3885C48.8627 30.0985 48.8427 31.4085 48.5827 31.8885C48.3227 32.3785 47.0927 32.6385 46.3827 32.7185C45.9927 32.8385 45.8427 33.0485 45.8327 33.2485C45.7927 33.0085 45.6127 32.7885 45.2927 32.7385C43.5127 31.8385 43.1727 30.5085 42.2427 28.5185L34.4527 5.14848C34.1827 4.69848 33.9727 4.67848 33.5427 4.95848C30.2927 7.15848 27.6527 8.29848 24.1227 8.75848C23.5527 8.92848 23.3927 9.45848 24.0227 9.63848L24.8327 10.1585C26.0327 11.2185 26.6727 11.1485 25.9027 13.0885C22.6727 24.6185 19.7927 31.0585 15.5627 32.9385C15.5327 32.9385 15.5027 32.9385 15.4827 32.9585C15.4427 32.8785 15.3927 32.8085 15.3127 32.7585C13.9027 32.5785 13.4727 31.7485 13.5427 30.8885L13.5227 9.23848C13.6027 8.48848 13.7327 7.80848 16.1127 7.53848C16.8427 7.33848 16.6527 6.60848 16.0227 6.58848H0.38273C-0.0872702 6.69848 -0.0772702 7.46848 0.44273 7.53848C1.95273 7.53848 3.24273 8.10848 3.26273 9.65848V30.8585C3.25273 32.1285 2.84273 32.7185 0.80273 32.7885C0.17273 32.7485 -0.29727 33.6885 0.79273 33.8685H15.1627C15.2327 33.8585 15.3127 33.8185 15.3627 33.7585C15.3927 33.7985 15.4627 33.8385 15.5427 33.8585L27.3227 33.8785C28.1327 33.5885 27.7227 32.6585 26.6327 32.6085C25.0427 32.2685 23.7827 29.4185 23.8627 26.9585L23.9627 23.5985H30.4527L31.7727 28.0385C32.6127 30.6985 32.5227 31.9085 30.8427 32.4585L29.8027 32.7985C29.1027 33.0085 29.1527 33.7685 29.8027 33.8785H45.4627C45.6827 33.7885 45.8227 33.5785 45.8327 33.3585C45.8827 33.6085 46.1027 33.8185 46.4027 33.8685L63.1327 33.8485C63.6827 33.8485 66.2427 34.0185 66.5427 34.1885C68.2027 35.1385 68.4727 35.6385 68.5427 35.8085C68.6927 36.1285 69.1727 36.0285 69.2327 35.8085C70.2527 31.6485 70.7727 27.5485 71.2427 23.0885C71.1727 22.0585 70.9027 22.4585 70.6027 22.9485V22.9385ZM24.1627 22.4585L26.8127 13.1085L30.1327 22.4585H24.1627Z" fill="#1B94CD"/>
<path d="M77.7627 33.3085V32.9085H78.0727C78.1327 32.9085 78.1827 32.9085 78.2227 32.8885C78.2727 32.8785 78.3127 32.8585 78.3427 32.8185C78.3727 32.7885 78.4027 32.7385 78.4227 32.6685C78.4427 32.6085 78.4527 32.5185 78.4527 32.4085V28.8385C78.4527 28.7285 78.4527 28.6485 78.4227 28.5785C78.4027 28.5185 78.3727 28.4685 78.3427 28.4285C78.3127 28.3985 78.2727 28.3685 78.2227 28.3585C78.1727 28.3485 78.1227 28.3385 78.0727 28.3385H77.7627V27.9385H80.3427V28.3385H80.0327C79.9827 28.3385 79.9327 28.3385 79.8827 28.3585C79.8327 28.3685 79.7927 28.3885 79.7627 28.4285C79.7327 28.4585 79.7027 28.5085 79.6827 28.5785C79.6627 28.6385 79.6527 28.7285 79.6527 28.8385V32.4085C79.6527 32.5185 79.6527 32.5985 79.6827 32.6685C79.7027 32.7285 79.7327 32.7785 79.7627 32.8185C79.7927 32.8485 79.8427 32.8785 79.8827 32.8885C79.9327 32.8985 79.9827 32.9085 80.0327 32.9085H80.3427V33.3085H77.7627Z" fill="#1B94CD"/>
<path d="M83.6926 33.3085V30.8485C83.6926 30.6885 83.6826 30.5485 83.6626 30.4185C83.6426 30.2985 83.6126 30.1885 83.5626 30.0985C83.5126 30.0185 83.4526 29.9485 83.3726 29.8985C83.2926 29.8485 83.2026 29.8285 83.0926 29.8285C82.9726 29.8285 82.8626 29.8585 82.7826 29.9285C82.7026 29.9885 82.6326 30.0785 82.5826 30.1785C82.5326 30.2885 82.4926 30.4085 82.4726 30.5485C82.4526 30.6885 82.4426 30.8385 82.4426 30.9885V32.4185C82.4426 32.5285 82.4526 32.6085 82.4826 32.6685C82.5126 32.7285 82.5426 32.7785 82.5926 32.8185C82.6426 32.8585 82.6926 32.8785 82.7626 32.8885C82.8326 32.8985 82.9026 32.9085 82.9826 32.9085H83.0026V33.3085H80.7026V32.9085H80.7126C80.8026 32.9085 80.8726 32.9085 80.9426 32.8885C81.0126 32.8785 81.0726 32.8485 81.1226 32.8185C81.1726 32.7785 81.2126 32.7285 81.2426 32.6585C81.2726 32.5885 81.2826 32.4985 81.2826 32.3885V30.1785C81.2826 30.0785 81.2726 29.9885 81.2426 29.9285C81.2126 29.8685 81.1826 29.8185 81.1326 29.7785C81.0826 29.7385 81.0326 29.7185 80.9626 29.7085C80.8926 29.6985 80.8226 29.6885 80.7426 29.6885H80.7226V29.2885H82.2926L82.3926 29.8185H82.4326C82.5126 29.6785 82.5926 29.5685 82.6726 29.4785C82.7526 29.3985 82.8426 29.3285 82.9426 29.2885C83.0426 29.2485 83.1426 29.2185 83.2426 29.2085C83.3526 29.1985 83.4626 29.1885 83.5726 29.1885C83.7626 29.1885 83.9426 29.2185 84.0926 29.2685C84.2426 29.3285 84.3726 29.4085 84.4826 29.5285C84.5926 29.6485 84.6726 29.7985 84.7226 29.9785C84.7826 30.1585 84.8026 30.3785 84.8026 30.6285V32.3585C84.8026 32.4785 84.8126 32.5685 84.8326 32.6385C84.8526 32.7085 84.8826 32.7585 84.9226 32.7985C84.9626 32.8385 85.0126 32.8585 85.0826 32.8685C85.1426 32.8785 85.2226 32.8885 85.3026 32.8885H85.3226V33.2885H83.6626L83.6926 33.3085Z" fill="#1B94CD"/>
<path d="M87.2729 33.3785C87.0029 33.3785 86.7729 33.3585 86.5829 33.3085C86.3929 33.2685 86.2329 33.1985 86.1129 33.1285C85.9929 33.0485 85.9029 32.9585 85.8529 32.8485C85.8029 32.7385 85.7729 32.6285 85.7729 32.4985C85.7729 32.3685 85.7929 32.2785 85.8429 32.2085C85.8929 32.1385 85.9529 32.0785 86.0229 32.0385C86.0929 31.9985 86.1729 31.9685 86.2529 31.9585C86.3329 31.9485 86.4029 31.9385 86.4729 31.9385C86.4729 32.0985 86.4929 32.2385 86.5329 32.3585C86.5729 32.4785 86.6229 32.5885 86.6929 32.6785C86.7629 32.7685 86.8529 32.8285 86.9429 32.8785C87.0429 32.9285 87.1529 32.9485 87.2729 32.9485C87.4029 32.9485 87.5129 32.9385 87.6029 32.9085C87.6929 32.8785 87.7729 32.8485 87.8329 32.7985C87.8929 32.7485 87.9329 32.6985 87.9629 32.6385C87.9929 32.5785 88.0029 32.5085 88.0029 32.4385C88.0029 32.3585 87.9829 32.2785 87.9529 32.2185C87.9229 32.1585 87.8729 32.0885 87.8029 32.0385C87.7329 31.9885 87.6329 31.9285 87.5229 31.8685C87.4029 31.8185 87.2629 31.7585 87.0829 31.6985C86.8829 31.6285 86.7029 31.5485 86.5429 31.4785C86.3929 31.3985 86.2629 31.3085 86.1529 31.2085C86.0429 31.1085 85.9629 30.9885 85.9129 30.8585C85.8629 30.7285 85.8329 30.5785 85.8329 30.4085C85.8329 30.2085 85.8729 30.0385 85.9429 29.8885C86.0229 29.7385 86.1329 29.6185 86.2729 29.5185C86.4129 29.4185 86.5829 29.3485 86.7829 29.2985C86.9829 29.2485 87.2029 29.2285 87.4429 29.2285C87.6829 29.2285 87.8829 29.2485 88.0429 29.2885C88.2129 29.3285 88.3429 29.3785 88.4529 29.4485C88.5529 29.5185 88.6329 29.5885 88.6829 29.6685C88.7329 29.7485 88.7529 29.8385 88.7529 29.9185C88.7529 30.0885 88.6929 30.2185 88.5729 30.2985C88.4529 30.3885 88.2629 30.4285 87.9829 30.4285C87.9829 30.1785 87.9229 29.9885 87.8129 29.8485C87.7029 29.7085 87.5429 29.6385 87.3229 29.6385C87.2429 29.6385 87.1629 29.6385 87.0929 29.6685C87.0229 29.6885 86.9529 29.7185 86.9029 29.7585C86.8529 29.7985 86.8029 29.8485 86.7729 29.8985C86.7429 29.9585 86.7229 30.0185 86.7229 30.0985C86.7229 30.1785 86.7429 30.2485 86.7729 30.3185C86.8029 30.3785 86.8529 30.4385 86.9329 30.4985C87.0129 30.5585 87.1129 30.6185 87.2429 30.6685C87.3729 30.7285 87.5429 30.7885 87.7429 30.8585C87.9129 30.9185 88.0629 30.9785 88.2029 31.0585C88.3429 31.1285 88.4629 31.2185 88.5629 31.3185C88.6629 31.4185 88.7429 31.5285 88.8029 31.6485C88.8629 31.7685 88.8829 31.9085 88.8829 32.0685C88.8829 32.2785 88.8429 32.4585 88.7729 32.6285C88.7029 32.7885 88.5929 32.9285 88.4529 33.0385C88.3129 33.1485 88.1429 33.2385 87.9429 33.2985C87.7429 33.3585 87.5129 33.3885 87.2529 33.3885L87.2729 33.3785Z" fill="#1B94CD"/>
<path d="M91.5428 32.7787C91.6428 32.7787 91.7328 32.7787 91.8228 32.7587C91.9128 32.7487 91.9928 32.7287 92.0728 32.7087V33.1987C92.0728 33.1987 91.9828 33.2387 91.9128 33.2587C91.8428 33.2787 91.7728 33.2987 91.6828 33.3187C91.5928 33.3387 91.4928 33.3487 91.3828 33.3687C91.2728 33.3787 91.1528 33.3887 91.0128 33.3887C90.8428 33.3887 90.6928 33.3687 90.5528 33.3287C90.4128 33.2887 90.3028 33.2187 90.2028 33.1287C90.1128 33.0387 90.0328 32.9087 89.9828 32.7587C89.9328 32.6087 89.9028 32.4287 89.9028 32.2087V29.8187H89.3428V29.4387C89.5028 29.4387 89.6428 29.4087 89.7728 29.3487C89.9028 29.2887 90.0028 29.2087 90.0728 29.1287C90.2228 28.9687 90.3428 28.7187 90.4128 28.3887H91.0328V29.3187H91.9928V29.8287H91.0328V32.1387C91.0328 32.3687 91.0728 32.5287 91.1428 32.6387C91.2228 32.7387 91.3428 32.7987 91.5228 32.7987L91.5428 32.7787Z" fill="#1B94CD"/>
<path d="M92.4325 32.9088C92.4925 32.9088 92.5525 32.9088 92.6125 32.8888C92.6725 32.8788 92.7325 32.8588 92.7825 32.8188C92.8325 32.7888 92.8825 32.7388 92.9125 32.6688C92.9525 32.6088 92.9625 32.5188 92.9625 32.4088V30.1388C92.9625 30.0388 92.9425 29.9588 92.9125 29.8988C92.8725 29.8388 92.8325 29.7888 92.7825 29.7588C92.7325 29.7288 92.6725 29.7088 92.6125 29.6988C92.5525 29.6988 92.4925 29.6888 92.4425 29.6888H92.3525V29.2888H94.1125V32.4188C94.1125 32.5288 94.1325 32.6088 94.1625 32.6788C94.2025 32.7388 94.2425 32.7888 94.2925 32.8288C94.3425 32.8588 94.4025 32.8888 94.4625 32.8988C94.5225 32.9088 94.5825 32.9188 94.6425 32.9188H94.7325V33.3188H92.3525V32.9188H92.4425L92.4325 32.9088ZM92.8625 28.0888C92.8625 27.9988 92.8825 27.9088 92.9125 27.8488C92.9425 27.7788 92.9925 27.7288 93.0525 27.6788C93.1125 27.6388 93.1725 27.6088 93.2525 27.5788C93.3325 27.5588 93.4125 27.5488 93.5025 27.5488C93.5925 27.5488 93.6725 27.5588 93.7425 27.5788C93.8225 27.5988 93.8925 27.6288 93.9425 27.6788C94.0025 27.7188 94.0525 27.7788 94.0825 27.8488C94.1225 27.9188 94.1325 27.9988 94.1325 28.0888C94.1325 28.1788 94.1125 28.2588 94.0825 28.3288C94.0525 28.3988 94.0025 28.4488 93.9425 28.4988C93.8825 28.5388 93.8125 28.5788 93.7425 28.5988C93.6625 28.6188 93.5825 28.6288 93.5025 28.6288C93.4125 28.6288 93.3325 28.6188 93.2525 28.5988C93.1725 28.5788 93.1125 28.5488 93.0525 28.4988C92.9925 28.4588 92.9525 28.3988 92.9125 28.3288C92.8825 28.2588 92.8625 28.1788 92.8625 28.0888Z" fill="#1B94CD"/>
<path d="M97.2029 32.7787C97.3029 32.7787 97.3929 32.7787 97.4829 32.7587C97.5729 32.7487 97.6529 32.7287 97.7329 32.7087V33.1987C97.7329 33.1987 97.6429 33.2387 97.5729 33.2587C97.5029 33.2787 97.4329 33.2987 97.3429 33.3187C97.2529 33.3387 97.1529 33.3487 97.0429 33.3687C96.9329 33.3787 96.8129 33.3887 96.6729 33.3887C96.5029 33.3887 96.3529 33.3687 96.2129 33.3287C96.0729 33.2887 95.9629 33.2187 95.8629 33.1287C95.7729 33.0387 95.6929 32.9087 95.6429 32.7587C95.5929 32.6087 95.5629 32.4287 95.5629 32.2087V29.8187H95.0029V29.4387C95.1629 29.4387 95.3029 29.4087 95.4329 29.3487C95.5629 29.2887 95.6629 29.2087 95.7329 29.1287C95.8829 28.9687 96.0029 28.7187 96.0729 28.3887H96.6929V29.3187H97.6529V29.8287H96.6929V32.1387C96.6929 32.3687 96.7329 32.5287 96.8029 32.6387C96.8829 32.7387 97.0029 32.7987 97.1829 32.7987L97.2029 32.7787Z" fill="#1B94CD"/>
<path d="M101.193 33.3081L101.033 32.7781H100.993C100.913 32.9081 100.833 33.0081 100.753 33.0881C100.663 33.1681 100.573 33.2281 100.473 33.2681C100.373 33.3081 100.263 33.3381 100.153 33.3581C100.043 33.3681 99.9325 33.3781 99.8125 33.3781C99.4225 33.3781 99.1225 33.2581 98.9125 33.0181C98.7025 32.7781 98.6025 32.4081 98.6025 31.8981V30.2181C98.6025 30.1081 98.6025 30.0181 98.5725 29.9481C98.5525 29.8781 98.5225 29.8281 98.4825 29.7881C98.4425 29.7481 98.3925 29.7181 98.3225 29.7081C98.2625 29.6981 98.1825 29.6881 98.0925 29.6881H98.0825V29.2881H99.7425V31.6881C99.7425 31.8481 99.7425 31.9981 99.7725 32.1181C99.7925 32.2481 99.8225 32.3581 99.8625 32.4481C99.9025 32.5381 99.9625 32.6081 100.043 32.6581C100.113 32.7081 100.203 32.7381 100.313 32.7381C100.433 32.7381 100.533 32.7081 100.623 32.6581C100.713 32.6081 100.783 32.5281 100.833 32.4281C100.883 32.3281 100.923 32.2081 100.953 32.0681C100.983 31.9281 100.993 31.7681 100.993 31.5981V30.1581C100.993 30.0481 100.983 29.9581 100.953 29.8981C100.923 29.8381 100.883 29.7881 100.833 29.7581C100.783 29.7281 100.723 29.7081 100.663 29.6981C100.593 29.6981 100.533 29.6881 100.453 29.6881H100.433V29.2881H102.133V32.4281C102.133 32.5381 102.143 32.6281 102.173 32.6881C102.203 32.7481 102.233 32.7981 102.273 32.8281C102.313 32.8581 102.373 32.8781 102.433 32.8881C102.493 32.8881 102.563 32.8981 102.633 32.8981H102.693V33.2981H101.203L101.193 33.3081Z" fill="#1B94CD"/>
<path d="M105.213 32.7787C105.313 32.7787 105.403 32.7787 105.493 32.7587C105.583 32.7487 105.663 32.7287 105.743 32.7087V33.1987C105.743 33.1987 105.653 33.2387 105.583 33.2587C105.513 33.2787 105.443 33.2987 105.353 33.3187C105.263 33.3387 105.163 33.3487 105.053 33.3687C104.943 33.3887 104.823 33.3887 104.683 33.3887C104.513 33.3887 104.363 33.3687 104.223 33.3287C104.083 33.2887 103.973 33.2187 103.873 33.1287C103.783 33.0387 103.703 32.9087 103.653 32.7587C103.603 32.6087 103.573 32.4287 103.573 32.2087V29.8187H103.013V29.4387C103.173 29.4387 103.313 29.4087 103.443 29.3487C103.573 29.2887 103.673 29.2087 103.743 29.1287C103.893 28.9687 104.013 28.7187 104.083 28.3887H104.703V29.3187H105.663V29.8287H104.703V32.1387C104.703 32.3687 104.743 32.5287 104.813 32.6387C104.893 32.7387 105.013 32.7987 105.193 32.7987L105.213 32.7787Z" fill="#1B94CD"/>
<path d="M108.183 33.378C107.863 33.378 107.583 33.328 107.343 33.238C107.103 33.148 106.903 33.008 106.733 32.838C106.573 32.658 106.443 32.448 106.363 32.198C106.283 31.948 106.243 31.658 106.243 31.328C106.243 30.978 106.283 30.668 106.363 30.408C106.443 30.138 106.563 29.918 106.723 29.738C106.883 29.558 107.073 29.428 107.303 29.338C107.533 29.248 107.793 29.208 108.093 29.208C108.363 29.208 108.603 29.248 108.823 29.318C109.043 29.398 109.223 29.508 109.373 29.658C109.523 29.808 109.643 29.998 109.723 30.218C109.803 30.438 109.843 30.698 109.843 30.998V31.378H107.393C107.393 31.628 107.423 31.848 107.473 32.028C107.523 32.208 107.583 32.358 107.673 32.478C107.753 32.598 107.863 32.678 107.983 32.738C108.103 32.798 108.243 32.818 108.393 32.818C108.523 32.818 108.643 32.798 108.753 32.768C108.863 32.738 108.963 32.698 109.053 32.638C109.143 32.588 109.223 32.518 109.283 32.448C109.353 32.378 109.403 32.298 109.453 32.208C109.583 32.278 109.653 32.398 109.653 32.578C109.653 32.688 109.623 32.788 109.563 32.888C109.503 32.988 109.413 33.068 109.293 33.138C109.173 33.208 109.023 33.268 108.833 33.318C108.653 33.358 108.433 33.388 108.173 33.388L108.183 33.378ZM108.113 29.688C107.903 29.688 107.733 29.788 107.613 29.998C107.493 30.208 107.423 30.508 107.413 30.908H108.703C108.703 30.718 108.693 30.548 108.673 30.398C108.653 30.248 108.613 30.118 108.573 30.018C108.523 29.908 108.463 29.828 108.393 29.778C108.323 29.718 108.223 29.698 108.123 29.698L108.113 29.688Z" fill="#1B94CD"/>
<path d="M112.253 33.3081V32.9081H112.413C112.463 32.9081 112.523 32.9081 112.583 32.8881C112.643 32.8781 112.703 32.8581 112.753 32.8181C112.803 32.7881 112.853 32.7381 112.883 32.6681C112.923 32.6081 112.933 32.5181 112.933 32.4081V29.7981H112.273V29.2881H112.933V29.0081C112.933 28.7781 112.963 28.5681 113.023 28.3881C113.083 28.2081 113.173 28.0481 113.303 27.9281C113.433 27.8081 113.583 27.7081 113.783 27.6381C113.973 27.5681 114.203 27.5381 114.463 27.5381C114.703 27.5381 114.903 27.5481 115.063 27.5781C115.223 27.6081 115.353 27.6481 115.443 27.6981C115.533 27.7481 115.603 27.8081 115.643 27.8681C115.683 27.9381 115.703 28.0081 115.703 28.0881C115.703 28.2581 115.623 28.3781 115.473 28.4581C115.323 28.5381 115.093 28.5781 114.783 28.5781C114.783 28.5181 114.783 28.4481 114.763 28.3781C114.753 28.3081 114.733 28.2381 114.703 28.1781C114.673 28.1181 114.633 28.0681 114.593 28.0281C114.543 27.9881 114.483 27.9681 114.413 27.9681C114.353 27.9681 114.303 27.9881 114.253 28.0181C114.213 28.0481 114.173 28.0981 114.143 28.1781C114.113 28.2481 114.093 28.3381 114.083 28.4581C114.073 28.5681 114.063 28.7081 114.063 28.8781V29.2881H115.093V29.7981H114.063V32.4081C114.063 32.5181 114.083 32.5981 114.113 32.6681C114.153 32.7281 114.193 32.7781 114.243 32.8181C114.293 32.8481 114.353 32.8781 114.413 32.8881C114.473 32.8981 114.533 32.9081 114.583 32.9081H114.933V33.3081H112.223H112.253Z" fill="#1B94CD"/>
<path d="M119.383 31.288C119.383 31.988 119.213 32.518 118.893 32.858C118.563 33.208 118.083 33.378 117.433 33.378C117.133 33.378 116.863 33.338 116.623 33.248C116.383 33.158 116.183 33.028 116.013 32.858C115.843 32.688 115.723 32.468 115.633 32.208C115.543 31.948 115.503 31.638 115.503 31.288C115.503 30.588 115.673 30.058 115.993 29.718C116.323 29.378 116.813 29.208 117.453 29.208C117.753 29.208 118.023 29.248 118.263 29.338C118.503 29.428 118.703 29.548 118.873 29.728C119.043 29.908 119.163 30.118 119.253 30.378C119.343 30.638 119.383 30.948 119.383 31.298V31.288ZM116.663 31.288C116.663 31.558 116.673 31.788 116.703 31.988C116.733 32.188 116.773 32.358 116.833 32.498C116.893 32.638 116.973 32.738 117.073 32.808C117.173 32.878 117.293 32.908 117.443 32.908C117.593 32.908 117.703 32.878 117.803 32.808C117.903 32.738 117.983 32.638 118.043 32.498C118.103 32.358 118.153 32.188 118.173 31.988C118.203 31.788 118.213 31.548 118.213 31.288C118.213 31.028 118.203 30.788 118.173 30.588C118.143 30.388 118.103 30.218 118.043 30.088C117.983 29.958 117.903 29.858 117.803 29.788C117.703 29.718 117.583 29.688 117.443 29.688C117.303 29.688 117.173 29.718 117.073 29.788C116.973 29.858 116.893 29.958 116.833 30.088C116.773 30.218 116.733 30.388 116.703 30.588C116.673 30.788 116.663 31.028 116.663 31.288Z" fill="#1B94CD"/>
<path d="M122.383 33.308H119.883V32.908H119.903C119.983 32.908 120.063 32.908 120.133 32.888C120.203 32.878 120.263 32.848 120.313 32.818C120.363 32.778 120.403 32.728 120.433 32.658C120.463 32.588 120.473 32.498 120.473 32.378V30.208C120.473 30.098 120.463 30.008 120.433 29.948C120.403 29.878 120.373 29.828 120.323 29.788C120.273 29.748 120.223 29.728 120.153 29.718C120.083 29.708 120.013 29.698 119.933 29.698H119.913V29.298H121.423L121.573 29.878H121.613C121.663 29.768 121.713 29.668 121.773 29.588C121.833 29.508 121.903 29.438 121.983 29.378C122.063 29.318 122.163 29.278 122.273 29.248C122.383 29.218 122.513 29.208 122.673 29.208C122.963 29.208 123.183 29.258 123.323 29.358C123.463 29.458 123.533 29.608 123.533 29.808C123.533 30.038 123.453 30.218 123.283 30.338C123.113 30.468 122.883 30.528 122.583 30.528C122.583 30.428 122.583 30.338 122.563 30.258C122.553 30.178 122.533 30.118 122.503 30.068C122.473 30.018 122.433 29.978 122.393 29.948C122.343 29.918 122.283 29.908 122.213 29.908C122.123 29.908 122.053 29.928 121.983 29.978C121.923 30.018 121.863 30.078 121.823 30.148C121.783 30.218 121.743 30.298 121.713 30.388C121.683 30.478 121.663 30.568 121.643 30.648C121.623 30.738 121.613 30.818 121.613 30.898C121.613 30.978 121.613 31.048 121.613 31.108V32.398C121.613 32.508 121.623 32.598 121.653 32.658C121.683 32.728 121.713 32.778 121.763 32.808C121.813 32.838 121.863 32.868 121.933 32.878C121.993 32.888 122.063 32.898 122.143 32.898H122.383V33.298V33.308Z" fill="#1B94CD"/>
<path d="M127.223 31.548L127.003 32.188C126.983 32.248 126.963 32.318 126.943 32.398C126.923 32.478 126.913 32.548 126.913 32.608C126.913 32.658 126.913 32.698 126.943 32.738C126.963 32.778 126.993 32.808 127.023 32.828C127.053 32.848 127.093 32.868 127.133 32.878C127.173 32.888 127.213 32.898 127.263 32.898H127.573V33.298H125.623V32.898H125.713C125.783 32.898 125.843 32.898 125.893 32.878C125.943 32.868 126.003 32.838 126.043 32.798C126.093 32.758 126.133 32.698 126.173 32.628C126.213 32.558 126.263 32.468 126.303 32.358L127.923 27.958H128.953L130.513 32.358C130.553 32.468 130.583 32.548 130.623 32.618C130.663 32.688 130.703 32.738 130.753 32.778C130.803 32.818 130.853 32.848 130.903 32.868C130.953 32.888 131.013 32.898 131.073 32.898H131.213V33.298H128.743V32.898H129.033C129.033 32.898 129.103 32.898 129.143 32.878C129.183 32.868 129.213 32.848 129.243 32.828C129.273 32.808 129.303 32.778 129.313 32.738C129.333 32.698 129.343 32.658 129.343 32.608C129.343 32.548 129.343 32.488 129.323 32.428C129.313 32.368 129.293 32.328 129.283 32.278L129.023 31.528H127.203L127.223 31.548ZM128.493 29.868C128.463 29.788 128.443 29.698 128.413 29.598C128.383 29.508 128.353 29.408 128.333 29.308C128.303 29.208 128.283 29.118 128.253 29.018C128.223 28.918 128.203 28.828 128.183 28.738C128.163 28.818 128.133 28.898 128.103 28.988C128.073 29.078 128.043 29.168 128.013 29.268C127.983 29.368 127.943 29.458 127.913 29.548C127.883 29.648 127.853 29.738 127.823 29.818L127.383 31.078H128.893L128.503 29.848L128.493 29.868Z" fill="#1B94CD"/>
<path d="M135.173 32.3887C135.173 32.4987 135.193 32.5987 135.223 32.6587C135.253 32.7287 135.303 32.7787 135.363 32.8187C135.423 32.8587 135.483 32.8787 135.563 32.8887C135.633 32.8987 135.713 32.9087 135.803 32.9087H135.833V33.3087H134.383L134.173 32.7287H134.103C134.043 32.8287 133.983 32.9187 133.913 32.9987C133.843 33.0787 133.763 33.1487 133.663 33.2087C133.573 33.2687 133.463 33.3087 133.343 33.3387C133.223 33.3687 133.093 33.3887 132.953 33.3887C132.713 33.3887 132.493 33.3487 132.303 33.2687C132.113 33.1887 131.953 33.0587 131.823 32.8887C131.693 32.7187 131.593 32.5087 131.523 32.2487C131.453 31.9887 131.423 31.6787 131.423 31.3187C131.423 30.9587 131.453 30.6487 131.523 30.3787C131.593 30.1187 131.683 29.8987 131.813 29.7287C131.943 29.5587 132.103 29.4287 132.283 29.3487C132.473 29.2687 132.683 29.2187 132.923 29.2187C133.063 29.2187 133.193 29.2387 133.303 29.2687C133.413 29.2987 133.523 29.3387 133.613 29.3887C133.703 29.4387 133.783 29.4987 133.853 29.5787C133.923 29.6587 133.983 29.7287 134.033 29.8187H134.083C134.083 29.6787 134.063 29.5487 134.053 29.4287C134.053 29.3787 134.053 29.3287 134.053 29.2687C134.053 29.2187 134.053 29.1687 134.043 29.1187C134.043 29.0687 134.043 29.0287 134.043 28.9887C134.043 28.9487 134.043 28.9187 134.043 28.8987V28.4887C134.043 28.3887 134.023 28.3087 133.993 28.2387C133.963 28.1787 133.913 28.1287 133.863 28.0987C133.813 28.0687 133.743 28.0487 133.673 28.0387C133.603 28.0387 133.523 28.0287 133.443 28.0287H133.383V27.6387H135.183V32.3987L135.173 32.3887ZM133.263 32.8187C133.413 32.8187 133.533 32.7887 133.633 32.7287C133.733 32.6687 133.813 32.5687 133.873 32.4487C133.933 32.3187 133.973 32.1687 134.003 31.9687C134.023 31.7787 134.043 31.5487 134.043 31.2987C134.043 31.0487 134.033 30.8387 134.003 30.6387C133.983 30.4487 133.933 30.2887 133.873 30.1587C133.813 30.0287 133.733 29.9287 133.633 29.8587C133.533 29.7887 133.413 29.7587 133.263 29.7587C133.143 29.7587 133.033 29.7887 132.943 29.8587C132.853 29.9287 132.783 30.0287 132.723 30.1587C132.673 30.2887 132.623 30.4487 132.603 30.6387C132.573 30.8287 132.563 31.0487 132.563 31.2987C132.563 31.8087 132.613 32.1887 132.723 32.4387C132.833 32.6887 133.003 32.8187 133.253 32.8187H133.263Z" fill="#1B94CD"/>
<path d="M140.453 29.6881H140.303C140.253 29.6881 140.203 29.6881 140.163 29.7081C140.123 29.7181 140.083 29.7481 140.043 29.7881C140.003 29.8281 139.973 29.8781 139.933 29.9481C139.893 30.0181 139.853 30.1181 139.813 30.2381L138.733 33.3081H137.743L136.513 30.0581C136.483 29.9881 136.453 29.9281 136.423 29.8781C136.383 29.8281 136.343 29.7981 136.303 29.7681C136.253 29.7381 136.203 29.7181 136.143 29.7081C136.083 29.6981 136.013 29.6881 135.923 29.6881V29.2881H138.243V29.6881H137.933C137.853 29.6881 137.793 29.7081 137.753 29.7481C137.703 29.7881 137.683 29.8481 137.683 29.9281C137.683 29.9881 137.683 30.0481 137.703 30.1081C137.723 30.1681 137.733 30.2181 137.753 30.2581L138.253 31.6781C138.313 31.8381 138.363 31.9981 138.413 32.1581C138.463 32.3181 138.493 32.4581 138.513 32.5881C138.523 32.5281 138.543 32.4581 138.563 32.3881C138.583 32.3081 138.603 32.2381 138.633 32.1581C138.653 32.0881 138.673 32.0181 138.693 31.9581C138.713 31.8981 138.723 31.8581 138.733 31.8281L139.243 30.3281C139.263 30.2581 139.283 30.1881 139.303 30.1181C139.323 30.0481 139.323 29.9781 139.323 29.9081C139.323 29.8281 139.293 29.7681 139.243 29.7381C139.193 29.7081 139.123 29.6881 139.033 29.6881H138.813V29.2881H140.453V29.6881Z" fill="#1B94CD"/>
<path d="M142.623 29.658C142.523 29.658 142.453 29.678 142.383 29.718C142.323 29.758 142.263 29.818 142.223 29.888C142.183 29.958 142.153 30.048 142.143 30.148C142.123 30.248 142.123 30.358 142.123 30.468C141.783 30.468 141.533 30.428 141.363 30.358C141.193 30.278 141.113 30.158 141.113 29.968C141.113 29.828 141.153 29.718 141.233 29.618C141.313 29.518 141.423 29.438 141.563 29.378C141.703 29.318 141.863 29.268 142.053 29.248C142.243 29.218 142.443 29.208 142.653 29.208C142.913 29.208 143.143 29.228 143.343 29.278C143.543 29.328 143.703 29.398 143.833 29.498C143.963 29.598 144.063 29.728 144.123 29.888C144.193 30.048 144.223 30.248 144.223 30.478V32.388C144.223 32.488 144.223 32.578 144.243 32.648C144.263 32.718 144.283 32.768 144.313 32.808C144.343 32.848 144.393 32.878 144.453 32.898C144.513 32.918 144.583 32.928 144.663 32.928H144.693V33.328H143.303L143.143 32.818H143.073C142.993 32.918 142.913 33.008 142.843 33.078C142.773 33.148 142.693 33.218 142.613 33.258C142.533 33.308 142.433 33.338 142.333 33.368C142.233 33.388 142.103 33.398 141.963 33.398C141.793 33.398 141.643 33.378 141.503 33.328C141.363 33.278 141.233 33.208 141.133 33.108C141.023 33.008 140.943 32.878 140.883 32.728C140.823 32.578 140.793 32.398 140.793 32.188C140.793 31.778 140.933 31.478 141.213 31.288C141.493 31.098 141.913 30.988 142.473 30.968L143.083 30.948V30.538C143.083 30.418 143.083 30.298 143.073 30.198C143.073 30.088 143.043 30.008 143.013 29.928C142.983 29.848 142.933 29.798 142.873 29.748C142.813 29.708 142.733 29.688 142.623 29.688V29.658ZM141.963 32.188C141.963 32.398 141.993 32.568 142.063 32.668C142.133 32.778 142.243 32.828 142.383 32.828C142.493 32.828 142.583 32.808 142.673 32.758C142.763 32.708 142.833 32.648 142.893 32.568C142.953 32.488 143.003 32.388 143.033 32.268C143.063 32.148 143.083 32.018 143.083 31.868V31.308L142.743 31.328C142.593 31.328 142.473 31.358 142.363 31.398C142.263 31.438 142.183 31.498 142.123 31.568C142.063 31.638 142.023 31.728 141.993 31.828C141.963 31.928 141.953 32.048 141.953 32.188H141.963Z" fill="#1B94CD"/>
<path d="M148.073 33.3085V30.8485C148.073 30.6885 148.063 30.5485 148.043 30.4185C148.023 30.2985 147.993 30.1885 147.943 30.0985C147.893 30.0185 147.833 29.9485 147.753 29.8985C147.673 29.8485 147.583 29.8285 147.473 29.8285C147.353 29.8285 147.243 29.8585 147.163 29.9285C147.083 29.9885 147.013 30.0785 146.963 30.1785C146.913 30.2885 146.873 30.4085 146.853 30.5485C146.833 30.6885 146.823 30.8385 146.823 30.9885V32.4185C146.823 32.5285 146.833 32.6085 146.863 32.6685C146.893 32.7285 146.923 32.7785 146.973 32.8185C147.023 32.8585 147.073 32.8785 147.143 32.8885C147.213 32.8985 147.283 32.9085 147.363 32.9085H147.383V33.3085H145.083V32.9085H145.093C145.183 32.9085 145.253 32.9085 145.323 32.8885C145.393 32.8785 145.453 32.8485 145.503 32.8185C145.553 32.7785 145.593 32.7285 145.623 32.6585C145.653 32.5885 145.663 32.4985 145.663 32.3885V30.1785C145.663 30.0785 145.653 29.9885 145.623 29.9285C145.593 29.8685 145.563 29.8185 145.513 29.7785C145.463 29.7385 145.413 29.7185 145.343 29.7085C145.273 29.6985 145.203 29.6885 145.123 29.6885H145.103V29.2885H146.673L146.773 29.8185H146.813C146.893 29.6785 146.973 29.5685 147.053 29.4785C147.133 29.3985 147.223 29.3285 147.323 29.2885C147.423 29.2485 147.523 29.2185 147.623 29.2085C147.733 29.1985 147.843 29.1885 147.953 29.1885C148.143 29.1885 148.323 29.2185 148.473 29.2685C148.623 29.3285 148.753 29.4085 148.863 29.5285C148.973 29.6485 149.053 29.7985 149.103 29.9785C149.163 30.1585 149.183 30.3785 149.183 30.6285V32.3585C149.183 32.4785 149.193 32.5685 149.213 32.6385C149.233 32.7085 149.263 32.7585 149.303 32.7985C149.343 32.8385 149.393 32.8585 149.463 32.8685C149.523 32.8785 149.603 32.8885 149.683 32.8885H149.703V33.2885H148.043L148.073 33.3085Z" fill="#1B94CD"/>
<path d="M152.133 33.3782C151.853 33.3782 151.603 33.3382 151.383 33.2682C151.153 33.1982 150.963 33.0782 150.793 32.9182C150.633 32.7582 150.503 32.5382 150.413 32.2782C150.323 32.0182 150.283 31.6882 150.283 31.3082C150.283 30.9082 150.333 30.5682 150.423 30.2982C150.513 30.0282 150.643 29.8082 150.813 29.6482C150.973 29.4882 151.173 29.3682 151.393 29.2982C151.613 29.2282 151.853 29.1982 152.113 29.1982C152.353 29.1982 152.563 29.2182 152.753 29.2582C152.943 29.2982 153.093 29.3582 153.213 29.4282C153.333 29.4982 153.433 29.5782 153.493 29.6782C153.553 29.7782 153.593 29.8782 153.593 29.9882C153.593 30.0682 153.583 30.1482 153.553 30.2282C153.523 30.3082 153.473 30.3682 153.403 30.4282C153.333 30.4882 153.233 30.5382 153.103 30.5682C152.973 30.6082 152.813 30.6182 152.623 30.6182C152.623 30.4882 152.623 30.3682 152.603 30.2482C152.583 30.1282 152.563 30.0282 152.523 29.9382C152.483 29.8482 152.433 29.7782 152.373 29.7282C152.313 29.6782 152.233 29.6482 152.133 29.6482C152.023 29.6482 151.923 29.6782 151.843 29.7282C151.753 29.7782 151.683 29.8682 151.623 29.9982C151.563 30.1282 151.513 30.2982 151.483 30.5082C151.453 30.7182 151.433 30.9882 151.433 31.3082C151.433 31.8182 151.503 32.1982 151.643 32.4482C151.783 32.6982 152.013 32.8282 152.323 32.8282C152.453 32.8282 152.573 32.8082 152.683 32.7782C152.793 32.7482 152.903 32.7082 152.993 32.6482C153.083 32.5982 153.163 32.5282 153.233 32.4582C153.303 32.3882 153.363 32.3082 153.403 32.2182C153.463 32.2582 153.513 32.3082 153.533 32.3682C153.563 32.4282 153.573 32.4982 153.573 32.5682C153.573 32.6582 153.543 32.7582 153.493 32.8582C153.433 32.9582 153.353 33.0482 153.233 33.1182C153.113 33.1982 152.963 33.2582 152.783 33.3082C152.603 33.3582 152.383 33.3782 152.133 33.3782Z" fill="#1B94CD"/>
<path d="M156.153 33.378C155.833 33.378 155.553 33.328 155.313 33.238C155.073 33.148 154.873 33.008 154.703 32.838C154.543 32.658 154.413 32.448 154.333 32.198C154.253 31.948 154.213 31.658 154.213 31.328C154.213 30.978 154.253 30.668 154.333 30.408C154.413 30.138 154.533 29.918 154.693 29.738C154.853 29.558 155.043 29.428 155.273 29.338C155.503 29.248 155.763 29.208 156.063 29.208C156.333 29.208 156.573 29.248 156.793 29.318C157.013 29.398 157.193 29.508 157.343 29.658C157.493 29.808 157.613 29.998 157.693 30.218C157.773 30.438 157.813 30.698 157.813 30.998V31.378H155.363C155.363 31.628 155.393 31.848 155.443 32.028C155.493 32.208 155.553 32.358 155.643 32.478C155.723 32.598 155.833 32.678 155.953 32.738C156.073 32.798 156.213 32.818 156.363 32.818C156.493 32.818 156.613 32.798 156.723 32.768C156.833 32.738 156.933 32.698 157.023 32.638C157.113 32.588 157.193 32.518 157.253 32.448C157.323 32.378 157.373 32.298 157.423 32.208C157.553 32.278 157.623 32.398 157.623 32.578C157.623 32.688 157.593 32.788 157.533 32.888C157.473 32.988 157.383 33.068 157.263 33.138C157.143 33.208 156.993 33.268 156.803 33.318C156.623 33.358 156.403 33.388 156.143 33.388L156.153 33.378ZM156.083 29.688C155.873 29.688 155.703 29.788 155.583 29.998C155.463 30.208 155.393 30.508 155.383 30.908H156.673C156.673 30.718 156.663 30.548 156.643 30.398C156.623 30.248 156.583 30.118 156.543 30.018C156.493 29.908 156.433 29.828 156.363 29.778C156.293 29.718 156.193 29.698 156.093 29.698L156.083 29.688Z" fill="#1B94CD"/>
<path d="M162.233 32.3887C162.233 32.4987 162.253 32.5987 162.283 32.6587C162.313 32.7287 162.363 32.7787 162.423 32.8187C162.483 32.8587 162.543 32.8787 162.623 32.8887C162.693 32.8987 162.773 32.9087 162.863 32.9087H162.893V33.3087H161.443L161.233 32.7287H161.163C161.103 32.8287 161.043 32.9187 160.973 32.9987C160.903 33.0787 160.823 33.1487 160.723 33.2087C160.633 33.2687 160.523 33.3087 160.403 33.3387C160.283 33.3687 160.153 33.3887 160.013 33.3887C159.773 33.3887 159.553 33.3487 159.363 33.2687C159.173 33.1887 159.013 33.0587 158.883 32.8887C158.753 32.7187 158.653 32.5087 158.583 32.2487C158.513 31.9887 158.483 31.6787 158.483 31.3187C158.483 30.9587 158.513 30.6487 158.583 30.3787C158.653 30.1187 158.743 29.8987 158.873 29.7287C159.003 29.5587 159.163 29.4287 159.343 29.3487C159.533 29.2687 159.743 29.2187 159.983 29.2187C160.123 29.2187 160.253 29.2387 160.363 29.2687C160.473 29.2987 160.583 29.3387 160.673 29.3887C160.763 29.4387 160.843 29.4987 160.913 29.5787C160.983 29.6587 161.043 29.7287 161.093 29.8187H161.143C161.143 29.6787 161.123 29.5487 161.113 29.4287C161.113 29.3787 161.113 29.3287 161.113 29.2687C161.113 29.2187 161.113 29.1687 161.103 29.1187C161.093 29.0687 161.103 29.0287 161.103 28.9887C161.103 28.9487 161.103 28.9187 161.103 28.8987V28.4887C161.103 28.3887 161.083 28.3087 161.053 28.2387C161.023 28.1787 160.973 28.1287 160.923 28.0987C160.873 28.0687 160.803 28.0487 160.733 28.0387C160.663 28.0387 160.583 28.0287 160.503 28.0287H160.443V27.6387H162.243V32.3987L162.233 32.3887ZM160.323 32.8187C160.473 32.8187 160.593 32.7887 160.693 32.7287C160.793 32.6687 160.873 32.5687 160.933 32.4487C160.993 32.3187 161.033 32.1687 161.063 31.9687C161.083 31.7787 161.103 31.5487 161.103 31.2987C161.103 31.0487 161.093 30.8387 161.063 30.6387C161.043 30.4487 160.993 30.2887 160.933 30.1587C160.873 30.0287 160.793 29.9287 160.693 29.8587C160.593 29.7887 160.473 29.7587 160.323 29.7587C160.203 29.7587 160.093 29.7887 160.003 29.8587C159.913 29.9287 159.843 30.0287 159.783 30.1587C159.733 30.2887 159.683 30.4487 159.663 30.6387C159.633 30.8287 159.623 31.0487 159.623 31.2987C159.623 31.8087 159.673 32.1887 159.783 32.4387C159.893 32.6887 160.063 32.8187 160.313 32.8187H160.323Z" fill="#1B94CD"/>
<path d="M167.023 32.8482H168.523C168.603 32.8482 168.663 32.8382 168.713 32.8082C168.763 32.7782 168.813 32.7382 168.853 32.6882C168.893 32.6382 168.923 32.5782 168.943 32.5082C168.963 32.4382 168.983 32.3582 168.993 32.2782L169.053 31.9282H169.573L169.523 33.3082H165.143V32.9082H165.453C165.503 32.9082 165.553 32.9082 165.603 32.8982C165.653 32.8882 165.693 32.8682 165.723 32.8382C165.763 32.8082 165.783 32.7582 165.803 32.6982C165.823 32.6382 165.833 32.5582 165.833 32.4582V28.8382C165.833 28.7282 165.833 28.6482 165.803 28.5782C165.783 28.5182 165.753 28.4682 165.723 28.4282C165.693 28.3982 165.653 28.3682 165.603 28.3582C165.553 28.3482 165.503 28.3382 165.453 28.3382H165.143V27.9482H169.293L169.323 29.3282H168.803L168.763 28.9782C168.743 28.7982 168.693 28.6582 168.623 28.5582C168.553 28.4582 168.433 28.4082 168.283 28.4082H167.023V30.2782H168.793V30.7282H167.023V32.8382V32.8482Z" fill="#1B94CD"/>
<path d="M172.943 33.3085V30.8485C172.943 30.6885 172.933 30.5485 172.913 30.4185C172.893 30.2985 172.863 30.1885 172.813 30.0985C172.763 30.0185 172.703 29.9485 172.623 29.8985C172.543 29.8485 172.453 29.8285 172.343 29.8285C172.223 29.8285 172.113 29.8585 172.033 29.9285C171.953 29.9885 171.883 30.0785 171.833 30.1785C171.783 30.2885 171.743 30.4085 171.723 30.5485C171.703 30.6885 171.693 30.8385 171.693 30.9885V32.4185C171.693 32.5285 171.703 32.6085 171.733 32.6685C171.763 32.7285 171.793 32.7785 171.843 32.8185C171.893 32.8585 171.943 32.8785 172.013 32.8885C172.083 32.8985 172.153 32.9085 172.233 32.9085H172.253V33.3085H169.953V32.9085H169.963C170.053 32.9085 170.123 32.9085 170.193 32.8885C170.263 32.8785 170.323 32.8485 170.373 32.8185C170.423 32.7785 170.463 32.7285 170.493 32.6585C170.523 32.5885 170.533 32.4985 170.533 32.3885V30.1785C170.533 30.0785 170.523 29.9885 170.493 29.9285C170.463 29.8685 170.433 29.8185 170.383 29.7785C170.333 29.7385 170.283 29.7185 170.213 29.7085C170.143 29.6985 170.073 29.6885 169.993 29.6885H169.973V29.2885H171.543L171.643 29.8185H171.683C171.763 29.6785 171.843 29.5685 171.923 29.4785C172.003 29.3985 172.093 29.3285 172.193 29.2885C172.293 29.2485 172.393 29.2185 172.493 29.2085C172.603 29.1985 172.713 29.1885 172.823 29.1885C173.013 29.1885 173.193 29.2185 173.343 29.2685C173.493 29.3285 173.623 29.4085 173.733 29.5285C173.843 29.6485 173.923 29.7985 173.973 29.9785C174.033 30.1585 174.053 30.3785 174.053 30.6285V32.3585C174.053 32.4785 174.063 32.5685 174.083 32.6385C174.103 32.7085 174.133 32.7585 174.173 32.7985C174.213 32.8385 174.263 32.8585 174.333 32.8685C174.393 32.8785 174.473 32.8885 174.553 32.8885H174.573V33.2885H172.913L172.943 33.3085Z" fill="#1B94CD"/>
<path d="M178.953 29.4386C178.953 29.4986 178.953 29.5486 178.923 29.5986C178.903 29.6486 178.873 29.6986 178.833 29.7386C178.793 29.7786 178.733 29.8086 178.673 29.8286C178.603 29.8486 178.513 29.8586 178.413 29.8586C178.413 29.8086 178.413 29.7586 178.393 29.7186C178.373 29.6786 178.353 29.6486 178.333 29.6186C178.303 29.5886 178.273 29.5686 178.243 29.5586C178.213 29.5486 178.173 29.5386 178.133 29.5386C178.093 29.5386 178.043 29.5386 178.003 29.5686C177.953 29.5886 177.923 29.6086 177.893 29.6186C177.943 29.6786 177.993 29.7386 178.033 29.8086C178.073 29.8786 178.113 29.9586 178.143 30.0386C178.173 30.1186 178.203 30.2086 178.223 30.2986C178.243 30.3886 178.253 30.4786 178.253 30.5686C178.253 30.7586 178.223 30.9286 178.163 31.0886C178.103 31.2486 178.013 31.3886 177.883 31.4986C177.763 31.6186 177.603 31.7086 177.413 31.7686C177.223 31.8386 177.003 31.8686 176.733 31.8686C176.703 31.8686 176.673 31.8686 176.633 31.8686C176.593 31.8686 176.553 31.8686 176.513 31.8686C176.473 31.8686 176.433 31.8686 176.393 31.8686C176.353 31.8686 176.323 31.8686 176.303 31.8686C176.273 31.8886 176.243 31.9086 176.203 31.9286C176.173 31.9586 176.143 31.9786 176.113 32.0186C176.083 32.0586 176.063 32.0886 176.053 32.1286C176.033 32.1686 176.033 32.2086 176.033 32.2486C176.033 32.3286 176.063 32.3886 176.133 32.4286C176.193 32.4686 176.283 32.4886 176.383 32.4886H177.293C177.543 32.4886 177.753 32.5186 177.933 32.5686C178.113 32.6186 178.263 32.6986 178.383 32.7886C178.503 32.8886 178.593 33.0086 178.643 33.1486C178.703 33.2886 178.723 33.4486 178.723 33.6286C178.723 33.8586 178.683 34.0686 178.593 34.2486C178.503 34.4286 178.373 34.5786 178.193 34.7086C178.013 34.8386 177.793 34.9286 177.513 34.9986C177.243 35.0686 176.923 35.0986 176.553 35.0986C175.963 35.0986 175.523 35.0086 175.233 34.8386C174.943 34.6586 174.803 34.3986 174.803 34.0586C174.803 33.7886 174.893 33.5886 175.063 33.4386C175.233 33.2986 175.483 33.2086 175.813 33.1886C175.743 33.1586 175.673 33.1286 175.613 33.0886C175.543 33.0486 175.493 32.9986 175.433 32.9486C175.373 32.8986 175.343 32.8286 175.313 32.7586C175.283 32.6886 175.263 32.6086 175.263 32.5186C175.263 32.4386 175.283 32.3586 175.313 32.2886C175.343 32.2186 175.393 32.1486 175.453 32.0886C175.513 32.0286 175.583 31.9686 175.663 31.9086C175.743 31.8486 175.833 31.7986 175.933 31.7386C175.823 31.6986 175.723 31.6486 175.633 31.5786C175.543 31.5086 175.463 31.4286 175.393 31.3286C175.323 31.2286 175.273 31.1186 175.233 30.9986C175.193 30.8786 175.173 30.7386 175.173 30.5886C175.173 30.1486 175.303 29.8086 175.553 29.5686C175.803 29.3286 176.203 29.2086 176.733 29.2086C176.913 29.2086 177.073 29.2286 177.223 29.2786C177.373 29.3286 177.503 29.3786 177.623 29.4386C177.663 29.3986 177.713 29.3486 177.763 29.2986C177.813 29.2486 177.873 29.1986 177.933 29.1586C177.993 29.1186 178.063 29.0786 178.143 29.0586C178.223 29.0286 178.303 29.0186 178.403 29.0186C178.503 29.0186 178.573 29.0286 178.643 29.0586C178.713 29.0786 178.763 29.1086 178.813 29.1486C178.863 29.1886 178.893 29.2286 178.913 29.2886C178.933 29.3386 178.943 29.3986 178.943 29.4486L178.953 29.4386ZM175.703 34.0486C175.703 34.2586 175.783 34.4086 175.923 34.5086C176.073 34.6086 176.293 34.6586 176.583 34.6586C177.023 34.6586 177.343 34.5986 177.543 34.4686C177.743 34.3386 177.843 34.1586 177.843 33.9086C177.843 33.7486 177.793 33.6386 177.693 33.5786C177.593 33.5186 177.443 33.4786 177.243 33.4786H176.373C176.293 33.4786 176.223 33.4786 176.143 33.4986C176.063 33.5086 175.993 33.5386 175.933 33.5786C175.873 33.6186 175.813 33.6786 175.773 33.7486C175.733 33.8186 175.713 33.9186 175.713 34.0386L175.703 34.0486ZM176.203 30.5886C176.203 30.7186 176.203 30.8386 176.233 30.9486C176.253 31.0586 176.283 31.1486 176.323 31.2186C176.363 31.2986 176.413 31.3486 176.483 31.3986C176.553 31.4386 176.633 31.4586 176.723 31.4586C176.813 31.4586 176.903 31.4386 176.973 31.3986C177.043 31.3586 177.093 31.2986 177.133 31.2186C177.173 31.1386 177.203 31.0486 177.213 30.9386C177.233 30.8286 177.233 30.7086 177.233 30.5786C177.233 30.4486 177.233 30.3186 177.203 30.1986C177.183 30.0886 177.153 29.9886 177.113 29.9086C177.073 29.8286 177.023 29.7686 176.953 29.7186C176.883 29.6786 176.803 29.6486 176.703 29.6486C176.603 29.6486 176.523 29.6686 176.463 29.7186C176.393 29.7686 176.343 29.8286 176.303 29.9086C176.263 29.9886 176.233 30.0886 176.213 30.2086C176.193 30.3186 176.183 30.4486 176.183 30.5886H176.203Z" fill="#1B94CD"/>
<path d="M179.203 32.9088C179.263 32.9088 179.313 32.9088 179.383 32.8888C179.443 32.8788 179.503 32.8588 179.553 32.8188C179.603 32.7888 179.653 32.7388 179.683 32.6688C179.723 32.6088 179.733 32.5188 179.733 32.4088V30.1388C179.733 30.0388 179.713 29.9588 179.683 29.8988C179.643 29.8388 179.603 29.7888 179.553 29.7588C179.503 29.7288 179.443 29.7088 179.383 29.6988C179.323 29.6888 179.263 29.6888 179.213 29.6888H179.123V29.2888H180.883V32.4188C180.883 32.5288 180.903 32.6088 180.933 32.6788C180.973 32.7388 181.013 32.7888 181.063 32.8288C181.113 32.8588 181.173 32.8888 181.233 32.8988C181.293 32.9088 181.353 32.9188 181.413 32.9188H181.503V33.3188H179.123V32.9188H179.213L179.203 32.9088ZM179.633 28.0888C179.633 27.9988 179.653 27.9088 179.683 27.8488C179.713 27.7788 179.763 27.7288 179.823 27.6788C179.883 27.6388 179.943 27.6088 180.023 27.5788C180.103 27.5588 180.183 27.5488 180.273 27.5488C180.363 27.5488 180.443 27.5588 180.513 27.5788C180.593 27.5988 180.663 27.6288 180.713 27.6788C180.773 27.7188 180.823 27.7788 180.853 27.8488C180.893 27.9188 180.903 27.9988 180.903 28.0888C180.903 28.1788 180.883 28.2588 180.853 28.3288C180.823 28.3988 180.773 28.4488 180.713 28.4988C180.653 28.5388 180.583 28.5788 180.513 28.5988C180.433 28.6188 180.353 28.6288 180.273 28.6288C180.183 28.6288 180.103 28.6188 180.023 28.5988C179.943 28.5788 179.883 28.5488 179.823 28.4988C179.763 28.4588 179.723 28.3988 179.683 28.3288C179.653 28.2588 179.633 28.1788 179.633 28.0888Z" fill="#1B94CD"/>
<path d="M184.753 33.3085V30.8485C184.753 30.6885 184.743 30.5485 184.723 30.4185C184.703 30.2985 184.673 30.1885 184.623 30.0985C184.573 30.0185 184.513 29.9485 184.433 29.8985C184.353 29.8485 184.263 29.8285 184.153 29.8285C184.033 29.8285 183.923 29.8585 183.843 29.9285C183.763 29.9885 183.693 30.0785 183.643 30.1785C183.593 30.2785 183.553 30.4085 183.533 30.5485C183.513 30.6885 183.503 30.8385 183.503 30.9885V32.4185C183.503 32.5285 183.513 32.6085 183.543 32.6685C183.573 32.7285 183.603 32.7785 183.653 32.8185C183.703 32.8585 183.753 32.8785 183.823 32.8885C183.893 32.8985 183.963 32.9085 184.043 32.9085H184.063V33.3085H181.763V32.9085H181.773C181.863 32.9085 181.933 32.9085 182.003 32.8885C182.073 32.8785 182.133 32.8485 182.183 32.8185C182.233 32.7785 182.273 32.7285 182.303 32.6585C182.333 32.5885 182.343 32.4985 182.343 32.3885V30.1785C182.343 30.0785 182.333 29.9885 182.303 29.9285C182.273 29.8685 182.243 29.8185 182.193 29.7785C182.143 29.7385 182.093 29.7185 182.023 29.7085C181.953 29.6985 181.883 29.6885 181.803 29.6885H181.783V29.2885H183.353L183.453 29.8185H183.493C183.573 29.6785 183.653 29.5685 183.733 29.4785C183.813 29.3985 183.903 29.3285 184.003 29.2885C184.103 29.2485 184.203 29.2185 184.303 29.2085C184.413 29.1985 184.523 29.1885 184.633 29.1885C184.823 29.1885 185.003 29.2185 185.153 29.2685C185.303 29.3285 185.433 29.4085 185.543 29.5285C185.653 29.6485 185.733 29.7985 185.783 29.9785C185.843 30.1585 185.863 30.3785 185.863 30.6285V32.3585C185.863 32.4785 185.873 32.5685 185.893 32.6385C185.913 32.7085 185.943 32.7585 185.983 32.7985C186.023 32.8385 186.073 32.8585 186.143 32.8685C186.203 32.8785 186.283 32.8885 186.363 32.8885H186.383V33.2885H184.723L184.753 33.3085Z" fill="#1B94CD"/>
<path d="M188.903 33.378C188.583 33.378 188.303 33.328 188.063 33.238C187.823 33.148 187.623 33.008 187.453 32.838C187.293 32.658 187.163 32.448 187.083 32.198C187.003 31.948 186.963 31.658 186.963 31.328C186.963 30.978 187.003 30.668 187.083 30.408C187.163 30.138 187.283 29.918 187.443 29.738C187.603 29.558 187.793 29.428 188.023 29.338C188.253 29.248 188.513 29.208 188.813 29.208C189.083 29.208 189.323 29.248 189.543 29.318C189.763 29.398 189.943 29.508 190.093 29.658C190.243 29.808 190.363 29.998 190.443 30.218C190.523 30.438 190.563 30.698 190.563 30.998V31.378H188.113C188.113 31.628 188.143 31.848 188.193 32.028C188.243 32.208 188.303 32.358 188.393 32.478C188.473 32.598 188.583 32.678 188.703 32.738C188.823 32.798 188.963 32.818 189.113 32.818C189.243 32.818 189.363 32.798 189.473 32.768C189.583 32.738 189.683 32.698 189.773 32.638C189.863 32.588 189.943 32.518 190.003 32.448C190.073 32.378 190.123 32.298 190.173 32.208C190.303 32.278 190.373 32.398 190.373 32.578C190.373 32.688 190.343 32.788 190.283 32.888C190.223 32.988 190.133 33.068 190.013 33.138C189.893 33.208 189.743 33.268 189.553 33.318C189.373 33.358 189.153 33.388 188.893 33.388L188.903 33.378ZM188.833 29.688C188.623 29.688 188.453 29.788 188.333 29.998C188.213 30.208 188.143 30.508 188.133 30.908H189.423C189.423 30.718 189.413 30.548 189.393 30.398C189.373 30.248 189.333 30.118 189.293 30.018C189.243 29.908 189.183 29.828 189.113 29.778C189.043 29.718 188.943 29.698 188.843 29.698L188.833 29.688Z" fill="#1B94CD"/>
<path d="M193.173 33.378C192.853 33.378 192.573 33.328 192.333 33.238C192.093 33.148 191.893 33.008 191.723 32.838C191.563 32.658 191.433 32.448 191.353 32.198C191.273 31.948 191.233 31.658 191.233 31.328C191.233 30.978 191.273 30.668 191.353 30.408C191.433 30.138 191.553 29.918 191.713 29.738C191.873 29.558 192.063 29.428 192.293 29.338C192.523 29.248 192.783 29.208 193.083 29.208C193.353 29.208 193.593 29.248 193.813 29.318C194.033 29.398 194.213 29.508 194.363 29.658C194.513 29.808 194.633 29.998 194.713 30.218C194.793 30.438 194.833 30.698 194.833 30.998V31.378H192.383C192.383 31.628 192.413 31.848 192.463 32.028C192.513 32.208 192.573 32.358 192.663 32.478C192.743 32.598 192.853 32.678 192.973 32.738C193.093 32.798 193.233 32.818 193.383 32.818C193.513 32.818 193.633 32.798 193.743 32.768C193.853 32.738 193.953 32.698 194.043 32.638C194.133 32.588 194.213 32.518 194.273 32.448C194.343 32.378 194.393 32.298 194.443 32.208C194.573 32.278 194.643 32.398 194.643 32.578C194.643 32.688 194.613 32.788 194.553 32.888C194.493 32.988 194.403 33.068 194.283 33.138C194.163 33.208 194.013 33.268 193.823 33.318C193.643 33.358 193.423 33.388 193.163 33.388L193.173 33.378ZM193.103 29.688C192.893 29.688 192.723 29.788 192.603 29.998C192.483 30.208 192.413 30.508 192.403 30.908H193.693C193.693 30.718 193.683 30.548 193.663 30.398C193.643 30.248 193.603 30.118 193.563 30.018C193.513 29.908 193.453 29.828 193.383 29.778C193.313 29.718 193.223 29.698 193.113 29.698L193.103 29.688Z" fill="#1B94CD"/>
<path d="M197.793 33.308H195.293V32.908H195.313C195.393 32.908 195.473 32.908 195.543 32.888C195.613 32.878 195.673 32.848 195.723 32.818C195.773 32.778 195.813 32.728 195.843 32.658C195.873 32.588 195.883 32.498 195.883 32.378V30.208C195.883 30.098 195.873 30.008 195.843 29.948C195.813 29.878 195.783 29.828 195.733 29.788C195.683 29.748 195.633 29.728 195.563 29.718C195.493 29.708 195.423 29.698 195.343 29.698H195.323V29.298H196.833L196.983 29.878H197.023C197.073 29.768 197.123 29.668 197.183 29.588C197.243 29.508 197.313 29.438 197.393 29.378C197.473 29.318 197.573 29.278 197.683 29.248C197.793 29.218 197.923 29.208 198.083 29.208C198.373 29.208 198.593 29.258 198.733 29.358C198.873 29.458 198.943 29.608 198.943 29.808C198.943 30.038 198.863 30.218 198.693 30.338C198.523 30.468 198.293 30.528 197.993 30.528C197.993 30.428 197.993 30.338 197.973 30.258C197.963 30.178 197.943 30.118 197.913 30.068C197.883 30.018 197.843 29.978 197.803 29.948C197.753 29.918 197.693 29.908 197.623 29.908C197.533 29.908 197.463 29.928 197.393 29.978C197.333 30.018 197.273 30.078 197.233 30.148C197.193 30.218 197.153 30.298 197.123 30.388C197.093 30.478 197.073 30.568 197.053 30.648C197.033 30.738 197.023 30.818 197.023 30.898C197.023 30.978 197.023 31.048 197.023 31.108V32.398C197.023 32.508 197.033 32.598 197.063 32.658C197.093 32.728 197.123 32.778 197.173 32.808C197.223 32.838 197.273 32.868 197.343 32.878C197.403 32.888 197.473 32.898 197.553 32.898H197.793V33.298V33.308Z" fill="#1B94CD"/>
<path d="M199.273 32.9088C199.333 32.9088 199.383 32.9088 199.453 32.8888C199.513 32.8788 199.573 32.8588 199.623 32.8188C199.673 32.7888 199.723 32.7388 199.753 32.6688C199.793 32.6088 199.803 32.5188 199.803 32.4088V30.1388C199.803 30.0388 199.783 29.9588 199.753 29.8988C199.713 29.8388 199.673 29.7888 199.623 29.7588C199.573 29.7288 199.513 29.7088 199.453 29.6988C199.393 29.6988 199.333 29.6888 199.283 29.6888H199.193V29.2888H200.953V32.4188C200.953 32.5288 200.973 32.6088 201.003 32.6788C201.043 32.7388 201.083 32.7888 201.133 32.8288C201.183 32.8588 201.243 32.8888 201.303 32.8988C201.363 32.9088 201.423 32.9188 201.483 32.9188H201.573V33.3188H199.193V32.9188H199.283L199.273 32.9088ZM199.703 28.0888C199.703 27.9988 199.723 27.9088 199.753 27.8488C199.783 27.7788 199.833 27.7288 199.893 27.6788C199.953 27.6388 200.013 27.6088 200.093 27.5788C200.173 27.5588 200.253 27.5488 200.343 27.5488C200.433 27.5488 200.513 27.5588 200.583 27.5788C200.663 27.5988 200.733 27.6288 200.783 27.6788C200.843 27.7188 200.893 27.7788 200.923 27.8488C200.963 27.9188 200.973 27.9988 200.973 28.0888C200.973 28.1788 200.953 28.2588 200.923 28.3288C200.893 28.3988 200.843 28.4488 200.783 28.4988C200.723 28.5388 200.653 28.5788 200.583 28.5988C200.503 28.6188 200.423 28.6288 200.343 28.6288C200.253 28.6288 200.173 28.6188 200.093 28.5988C200.013 28.5788 199.953 28.5488 199.893 28.4988C199.833 28.4588 199.793 28.3988 199.753 28.3288C199.723 28.2588 199.703 28.1788 199.703 28.0888Z" fill="#1B94CD"/>
<path d="M204.823 33.3085V30.8485C204.823 30.6885 204.813 30.5485 204.793 30.4185C204.773 30.2985 204.743 30.1885 204.693 30.0985C204.643 30.0185 204.583 29.9485 204.503 29.8985C204.423 29.8485 204.333 29.8285 204.223 29.8285C204.103 29.8285 203.993 29.8585 203.913 29.9285C203.833 29.9885 203.763 30.0785 203.713 30.1785C203.663 30.2885 203.623 30.4085 203.603 30.5485C203.583 30.6885 203.573 30.8385 203.573 30.9885V32.4185C203.573 32.5285 203.583 32.6085 203.613 32.6685C203.643 32.7285 203.673 32.7785 203.723 32.8185C203.773 32.8585 203.823 32.8785 203.893 32.8885C203.963 32.8985 204.033 32.9085 204.113 32.9085H204.133V33.3085H201.833V32.9085H201.843C201.933 32.9085 202.003 32.9085 202.073 32.8885C202.143 32.8785 202.203 32.8485 202.253 32.8185C202.303 32.7785 202.343 32.7285 202.373 32.6585C202.403 32.5885 202.413 32.4985 202.413 32.3885V30.1785C202.413 30.0785 202.403 29.9885 202.373 29.9285C202.343 29.8685 202.313 29.8185 202.263 29.7785C202.213 29.7385 202.163 29.7185 202.093 29.7085C202.023 29.6985 201.953 29.6885 201.873 29.6885H201.853V29.2885H203.423L203.523 29.8185H203.563C203.643 29.6785 203.723 29.5685 203.803 29.4785C203.883 29.3985 203.973 29.3285 204.073 29.2885C204.173 29.2485 204.273 29.2185 204.373 29.2085C204.483 29.1985 204.593 29.1885 204.703 29.1885C204.893 29.1885 205.073 29.2185 205.223 29.2685C205.373 29.3285 205.503 29.4085 205.613 29.5285C205.723 29.6485 205.803 29.7985 205.853 29.9785C205.913 30.1585 205.933 30.3785 205.933 30.6285V32.3585C205.933 32.4785 205.943 32.5685 205.963 32.6385C205.983 32.7085 206.013 32.7585 206.053 32.7985C206.093 32.8385 206.143 32.8585 206.213 32.8685C206.273 32.8785 206.353 32.8885 206.433 32.8885H206.453V33.2885H204.793L204.823 33.3085Z" fill="#1B94CD"/>
<path d="M210.833 29.4386C210.833 29.4986 210.833 29.5486 210.803 29.5986C210.783 29.6486 210.753 29.6986 210.713 29.7386C210.673 29.7786 210.613 29.8086 210.553 29.8286C210.483 29.8486 210.393 29.8586 210.293 29.8586C210.293 29.8086 210.293 29.7586 210.273 29.7186C210.253 29.6786 210.233 29.6486 210.213 29.6186C210.183 29.5886 210.153 29.5686 210.123 29.5586C210.093 29.5486 210.053 29.5386 210.013 29.5386C209.973 29.5386 209.923 29.5386 209.883 29.5686C209.833 29.5886 209.803 29.6086 209.773 29.6186C209.823 29.6786 209.873 29.7386 209.913 29.8086C209.953 29.8786 209.993 29.9586 210.023 30.0386C210.053 30.1186 210.083 30.2086 210.103 30.2986C210.123 30.3886 210.133 30.4786 210.133 30.5686C210.133 30.7586 210.103 30.9286 210.043 31.0886C209.983 31.2486 209.893 31.3886 209.763 31.4986C209.643 31.6186 209.483 31.7086 209.293 31.7686C209.103 31.8386 208.883 31.8686 208.613 31.8686C208.583 31.8686 208.553 31.8686 208.513 31.8686C208.473 31.8686 208.433 31.8686 208.393 31.8686C208.353 31.8686 208.313 31.8686 208.273 31.8686C208.233 31.8686 208.203 31.8686 208.183 31.8686C208.153 31.8886 208.123 31.9086 208.083 31.9286C208.053 31.9586 208.023 31.9786 207.993 32.0186C207.963 32.0486 207.943 32.0886 207.933 32.1286C207.913 32.1686 207.913 32.2086 207.913 32.2486C207.913 32.3286 207.943 32.3886 208.013 32.4286C208.073 32.4686 208.163 32.4886 208.263 32.4886H209.173C209.423 32.4886 209.633 32.5186 209.813 32.5686C209.993 32.6186 210.143 32.6986 210.263 32.7886C210.383 32.8886 210.473 33.0086 210.523 33.1486C210.583 33.2886 210.603 33.4486 210.603 33.6286C210.603 33.8586 210.563 34.0686 210.473 34.2486C210.383 34.4286 210.253 34.5786 210.073 34.7086C209.893 34.8386 209.673 34.9286 209.393 34.9986C209.123 35.0686 208.803 35.0986 208.433 35.0986C207.843 35.0986 207.403 35.0086 207.113 34.8386C206.823 34.6586 206.683 34.3986 206.683 34.0586C206.683 33.7886 206.773 33.5886 206.943 33.4386C207.113 33.2986 207.363 33.2086 207.693 33.1886C207.623 33.1586 207.553 33.1286 207.493 33.0886C207.423 33.0486 207.373 32.9986 207.313 32.9486C207.253 32.8986 207.223 32.8286 207.193 32.7586C207.163 32.6886 207.143 32.6086 207.143 32.5186C207.143 32.4386 207.163 32.3586 207.193 32.2886C207.223 32.2186 207.273 32.1486 207.333 32.0886C207.393 32.0286 207.463 31.9686 207.543 31.9086C207.623 31.8486 207.713 31.7986 207.813 31.7386C207.703 31.6986 207.603 31.6486 207.513 31.5786C207.423 31.5086 207.343 31.4286 207.273 31.3286C207.203 31.2286 207.153 31.1186 207.113 30.9986C207.073 30.8786 207.053 30.7386 207.053 30.5886C207.053 30.1486 207.183 29.8086 207.433 29.5686C207.683 29.3286 208.083 29.2086 208.613 29.2086C208.793 29.2086 208.953 29.2286 209.103 29.2786C209.253 29.3286 209.383 29.3786 209.503 29.4386C209.543 29.3986 209.593 29.3486 209.643 29.2986C209.693 29.2486 209.753 29.1986 209.813 29.1586C209.873 29.1186 209.943 29.0786 210.023 29.0586C210.103 29.0286 210.183 29.0186 210.283 29.0186C210.383 29.0186 210.453 29.0286 210.523 29.0586C210.593 29.0786 210.643 29.1086 210.693 29.1486C210.743 29.1886 210.773 29.2286 210.793 29.2886C210.813 29.3386 210.823 29.3986 210.823 29.4486L210.833 29.4386ZM207.583 34.0486C207.583 34.2586 207.663 34.4086 207.803 34.5086C207.953 34.6086 208.173 34.6586 208.463 34.6586C208.903 34.6586 209.223 34.5986 209.423 34.4686C209.623 34.3386 209.723 34.1586 209.723 33.9086C209.723 33.7486 209.673 33.6386 209.573 33.5786C209.473 33.5186 209.323 33.4786 209.123 33.4786H208.253C208.173 33.4786 208.103 33.4786 208.023 33.4986C207.943 33.5086 207.873 33.5386 207.813 33.5786C207.753 33.6186 207.693 33.6786 207.653 33.7486C207.613 33.8186 207.593 33.9186 207.593 34.0386L207.583 34.0486ZM208.083 30.5886C208.083 30.7186 208.083 30.8386 208.113 30.9486C208.133 31.0586 208.163 31.1486 208.203 31.2186C208.243 31.2986 208.293 31.3486 208.363 31.3986C208.433 31.4386 208.513 31.4586 208.603 31.4586C208.693 31.4586 208.783 31.4386 208.853 31.3986C208.923 31.3586 208.973 31.2986 209.013 31.2186C209.053 31.1386 209.083 31.0486 209.093 30.9386C209.113 30.8286 209.113 30.7086 209.113 30.5786C209.113 30.4486 209.113 30.3186 209.083 30.1986C209.063 30.0886 209.033 29.9886 208.993 29.9086C208.953 29.8286 208.903 29.7686 208.833 29.7186C208.763 29.6786 208.683 29.6486 208.583 29.6486C208.483 29.6486 208.403 29.6686 208.343 29.7186C208.273 29.7686 208.223 29.8286 208.183 29.9086C208.143 29.9886 208.113 30.0886 208.093 30.2086C208.073 30.3186 208.063 30.4486 208.063 30.5886H208.083Z" fill="#1B94CD"/>
</svg>
