<svg width="209" height="56" viewBox="0 0 209 56" fill="none" xmlns="http://www.w3.org/2000/svg">
<mask id="mask0_924_52278" style="mask-type:luminance" maskUnits="userSpaceOnUse" x="26" y="11" width="5" height="5">
<path d="M28.0197 11.88C27.1597 12.24 26.7497 13.23 27.1097 14.09C27.4697 14.95 28.4597 15.36 29.3197 15C30.1797 14.64 30.5897 13.66 30.2297 12.79C29.9597 12.14 29.3297 11.75 28.6697 11.75C28.4497 11.75 28.2397 11.79 28.0297 11.88" fill="white"/>
</mask>
<g mask="url(#mask0_924_52278)">
<path d="M30.5795 11.75H26.7495V15.36H30.5795V11.75Z" fill="url(#paint0_linear_924_52278)"/>
</g>
<path d="M29.6397 13.1097C29.3197 12.3497 28.4497 11.9897 27.6897 12.2997C26.9297 12.6097 26.5697 13.4897 26.8797 14.2497C27.1897 15.0097 28.0697 15.3697 28.8297 15.0597C29.5897 14.7497 29.9497 13.8797 29.6397 13.1197V13.1097Z" fill="url(#paint1_linear_924_52278)"/>
<path d="M27.3201 19.9899C27.3101 19.3399 26.9201 18.7299 26.2801 18.4699C25.6401 18.2099 24.9401 18.3599 24.4701 18.8099C24.3501 18.9199 24.1701 18.9299 24.0501 18.8299C23.7101 18.5499 23.4001 18.2399 23.1101 17.8899C23.0101 17.7699 23.0101 17.5799 23.1301 17.4699C23.5801 16.9999 23.7401 16.2999 23.4701 15.6599C23.2101 15.0199 22.6001 14.6299 21.9501 14.6199C21.7901 14.6199 21.6501 14.4899 21.6401 14.3299C21.6001 13.8899 21.6001 13.4399 21.6401 13.0099C21.6601 12.8499 21.7901 12.7199 21.9501 12.7199C22.6001 12.7099 23.2101 12.3199 23.4701 11.6799C23.7301 11.0399 23.5801 10.3399 23.1301 9.86988C23.0201 9.74988 23.0101 9.56988 23.1101 9.44988C23.3901 9.10988 23.7001 8.79988 24.0501 8.50988C24.1801 8.40988 24.3601 8.40988 24.4701 8.52988C24.9401 8.97988 25.6401 9.13988 26.2801 8.86988C26.6501 8.71988 26.9401 8.43988 27.1201 8.10988L26.8401 7.62988H18.3201L14.0601 14.9999L18.3201 22.3799H26.8401L28.0301 20.3199C27.8901 20.3199 27.7401 20.3199 27.6001 20.2999C27.4401 20.2799 27.3201 20.1499 27.3101 19.9899H27.3201Z" fill="url(#paint2_linear_924_52278)"/>
<path d="M10.3398 8.5504C11.2598 7.4404 11.5198 5.9904 11.1698 4.7004C9.82977 4.6004 8.46977 5.1304 7.54977 6.2504C6.62977 7.3704 6.36977 8.8104 6.71977 10.1004C8.05977 10.2004 9.41977 9.6704 10.3398 8.5504Z" fill="url(#paint3_linear_924_52278)"/>
<path d="M15.7697 3.74047C14.7397 4.53047 13.4797 4.90047 12.2297 4.82047C12.5197 6.32047 12.1697 7.93047 11.1197 9.19047C10.0697 10.4605 8.55969 11.1105 7.02969 11.1105C7.33969 12.3005 7.22969 13.5905 6.67969 14.7405H13.6197L17.8697 7.37047L15.7697 3.73047V3.74047Z" fill="url(#paint4_linear_924_52278)"/>
<path d="M6.76984 5.6C7.81984 4.33 9.32984 3.68 10.8498 3.68C10.5398 2.46 10.6598 1.15 11.2398 0H5.10984L0.839844 7.38L2.81984 10.81C3.67984 10.27 4.65984 9.99 5.65984 9.99C5.36984 8.49 5.71984 6.88 6.76984 5.61V5.6Z" fill="url(#paint5_linear_924_52278)"/>
<path d="M5.94008 11.01C5.03008 10.95 4.11008 11.19 3.33008 11.69L5.09008 14.75H5.52008C6.24008 13.61 6.37008 12.23 5.94008 11.01Z" fill="url(#paint6_linear_924_52278)"/>
<path d="M11.9299 3.78C13.0999 3.95 14.3199 3.63 15.2599 2.85L13.6099 0H12.3899C11.6299 1.14 11.4899 2.55 11.9199 3.78H11.9299Z" fill="url(#paint7_linear_924_52278)"/>
<path d="M5.31984 15.2695H5.08984L0.839844 22.6295L5.09984 30.0095H13.2898V28.5795C11.4598 28.0695 10.3898 27.0595 9.79984 26.0095C9.17984 24.9195 9.06984 23.7895 9.06984 23.0995C9.06984 22.9395 9.06984 22.7995 9.07984 22.6895L7.17984 22.2795C7.09984 22.2595 7.02984 22.2095 6.98984 22.1395C6.94984 22.0695 6.93984 21.9795 6.96984 21.8995L9.32984 15.5095C9.38984 15.3595 9.54984 15.2795 9.69984 15.3395C9.84984 15.3995 9.92984 15.5595 9.86984 15.7095L7.61984 21.7795L9.43984 22.1695C9.58984 22.1995 9.68984 22.3495 9.66984 22.4995C9.66984 22.4995 9.66984 22.5495 9.64984 22.6495C9.64984 22.7495 9.62984 22.9095 9.62984 23.0995C9.62984 23.7295 9.73984 24.7595 10.2798 25.7295C10.8298 26.6995 11.7998 27.6195 13.6298 28.0795C13.7598 28.1095 13.8498 28.2295 13.8498 28.3595V29.5695L17.8498 22.6395L13.5998 15.2695H5.31984ZM10.9598 18.0595C11.3298 18.0595 11.6398 18.3595 11.6398 18.7395C11.6398 19.1195 11.3398 19.4195 10.9598 19.4195C10.5798 19.4195 10.2798 19.1195 10.2798 18.7395C10.2798 18.3595 10.5798 18.0595 10.9598 18.0595Z" fill="url(#paint8_linear_924_52278)"/>
<path d="M5.51984 14.7502L5.52984 14.7402H5.08984L5.09984 14.7502" fill="white"/>
<g opacity="0.25">
<path d="M9.31 4.98047C9.03 5.09047 8.75 5.23047 8.5 5.40047L10.99 7.45047C11.11 7.17047 11.19 6.87047 11.25 6.57047L9.32 4.98047H9.31Z" fill="white"/>
<path d="M9.31 4.98047C9.03 5.09047 8.75 5.23047 8.5 5.40047L10.99 7.45047C11.11 7.17047 11.19 6.87047 11.25 6.57047L9.32 4.98047H9.31Z" fill="white"/>
<path d="M7.54992 6.24988C7.40992 6.42988 7.27992 6.60988 7.16992 6.79988L9.87992 9.02988C10.0399 8.88988 10.1999 8.72988 10.3499 8.55988C10.3899 8.50988 10.4199 8.45988 10.4499 8.41988L7.66992 6.12988C7.66992 6.12988 7.58992 6.20988 7.54992 6.25988V6.24988Z" fill="white"/>
<path d="M7.54992 6.24988C7.40992 6.42988 7.27992 6.60988 7.16992 6.79988L9.87992 9.02988C10.0399 8.88988 10.1999 8.72988 10.3499 8.55988C10.3899 8.50988 10.4199 8.45988 10.4499 8.41988L7.66992 6.12988C7.66992 6.12988 7.58992 6.20988 7.54992 6.25988V6.24988Z" fill="white"/>
<path d="M6.58008 8.7L8.12008 9.97C8.43008 9.89 8.73008 9.77 9.02008 9.62L6.75008 7.75C6.66008 8.06 6.60008 8.38 6.58008 8.7Z" fill="white"/>
<path d="M6.58008 8.7L8.12008 9.97C8.43008 9.89 8.73008 9.77 9.02008 9.62L6.75008 7.75C6.66008 8.06 6.60008 8.38 6.58008 8.7Z" fill="white"/>
<path d="M5.0901 14.7403H5.3601L4.8501 14.3203L5.0901 14.7403Z" fill="white"/>
<path d="M6.1699 12.1598L4.8699 11.0898C4.5399 11.1498 4.2099 11.2398 3.8999 11.3798L6.1099 13.1998C6.1699 12.8498 6.1899 12.4998 6.1699 12.1598Z" fill="white"/>
<path d="M6.1699 12.1598L4.8699 11.0898C4.5399 11.1498 4.2099 11.2398 3.8999 11.3798L6.1099 13.1998C6.1699 12.8498 6.1899 12.4998 6.1699 12.1598Z" fill="white"/>
<path d="M4.8499 14.32L5.3699 14.75H5.5299C5.6699 14.53 5.7799 14.31 5.8699 14.08L3.6499 12.25L4.8499 14.33V14.32Z" fill="white"/>
<path d="M4.8499 14.32L5.3699 14.75H5.5299C5.6699 14.53 5.7799 14.31 5.8699 14.08L3.6499 12.25L4.8499 14.33V14.32Z" fill="white"/>
<path d="M15.2597 2.85027L14.7697 2.00027L12.3797 0.0302734C12.2197 0.280273 12.0897 0.530273 11.9897 0.800273L14.8497 3.15027C14.9897 3.06027 15.1297 2.96027 15.2697 2.85027H15.2597Z" fill="white"/>
<path d="M15.2597 2.85027L14.7697 2.00027L12.3797 0.0302734C12.2197 0.280273 12.0897 0.530273 11.9897 0.800273L14.8497 3.15027C14.9897 3.06027 15.1297 2.96027 15.2697 2.85027H15.2597Z" fill="white"/>
<path d="M11.7598 3.14L12.5898 3.82C12.9698 3.82 13.3498 3.76 13.7198 3.66L11.7098 2C11.6798 2.38 11.6998 2.76 11.7698 3.13L11.7598 3.14Z" fill="white"/>
<path d="M11.7598 3.14L12.5898 3.82C12.9698 3.82 13.3498 3.76 13.7198 3.66L11.7098 2C11.6798 2.38 11.6998 2.76 11.7698 3.13L11.7598 3.14Z" fill="white"/>
</g>
<path d="M22.6299 52.25V51.06H25.2499V53.5C24.7499 53.86 24.2999 54.1 23.9199 54.23C23.5299 54.36 23.0799 54.42 22.5499 54.42C21.8999 54.42 21.3699 54.3 20.9599 54.07C20.5499 53.84 20.2299 53.49 20.0099 53.04C19.7799 52.58 19.6699 52.06 19.6699 51.46C19.6699 50.84 19.7899 50.29 20.0399 49.83C20.2899 49.37 20.6499 49.02 21.1299 48.78C21.4999 48.6 21.9999 48.5 22.6299 48.5C23.2599 48.5 23.6899 48.56 23.9899 48.67C24.2899 48.78 24.5399 48.96 24.7399 49.2C24.9399 49.44 25.0899 49.75 25.1899 50.11L23.5499 50.41C23.4799 50.19 23.3699 50.03 23.2099 49.91C23.0499 49.8 22.8399 49.74 22.5899 49.74C22.2199 49.74 21.9199 49.87 21.6999 50.14C21.4799 50.41 21.3699 50.83 21.3699 51.42C21.3699 52.04 21.4799 52.48 21.7099 52.75C21.9399 53.02 22.2399 53.15 22.6399 53.15C22.8299 53.15 23.0099 53.12 23.1799 53.06C23.3499 53 23.5499 52.91 23.7699 52.77V52.23H22.6399L22.6299 52.25Z" fill="#1D1D1B"/>
<path d="M26.02 48.5996H27.54V49.6796H26.02V48.5996ZM26.02 50.1796H27.54V54.3196H26.02V50.1796Z" fill="#1D1D1B"/>
<path d="M28.3398 50.1801H29.7598V50.7801C29.9598 50.5301 30.1698 50.3501 30.3798 50.2401C30.5898 50.1301 30.8398 50.0801 31.1398 50.0801C31.4598 50.0801 31.7098 50.1401 31.8898 50.2601C32.0798 50.3801 32.2298 50.5501 32.3398 50.7801C32.5798 50.5101 32.7998 50.3301 32.9898 50.2301C33.1898 50.1301 33.4298 50.0801 33.7198 50.0801C34.1498 50.0801 34.4798 50.2101 34.7198 50.4801C34.9598 50.7401 35.0798 51.1601 35.0798 51.7201V54.3201H33.5498V51.9601C33.5498 51.7701 33.5198 51.6301 33.4498 51.5401C33.3498 51.4001 33.2198 51.3301 33.0698 51.3301C32.8898 51.3301 32.7498 51.4001 32.6398 51.5301C32.5298 51.6601 32.4798 51.8801 32.4798 52.1801V54.3201H30.9498V52.0401C30.9498 51.8601 30.9398 51.7301 30.9198 51.6701C30.8898 51.5701 30.8298 51.4801 30.7498 51.4201C30.6698 51.3601 30.5798 51.3201 30.4698 51.3201C30.2898 51.3201 30.1498 51.3901 30.0398 51.5301C29.9298 51.6701 29.8698 51.8901 29.8698 52.2101V54.3201H28.3398V50.1801Z" fill="#1D1D1B"/>
<path d="M35.7998 48.5996H37.3198V50.7096C37.5298 50.4896 37.7298 50.3296 37.9398 50.2296C38.1398 50.1296 38.3898 50.0896 38.6698 50.0896C39.0798 50.0896 39.4098 50.2196 39.6498 50.4796C39.8898 50.7396 40.0098 51.1496 40.0098 51.6896V54.3196H38.4798V52.0396C38.4798 51.7796 38.4298 51.5996 38.3398 51.4896C38.2498 51.3796 38.1198 51.3296 37.9498 51.3296C37.7698 51.3296 37.6198 51.3996 37.4998 51.5496C37.3898 51.6996 37.3298 51.9596 37.3298 52.3296V54.3196H35.8098V48.5996H35.7998Z" fill="#1D1D1B"/>
<path d="M42.11 51.5203L40.65 51.3603C40.7 51.0903 40.78 50.8903 40.89 50.7303C40.99 50.5803 41.14 50.4503 41.34 50.3303C41.48 50.2503 41.67 50.1903 41.92 50.1403C42.16 50.1003 42.43 50.0703 42.71 50.0703C43.17 50.0703 43.53 50.1003 43.81 50.1503C44.09 50.2003 44.32 50.3103 44.5 50.4803C44.63 50.6003 44.73 50.7603 44.81 50.9803C44.89 51.1903 44.92 51.4003 44.92 51.5903V53.4203C44.92 53.6103 44.93 53.7703 44.96 53.8803C44.98 53.9903 45.04 54.1303 45.12 54.3003H43.69C43.63 54.1903 43.6 54.1103 43.58 54.0603C43.56 54.0003 43.54 53.9203 43.53 53.8003C43.33 54.0003 43.13 54.1403 42.93 54.2303C42.66 54.3403 42.35 54.4003 41.99 54.4003C41.52 54.4003 41.16 54.2903 40.91 54.0603C40.66 53.8303 40.54 53.5503 40.54 53.2103C40.54 52.9003 40.63 52.6403 40.81 52.4303C40.99 52.2303 41.31 52.0803 41.79 51.9803C42.36 51.8603 42.73 51.7803 42.9 51.7303C43.07 51.6803 43.25 51.6203 43.44 51.5403C43.44 51.3503 43.4 51.2103 43.32 51.1303C43.24 51.0503 43.11 51.0103 42.91 51.0103C42.66 51.0103 42.47 51.0503 42.35 51.1303C42.25 51.2003 42.17 51.3203 42.11 51.5003V51.5203ZM43.43 52.3503C43.22 52.4303 43 52.5003 42.77 52.5603C42.46 52.6503 42.26 52.7303 42.18 52.8103C42.1 52.9003 42.05 52.9903 42.05 53.1003C42.05 53.2203 42.09 53.3303 42.18 53.4103C42.26 53.4903 42.39 53.5303 42.55 53.5303C42.71 53.5303 42.88 53.4903 43.02 53.4003C43.17 53.3103 43.27 53.2103 43.33 53.0903C43.39 52.9703 43.42 52.8103 43.42 52.6103V52.3603L43.43 52.3503Z" fill="#1D1D1B"/>
<path d="M50.06 52.6403H47C47.03 52.8903 47.09 53.0803 47.2 53.2103C47.35 53.3903 47.54 53.4803 47.78 53.4803C47.93 53.4803 48.07 53.4403 48.21 53.3603C48.29 53.3103 48.38 53.2203 48.48 53.1003L49.98 53.2403C49.75 53.6603 49.47 53.9503 49.15 54.1303C48.83 54.3103 48.36 54.4003 47.75 54.4003C47.22 54.4003 46.81 54.3203 46.51 54.1703C46.21 54.0203 45.96 53.7703 45.76 53.4303C45.56 53.0903 45.46 52.7003 45.46 52.2403C45.46 51.5903 45.66 51.0703 46.06 50.6703C46.46 50.2703 47.01 50.0703 47.71 50.0703C48.28 50.0703 48.73 50.1603 49.06 50.3403C49.39 50.5203 49.64 50.7803 49.81 51.1203C49.98 51.4603 50.07 51.9003 50.07 52.4503V52.6303L50.06 52.6403ZM48.51 51.8803C48.48 51.5703 48.4 51.3503 48.27 51.2203C48.14 51.0903 47.97 51.0203 47.76 51.0203C47.52 51.0203 47.32 51.1203 47.18 51.3203C47.09 51.4403 47.03 51.6303 47 51.8803H48.5H48.51Z" fill="#1D1D1B"/>
<path d="M53.04 48.5996H56.22C56.75 48.5996 57.16 48.7396 57.44 49.0096C57.72 49.2796 57.86 49.6196 57.86 50.0196C57.86 50.3596 57.76 50.6496 57.56 50.8896C57.43 51.0496 57.23 51.1796 56.97 51.2696C57.36 51.3696 57.65 51.5396 57.84 51.7796C58.03 52.0196 58.12 52.3196 58.12 52.6896C58.12 52.9896 58.05 53.2496 57.92 53.4896C57.79 53.7296 57.61 53.9096 57.38 54.0496C57.24 54.1396 57.02 54.1996 56.74 54.2396C56.36 54.2896 56.1 54.3196 55.98 54.3196H53.05V48.5996H53.04ZM54.75 50.8396H55.49C55.75 50.8396 55.94 50.7896 56.04 50.6996C56.14 50.6096 56.2 50.4696 56.2 50.2896C56.2 50.1196 56.15 49.9896 56.04 49.8996C55.94 49.8096 55.76 49.7596 55.5 49.7596H54.75V50.8396ZM54.75 53.0896H55.62C55.91 53.0896 56.12 53.0396 56.24 52.9296C56.36 52.8196 56.42 52.6796 56.42 52.4996C56.42 52.3296 56.36 52.1996 56.24 52.0896C56.12 51.9896 55.91 51.9396 55.62 51.9396H54.76V53.0996L54.75 53.0896Z" fill="#1D1D1B"/>
<path d="M58.77 48.5996H60.29V49.6796H58.77V48.5996ZM58.77 50.1796H60.29V54.3196H58.77V50.1796Z" fill="#1D1D1B"/>
<path d="M60.8896 52.2598C60.8896 51.6298 61.0896 51.1098 61.4996 50.6998C61.9096 50.2898 62.4596 50.0898 63.1596 50.0898C63.9596 50.0898 64.5596 50.3298 64.9696 50.8098C65.2996 51.1998 65.4597 51.6698 65.4597 52.2398C65.4597 52.8798 65.2597 53.3998 64.8497 53.8098C64.4397 54.2198 63.8797 54.4198 63.1697 54.4198C62.5297 54.4198 62.0096 54.2498 61.6196 53.9098C61.1396 53.4898 60.8896 52.9398 60.8896 52.2598ZM62.4197 52.2598C62.4197 52.6298 62.4896 52.8998 62.6396 53.0798C62.7796 53.2598 62.9596 53.3498 63.1796 53.3498C63.3996 53.3498 63.5797 53.2598 63.7197 53.0898C63.8597 52.9198 63.9296 52.6398 63.9296 52.2498C63.9296 51.8898 63.8597 51.6198 63.7197 51.4498C63.5797 51.2698 63.3996 51.1898 63.1896 51.1898C62.9696 51.1898 62.7796 51.2798 62.6396 51.4598C62.4996 51.6398 62.4197 51.9098 62.4197 52.2698V52.2598Z" fill="#1D1D1B"/>
<path d="M66.0098 50.1801H67.4298V50.7801C67.6298 50.5301 67.8398 50.3501 68.0498 50.2401C68.2598 50.1301 68.5098 50.0801 68.8098 50.0801C69.1298 50.0801 69.3798 50.1401 69.5598 50.2601C69.7498 50.3801 69.8998 50.5501 70.0098 50.7801C70.2498 50.5101 70.4698 50.3301 70.6598 50.2301C70.8598 50.1301 71.0998 50.0801 71.3898 50.0801C71.8198 50.0801 72.1498 50.2101 72.3898 50.4801C72.6298 50.7401 72.7498 51.1601 72.7498 51.7201V54.3201H71.2198V51.9601C71.2198 51.7701 71.1898 51.6301 71.1198 51.5401C71.0198 51.4001 70.8898 51.3301 70.7398 51.3301C70.5598 51.3301 70.4198 51.4001 70.3098 51.5301C70.1998 51.6601 70.1498 51.8801 70.1498 52.1801V54.3201H68.6198V52.0401C68.6198 51.8601 68.6098 51.7301 68.5898 51.6701C68.5598 51.5701 68.4998 51.4801 68.4198 51.4201C68.3398 51.3601 68.2498 51.3201 68.1398 51.3201C67.9598 51.3201 67.8198 51.3901 67.7098 51.5301C67.5998 51.6701 67.5398 51.8901 67.5398 52.2101V54.3201H66.0098V50.1801Z" fill="#1D1D1B"/>
<path d="M77.89 52.6403H74.83C74.86 52.8903 74.92 53.0803 75.03 53.2103C75.18 53.3903 75.37 53.4803 75.61 53.4803C75.76 53.4803 75.9 53.4403 76.04 53.3603C76.12 53.3103 76.21 53.2203 76.31 53.1003L77.81 53.2403C77.58 53.6603 77.3 53.9503 76.98 54.1303C76.66 54.3103 76.19 54.4003 75.58 54.4003C75.05 54.4003 74.64 54.3203 74.34 54.1703C74.04 54.0203 73.79 53.7703 73.59 53.4303C73.39 53.0903 73.29 52.7003 73.29 52.2403C73.29 51.5903 73.49 51.0703 73.89 50.6703C74.29 50.2703 74.84 50.0703 75.54 50.0703C76.11 50.0703 76.56 50.1603 76.89 50.3403C77.22 50.5203 77.47 50.7803 77.64 51.1203C77.81 51.4603 77.9 51.9003 77.9 52.4503V52.6303L77.89 52.6403ZM76.34 51.8803C76.31 51.5703 76.23 51.3503 76.1 51.2203C75.97 51.0903 75.8 51.0203 75.59 51.0203C75.35 51.0203 75.15 51.1203 75.01 51.3203C74.92 51.4403 74.86 51.6303 74.83 51.8803H76.33H76.34Z" fill="#1D1D1B"/>
<path d="M82.5797 48.5996V54.3196H81.1497V53.7096C80.9497 53.9696 80.7697 54.1496 80.5997 54.2396C80.3797 54.3596 80.1397 54.4196 79.8697 54.4196C79.3297 54.4196 78.9097 54.2096 78.6297 53.7796C78.3397 53.3496 78.1997 52.8296 78.1997 52.2196C78.1997 51.5296 78.3597 51.0096 78.6697 50.6396C78.9897 50.2796 79.3897 50.0896 79.8697 50.0896C80.1097 50.0896 80.3197 50.1296 80.5197 50.2096C80.7097 50.2896 80.8897 50.4196 81.0297 50.5796V48.5996H82.5697H82.5797ZM81.0497 52.2296C81.0497 51.9096 80.9797 51.6596 80.8497 51.4996C80.7197 51.3396 80.5497 51.2596 80.3497 51.2596C80.1697 51.2596 80.0197 51.3396 79.8997 51.4896C79.7797 51.6396 79.7197 51.8996 79.7197 52.2596C79.7197 52.5996 79.7797 52.8496 79.9097 52.9996C80.0297 53.1596 80.1897 53.2396 80.3697 53.2396C80.5597 53.2396 80.7297 53.1596 80.8597 52.9996C80.9897 52.8396 81.0497 52.5796 81.0497 52.2196V52.2296Z" fill="#1D1D1B"/>
<path d="M83.3799 48.5996H84.8999V49.6796H83.3799V48.5996ZM83.3799 50.1796H84.8999V54.3196H83.3799V50.1796Z" fill="#1D1D1B"/>
<path d="M88.6498 52.6996L90.0998 52.8696C90.0198 53.1796 89.8898 53.4596 89.7098 53.6896C89.5298 53.9196 89.2898 54.0996 89.0098 54.2296C88.7298 54.3596 88.3698 54.4196 87.9298 54.4196C87.4898 54.4196 87.1598 54.3796 86.8798 54.2996C86.5998 54.2196 86.3598 54.0896 86.1598 53.8996C85.9598 53.7196 85.7998 53.4996 85.6798 53.2596C85.5698 53.0096 85.5098 52.6896 85.5098 52.2796C85.5098 51.8696 85.5798 51.4996 85.7198 51.2196C85.8198 51.0096 85.9598 50.8296 86.1398 50.6596C86.3198 50.4996 86.4998 50.3696 86.6898 50.2896C86.9898 50.1596 87.3698 50.0996 87.8298 50.0996C88.4798 50.0996 88.9698 50.2196 89.3098 50.4596C89.6498 50.6996 89.8898 51.0596 90.0298 51.5196L88.5998 51.7196C88.5598 51.5396 88.4698 51.4096 88.3498 51.3196C88.2298 51.2296 88.0698 51.1896 87.8698 51.1896C87.6198 51.1896 87.4098 51.2796 87.2598 51.4696C87.0998 51.6596 87.0298 51.9396 87.0298 52.3196C87.0298 52.6596 87.1098 52.9196 87.2598 53.0896C87.4098 53.2696 87.6098 53.3496 87.8498 53.3496C88.0498 53.3496 88.2198 53.2996 88.3498 53.1896C88.4898 53.0796 88.5898 52.9196 88.6598 52.6996H88.6498Z" fill="#1D1D1B"/>
<path d="M91.9997 51.5203L90.5397 51.3603C90.5897 51.0903 90.6697 50.8903 90.7797 50.7303C90.8797 50.5803 91.0297 50.4503 91.2297 50.3303C91.3697 50.2503 91.5597 50.1903 91.8097 50.1403C92.0497 50.1003 92.3197 50.0703 92.5997 50.0703C93.0597 50.0703 93.4197 50.1003 93.6997 50.1503C93.9797 50.2003 94.2097 50.3103 94.3897 50.4803C94.5197 50.6003 94.6197 50.7603 94.6997 50.9803C94.7797 51.1903 94.8097 51.4003 94.8097 51.5903V53.4203C94.8097 53.6103 94.8197 53.7703 94.8497 53.8803C94.8697 53.9903 94.9297 54.1303 95.0097 54.3003H93.5797C93.5197 54.1903 93.4897 54.1103 93.4697 54.0603C93.4497 54.0003 93.4397 53.9203 93.4197 53.8003C93.2197 54.0003 93.0197 54.1403 92.8197 54.2303C92.5497 54.3403 92.2397 54.4003 91.8797 54.4003C91.4097 54.4003 91.0497 54.2903 90.7997 54.0603C90.5497 53.8303 90.4297 53.5503 90.4297 53.2103C90.4297 52.9003 90.5197 52.6403 90.6997 52.4303C90.8797 52.2303 91.1997 52.0803 91.6797 51.9803C92.2497 51.8603 92.6197 51.7803 92.7897 51.7303C92.9597 51.6803 93.1397 51.6203 93.3297 51.5403C93.3297 51.3503 93.2897 51.2103 93.2097 51.1303C93.1297 51.0503 92.9997 51.0103 92.7997 51.0103C92.5497 51.0103 92.3597 51.0503 92.2397 51.1303C92.1397 51.2003 92.0597 51.3203 91.9997 51.5003V51.5203ZM93.3197 52.3503C93.1097 52.4303 92.8897 52.5003 92.6597 52.5603C92.3497 52.6503 92.1497 52.7303 92.0697 52.8103C91.9897 52.9003 91.9397 52.9903 91.9397 53.1003C91.9397 53.2203 91.9797 53.3303 92.0697 53.4103C92.1497 53.4903 92.2797 53.5303 92.4397 53.5303C92.5997 53.5303 92.7697 53.4903 92.9097 53.4003C93.0597 53.3103 93.1597 53.2103 93.2197 53.0903C93.2797 52.9703 93.3097 52.8103 93.3097 52.6103V52.3603L93.3197 52.3503Z" fill="#1D1D1B"/>
<path d="M95.5801 48.5996H97.1101V54.3196H95.5801V48.5996Z" fill="#1D1D1B"/>
<path d="M100.43 48.5996H102.13V54.3196H100.43V48.5996Z" fill="#1D1D1B"/>
<path d="M103.05 50.1801H104.47V50.8501C104.68 50.5701 104.9 50.3801 105.11 50.2601C105.33 50.1401 105.59 50.0801 105.9 50.0801C106.32 50.0801 106.65 50.2101 106.89 50.4701C107.13 50.7301 107.25 51.1301 107.25 51.6801V54.3101H105.72V52.0301C105.72 51.7701 105.67 51.5901 105.58 51.4801C105.49 51.3701 105.36 51.3201 105.19 51.3201C105.01 51.3201 104.86 51.3901 104.74 51.5401C104.63 51.6901 104.57 51.9501 104.57 52.3201V54.3101H103.05V50.1701V50.1801Z" fill="#1D1D1B"/>
<path d="M112.16 48.5996V54.3196H110.73V53.7096C110.53 53.9696 110.35 54.1496 110.18 54.2396C109.96 54.3596 109.72 54.4196 109.45 54.4196C108.91 54.4196 108.49 54.2096 108.21 53.7796C107.92 53.3496 107.78 52.8296 107.78 52.2196C107.78 51.5296 107.94 51.0096 108.25 50.6396C108.57 50.2796 108.97 50.0896 109.45 50.0896C109.69 50.0896 109.9 50.1296 110.1 50.2096C110.29 50.2896 110.47 50.4196 110.61 50.5796V48.5996H112.15H112.16ZM110.63 52.2296C110.63 51.9096 110.56 51.6596 110.43 51.4996C110.3 51.3396 110.13 51.2596 109.93 51.2596C109.75 51.2596 109.6 51.3396 109.48 51.4896C109.36 51.6396 109.3 51.8996 109.3 52.2596C109.3 52.5996 109.36 52.8496 109.49 52.9996C109.61 53.1596 109.77 53.2396 109.95 53.2396C110.14 53.2396 110.31 53.1596 110.44 52.9996C110.57 52.8396 110.63 52.5796 110.63 52.2196V52.2296Z" fill="#1D1D1B"/>
<path d="M117.09 54.3197H115.67V53.6497C115.46 53.9297 115.24 54.1197 115.03 54.2397C114.81 54.3597 114.55 54.4197 114.23 54.4197C113.81 54.4197 113.48 54.2897 113.24 54.0297C113 53.7697 112.88 53.3697 112.88 52.8197V50.1797H114.41V52.4597C114.41 52.7197 114.46 52.8997 114.55 53.0097C114.64 53.1197 114.77 53.1697 114.94 53.1697C115.12 53.1697 115.27 53.0997 115.39 52.9497C115.51 52.7997 115.56 52.5397 115.56 52.1697V50.1797H117.08V54.3197H117.09Z" fill="#1D1D1B"/>
<path d="M117.55 53.1698L119.06 53.0198C119.12 53.2098 119.21 53.3398 119.32 53.4198C119.43 53.4998 119.58 53.5398 119.77 53.5398C119.97 53.5398 120.13 53.4898 120.25 53.3998C120.34 53.3298 120.38 53.2498 120.38 53.1498C120.38 53.0398 120.32 52.9498 120.21 52.8898C120.13 52.8498 119.91 52.7898 119.55 52.7298C119.02 52.6298 118.65 52.5498 118.45 52.4598C118.24 52.3798 118.07 52.2398 117.93 52.0498C117.79 51.8598 117.72 51.6298 117.72 51.3798C117.72 51.1098 117.8 50.8698 117.95 50.6798C118.1 50.4798 118.31 50.3398 118.58 50.2398C118.85 50.1398 119.21 50.0898 119.65 50.0898C120.12 50.0898 120.47 50.1298 120.7 50.1998C120.93 50.2798 121.11 50.3898 121.27 50.5498C121.42 50.7098 121.55 50.9198 121.65 51.1898L120.2 51.3398C120.16 51.2098 120.1 51.1098 120.01 51.0498C119.89 50.9698 119.75 50.9298 119.58 50.9298C119.41 50.9298 119.28 50.9598 119.2 51.0298C119.12 51.0898 119.08 51.1698 119.08 51.2598C119.08 51.3598 119.13 51.4398 119.23 51.4898C119.33 51.5398 119.55 51.5898 119.88 51.6298C120.39 51.6898 120.76 51.7698 121.01 51.8798C121.26 51.9898 121.45 52.1398 121.58 52.3398C121.71 52.5398 121.78 52.7498 121.78 52.9898C121.78 53.2298 121.71 53.4598 121.57 53.6898C121.43 53.9198 121.21 54.0998 120.91 54.2298C120.61 54.3598 120.21 54.4298 119.69 54.4298C118.96 54.4298 118.45 54.3198 118.14 54.1098C117.83 53.8898 117.63 53.5898 117.55 53.1898V53.1698Z" fill="#1D1D1B"/>
<path d="M124.15 48.5996V50.1796H124.99V51.3396H124.15V52.8096C124.15 52.9896 124.17 53.0996 124.2 53.1596C124.25 53.2496 124.34 53.2896 124.46 53.2896C124.57 53.2896 124.73 53.2596 124.93 53.1896L125.04 54.2896C124.66 54.3796 124.31 54.4196 123.98 54.4196C123.6 54.4196 123.32 54.3696 123.14 54.2696C122.96 54.1696 122.83 54.0196 122.74 53.8096C122.65 53.5996 122.61 53.2696 122.61 52.8096V51.3496H122.05V50.1896H122.61V49.4296L124.14 48.6196L124.15 48.5996Z" fill="#1D1D1B"/>
<path d="M125.54 50.1801H126.97V50.8601C127.11 50.5701 127.25 50.3601 127.4 50.2501C127.55 50.1401 127.73 50.0801 127.94 50.0801C128.15 50.0801 128.41 50.1501 128.68 50.3001L128.21 51.4301C128.03 51.3501 127.89 51.3101 127.78 51.3101C127.58 51.3101 127.43 51.4001 127.32 51.5701C127.16 51.8101 127.08 52.2601 127.08 52.9301V54.3201H125.55V50.1801H125.54Z" fill="#1D1D1B"/>
<path d="M128.74 50.1799H130.35L131.17 52.9399L131.93 50.1799H133.43L131.85 54.5999C131.67 55.0999 131.49 55.4499 131.3 55.6199C131.04 55.8699 130.63 55.9899 130.09 55.9899C129.87 55.9899 129.53 55.9599 129.07 55.8999L128.95 54.7899C129.17 54.8599 129.41 54.8999 129.68 54.8999C129.86 54.8999 130 54.8599 130.12 54.7699C130.23 54.6799 130.33 54.5299 130.4 54.3099L128.73 50.1699L128.74 50.1799Z" fill="#1D1D1B"/>
<path d="M136.05 55.8901V50.1701H137.48V50.7801C137.68 50.5201 137.86 50.3501 138.02 50.2601C138.24 50.1401 138.49 50.0801 138.76 50.0801C139.29 50.0801 139.7 50.2901 139.99 50.7201C140.28 51.1401 140.43 51.6701 140.43 52.2901C140.43 52.9801 140.27 53.5001 139.95 53.8701C139.63 54.2301 139.23 54.4101 138.75 54.4101C138.52 54.4101 138.3 54.3701 138.11 54.2901C137.92 54.2101 137.74 54.0801 137.59 53.9201V55.9001H136.05V55.8901ZM137.58 52.2601C137.58 52.5901 137.65 52.8301 137.78 52.9901C137.91 53.1501 138.08 53.2301 138.28 53.2301C138.46 53.2301 138.61 53.1501 138.73 53.0001C138.85 52.8501 138.91 52.5901 138.91 52.2301C138.91 51.8901 138.85 51.6501 138.72 51.4901C138.6 51.3301 138.44 51.2501 138.26 51.2501C138.07 51.2501 137.9 51.3301 137.77 51.4901C137.64 51.6501 137.58 51.9101 137.58 52.2601Z" fill="#1D1D1B"/>
<path d="M140.98 50.1801H142.41V50.8601C142.55 50.5701 142.69 50.3601 142.84 50.2501C142.99 50.1401 143.17 50.0801 143.38 50.0801C143.59 50.0801 143.85 50.1501 144.12 50.3001L143.65 51.4301C143.47 51.3501 143.33 51.3101 143.22 51.3101C143.02 51.3101 142.87 51.4001 142.76 51.5701C142.6 51.8101 142.52 52.2601 142.52 52.9301V54.3201H140.99V50.1801H140.98Z" fill="#1D1D1B"/>
<path d="M144.11 52.2598C144.11 51.6298 144.31 51.1098 144.72 50.6998C145.13 50.2898 145.68 50.0898 146.38 50.0898C147.18 50.0898 147.78 50.3298 148.19 50.8098C148.52 51.1998 148.68 51.6698 148.68 52.2398C148.68 52.8798 148.48 53.3998 148.07 53.8098C147.66 54.2198 147.1 54.4198 146.39 54.4198C145.75 54.4198 145.23 54.2498 144.84 53.9098C144.36 53.4898 144.11 52.9398 144.11 52.2598ZM145.64 52.2598C145.64 52.6298 145.71 52.8998 145.86 53.0798C146 53.2598 146.18 53.3498 146.4 53.3498C146.62 53.3498 146.8 53.2598 146.94 53.0898C147.08 52.9198 147.15 52.6398 147.15 52.2498C147.15 51.8898 147.08 51.6198 146.94 51.4498C146.8 51.2698 146.62 51.1898 146.41 51.1898C146.19 51.1898 146 51.2798 145.86 51.4598C145.72 51.6398 145.64 51.9098 145.64 52.2698V52.2598Z" fill="#1D1D1B"/>
<path d="M149.24 50.1801H150.66V50.7801C150.86 50.5301 151.07 50.3501 151.28 50.2401C151.49 50.1301 151.74 50.0801 152.04 50.0801C152.36 50.0801 152.61 50.1401 152.79 50.2601C152.98 50.3801 153.13 50.5501 153.24 50.7801C153.48 50.5101 153.7 50.3301 153.89 50.2301C154.09 50.1301 154.33 50.0801 154.62 50.0801C155.05 50.0801 155.38 50.2101 155.62 50.4801C155.86 50.7401 155.98 51.1601 155.98 51.7201V54.3201H154.45V51.9601C154.45 51.7701 154.41 51.6301 154.35 51.5401C154.25 51.4001 154.12 51.3301 153.97 51.3301C153.79 51.3301 153.65 51.4001 153.54 51.5301C153.43 51.6601 153.38 51.8801 153.38 52.1801V54.3201H151.85V52.0401C151.85 51.8601 151.84 51.7301 151.82 51.6701C151.79 51.5701 151.73 51.4801 151.65 51.4201C151.57 51.3601 151.48 51.3201 151.37 51.3201C151.19 51.3201 151.05 51.3901 150.94 51.5301C150.83 51.6701 150.77 51.8901 150.77 52.2101V54.3201H149.24V50.1801Z" fill="#1D1D1B"/>
<path d="M156.51 52.2598C156.51 51.6298 156.71 51.1098 157.12 50.6998C157.53 50.2898 158.08 50.0898 158.78 50.0898C159.58 50.0898 160.18 50.3298 160.59 50.8098C160.92 51.1998 161.08 51.6698 161.08 52.2398C161.08 52.8798 160.88 53.3998 160.47 53.8098C160.06 54.2198 159.5 54.4198 158.79 54.4198C158.15 54.4198 157.63 54.2498 157.24 53.9098C156.76 53.4898 156.51 52.9398 156.51 52.2598ZM158.04 52.2598C158.04 52.6298 158.11 52.8998 158.26 53.0798C158.4 53.2598 158.58 53.3498 158.8 53.3498C159.02 53.3498 159.2 53.2598 159.34 53.0898C159.48 52.9198 159.55 52.6398 159.55 52.2498C159.55 51.8898 159.48 51.6198 159.34 51.4498C159.2 51.2698 159.02 51.1898 158.81 51.1898C158.59 51.1898 158.4 51.2798 158.26 51.4598C158.12 51.6398 158.04 51.9098 158.04 52.2698V52.2598Z" fill="#1D1D1B"/>
<path d="M163.46 48.5996V50.1796H164.3V51.3396H163.46V52.8096C163.46 52.9896 163.48 53.0996 163.51 53.1596C163.56 53.2496 163.65 53.2896 163.77 53.2896C163.88 53.2896 164.04 53.2596 164.24 53.1896L164.35 54.2896C163.97 54.3796 163.62 54.4196 163.29 54.4196C162.91 54.4196 162.63 54.3696 162.45 54.2696C162.27 54.1696 162.14 54.0196 162.05 53.8096C161.96 53.5996 161.92 53.2696 161.92 52.8096V51.3496H161.36V50.1896H161.92V49.4296L163.45 48.6196L163.46 48.5996Z" fill="#1D1D1B"/>
<path d="M164.89 48.5996H166.41V49.6796H164.89V48.5996ZM164.89 50.1796H166.41V54.3196H164.89V50.1796Z" fill="#1D1D1B"/>
<path d="M167.01 52.2598C167.01 51.6298 167.21 51.1098 167.62 50.6998C168.03 50.2898 168.58 50.0898 169.28 50.0898C170.08 50.0898 170.68 50.3298 171.09 50.8098C171.42 51.1998 171.58 51.6698 171.58 52.2398C171.58 52.8798 171.38 53.3998 170.97 53.8098C170.56 54.2198 170 54.4198 169.29 54.4198C168.65 54.4198 168.13 54.2498 167.74 53.9098C167.26 53.4898 167.01 52.9398 167.01 52.2598ZM168.54 52.2598C168.54 52.6298 168.61 52.8998 168.76 53.0798C168.9 53.2598 169.08 53.3498 169.3 53.3498C169.52 53.3498 169.7 53.2598 169.84 53.0898C169.98 52.9198 170.05 52.6398 170.05 52.2498C170.05 51.8898 169.98 51.6198 169.84 51.4498C169.7 51.2698 169.52 51.1898 169.31 51.1898C169.09 51.1898 168.9 51.2798 168.76 51.4598C168.62 51.6398 168.54 51.9098 168.54 52.2698V52.2598Z" fill="#1D1D1B"/>
<path d="M172.12 50.1801H173.54V50.8501C173.75 50.5701 173.97 50.3801 174.18 50.2601C174.4 50.1401 174.66 50.0801 174.97 50.0801C175.39 50.0801 175.72 50.2101 175.96 50.4701C176.2 50.7301 176.32 51.1301 176.32 51.6801V54.3101H174.79V52.0301C174.79 51.7701 174.74 51.5901 174.65 51.4801C174.56 51.3701 174.43 51.3201 174.26 51.3201C174.08 51.3201 173.93 51.3901 173.81 51.5401C173.7 51.6901 173.64 51.9501 173.64 52.3201V54.3101H172.12V50.1701V50.1801Z" fill="#1D1D1B"/>
<path d="M182.89 53.3796H180.96L180.69 54.3196H178.96L181.02 48.5996H182.87L184.93 54.3196H183.15L182.88 53.3796H182.89ZM182.54 52.1396L181.93 50.0896L181.33 52.1396H182.54Z" fill="#1D1D1B"/>
<path d="M187.95 50.1796H189.38V54.2696C189.38 54.5296 189.33 54.7796 189.22 55.0096C189.11 55.2496 188.97 55.4396 188.8 55.5796C188.62 55.7296 188.4 55.8296 188.13 55.8996C187.86 55.9596 187.55 55.9996 187.2 55.9996C186.4 55.9996 185.85 55.8796 185.55 55.6296C185.25 55.3796 185.1 55.0496 185.1 54.6296C185.1 54.5796 185.1 54.5096 185.1 54.4196L186.58 54.5996C186.62 54.7396 186.67 54.8396 186.75 54.8996C186.86 54.9796 187 55.0196 187.17 55.0196C187.39 55.0196 187.55 54.9596 187.66 54.8396C187.77 54.7196 187.82 54.4996 187.82 54.1996V53.5696C187.67 53.7496 187.52 53.8896 187.37 53.9696C187.14 54.0996 186.88 54.1696 186.61 54.1696C186.08 54.1696 185.65 53.9296 185.32 53.4396C185.09 53.0996 184.97 52.6396 184.97 52.0796C184.97 51.4396 185.12 50.9396 185.42 50.6096C185.72 50.2696 186.11 50.0996 186.6 50.0996C186.91 50.0996 187.16 50.1496 187.37 50.2596C187.57 50.3696 187.76 50.5496 187.93 50.7996V50.1896L187.95 50.1796ZM186.52 52.1896C186.52 52.4896 186.58 52.7096 186.7 52.8496C186.82 52.9896 186.98 53.0696 187.18 53.0696C187.37 53.0696 187.53 52.9996 187.66 52.8496C187.79 52.6996 187.85 52.4796 187.85 52.1696C187.85 51.8596 187.78 51.6396 187.65 51.4796C187.52 51.3196 187.35 51.2396 187.16 51.2396C186.97 51.2396 186.81 51.3096 186.69 51.4596C186.57 51.6096 186.52 51.8496 186.52 52.1896Z" fill="#1D1D1B"/>
<path d="M194.52 52.6403H191.46C191.49 52.8903 191.55 53.0803 191.66 53.2103C191.81 53.3903 192 53.4803 192.24 53.4803C192.39 53.4803 192.53 53.4403 192.67 53.3603C192.75 53.3103 192.84 53.2203 192.94 53.1003L194.44 53.2403C194.21 53.6603 193.93 53.9503 193.61 54.1303C193.29 54.3103 192.82 54.4003 192.21 54.4003C191.68 54.4003 191.27 54.3203 190.97 54.1703C190.67 54.0203 190.42 53.7703 190.22 53.4303C190.02 53.0903 189.92 52.7003 189.92 52.2403C189.92 51.5903 190.12 51.0703 190.52 50.6703C190.92 50.2703 191.47 50.0703 192.17 50.0703C192.74 50.0703 193.19 50.1603 193.52 50.3403C193.85 50.5203 194.1 50.7803 194.27 51.1203C194.44 51.4603 194.53 51.9003 194.53 52.4503V52.6303L194.52 52.6403ZM192.97 51.8803C192.94 51.5703 192.86 51.3503 192.73 51.2203C192.6 51.0903 192.43 51.0203 192.22 51.0203C191.98 51.0203 191.78 51.1203 191.64 51.3203C191.55 51.4403 191.49 51.6303 191.46 51.8803H192.96H192.97Z" fill="#1D1D1B"/>
<path d="M195.03 50.1801H196.45V50.8501C196.66 50.5701 196.88 50.3801 197.09 50.2601C197.31 50.1401 197.57 50.0801 197.88 50.0801C198.3 50.0801 198.63 50.2101 198.87 50.4701C199.11 50.7301 199.23 51.1301 199.23 51.6801V54.3101H197.7V52.0301C197.7 51.7701 197.65 51.5901 197.56 51.4801C197.47 51.3701 197.34 51.3201 197.17 51.3201C196.99 51.3201 196.84 51.3901 196.72 51.5401C196.61 51.6901 196.55 51.9501 196.55 52.3201V54.3101H195.03V50.1701V50.1801Z" fill="#1D1D1B"/>
<path d="M202.92 52.6996L204.37 52.8696C204.29 53.1796 204.16 53.4596 203.98 53.6896C203.8 53.9196 203.56 54.0996 203.28 54.2296C203 54.3596 202.64 54.4196 202.2 54.4196C201.76 54.4196 201.43 54.3796 201.15 54.2996C200.87 54.2196 200.63 54.0896 200.43 53.8996C200.23 53.7196 200.07 53.4996 199.95 53.2596C199.84 53.0096 199.78 52.6896 199.78 52.2796C199.78 51.8696 199.85 51.4996 199.99 51.2196C200.09 51.0096 200.23 50.8296 200.41 50.6596C200.59 50.4996 200.77 50.3696 200.96 50.2896C201.26 50.1596 201.64 50.0996 202.1 50.0996C202.75 50.0996 203.24 50.2196 203.58 50.4596C203.92 50.6996 204.16 51.0596 204.3 51.5196L202.87 51.7196C202.83 51.5396 202.74 51.4096 202.62 51.3196C202.5 51.2296 202.34 51.1896 202.14 51.1896C201.89 51.1896 201.68 51.2796 201.53 51.4696C201.37 51.6596 201.3 51.9396 201.3 52.3196C201.3 52.6596 201.38 52.9196 201.53 53.0896C201.68 53.2696 201.88 53.3496 202.12 53.3496C202.32 53.3496 202.49 53.2996 202.62 53.1896C202.76 53.0796 202.86 52.9196 202.93 52.6996H202.92Z" fill="#1D1D1B"/>
<path d="M204.31 50.1799H205.92L206.74 52.9399L207.5 50.1799H209L207.42 54.5999C207.24 55.0999 207.06 55.4499 206.87 55.6199C206.61 55.8699 206.2 55.9899 205.66 55.9899C205.44 55.9899 205.1 55.9599 204.64 55.8999L204.52 54.7899C204.74 54.8599 204.98 54.8999 205.25 54.8999C205.43 54.8999 205.57 54.8599 205.69 54.7699C205.8 54.6799 205.9 54.5299 205.97 54.3099L204.3 50.1699L204.31 50.1799Z" fill="#1D1D1B"/>
<path d="M29.8699 27.2305V28.5705C29.8699 34.3405 23.3799 34.8705 20.6899 34.9705V32.6105C24.1599 32.5305 27.0899 31.4805 27.0899 29.4505H20.9399V27.2305H29.8699ZM21.5799 36.0805H35.5299V41.3505C35.5299 42.8605 35.2199 43.1305 33.5799 43.1305H22.8899C22.0899 43.1305 21.5899 42.8205 21.5899 41.7305V36.0805H21.5799ZM32.8999 38.3605H24.1799V40.8305H32.8999V38.3605ZM32.8799 27.2305H35.5199V35.1405H32.8799V27.2305Z" fill="#1D1D1B"/>
<path d="M46.5597 30.1004C47.1497 31.0404 47.4597 32.2304 47.4597 33.4104C47.4597 36.1704 46.1597 38.9504 43.3197 38.9504C40.4797 38.9504 39.1397 36.1704 39.1397 33.4104C39.1397 32.2404 39.4297 31.0504 39.9597 30.1004H38.9497V27.8404H41.8397V26.3604H44.6397V27.8404H47.6297V30.1004H46.5597ZM41.5397 33.4104C41.5397 34.9604 42.1097 36.4704 43.2797 36.4704C44.4497 36.4704 45.0797 34.9604 45.0797 33.4104C45.0797 31.8604 44.4697 30.3404 43.2797 30.3404C42.0897 30.3404 41.5397 31.8904 41.5397 33.4104ZM52.1497 34.5404H51.0597V43.2004H48.5897V27.2204H51.0597V32.1404H52.1497V27.2204H54.6797V43.2004H52.1497V34.5404Z" fill="#1D1D1B"/>
<path d="M71.2 27.2301H73.84V43.2101H71.2V41.0301H58.48V38.6701H71.2V27.2301ZM68.94 31.3301C68.94 34.1801 66.39 36.0401 63.83 36.0401C61.27 36.0401 58.73 34.1801 58.73 31.3301C58.73 28.4801 61.26 26.6201 63.83 26.6201C66.4 26.6201 68.94 28.4801 68.94 31.3301ZM61.37 31.3301C61.37 32.6701 62.56 33.6501 63.82 33.6501C65.08 33.6501 66.27 32.6701 66.27 31.3301C66.27 29.9901 65.08 29.0301 63.82 29.0301C62.56 29.0301 61.37 29.9901 61.37 31.3301Z" fill="#1D1D1B"/>
<path d="M90.4701 32.1897H89.3801V34.5797C91.0501 35.3997 92.3301 36.9897 92.3301 39.0597C92.3301 42.1097 89.6301 44.0597 86.9501 44.0597C84.2701 44.0597 81.6101 42.1097 81.6101 39.0597C81.6101 36.9297 82.9501 35.3097 84.6701 34.5197C83.5201 34.0797 82.4701 33.2197 81.8501 32.0297C80.9501 33.7297 79.0901 34.7697 77.5801 34.8497V32.2597C79.3601 31.9497 80.5501 30.6097 80.5501 27.2197H83.1701C83.1701 30.5897 84.3401 31.9497 86.1601 32.2597V34.0797C86.4101 34.0797 86.6601 34.0597 86.9101 34.0597V27.2197H89.3801V29.8997H90.4701V27.2197H93.0001V34.8297H90.4701V32.1897ZM84.3001 39.0697C84.3001 40.5797 85.6201 41.6397 86.9601 41.6397C88.3801 41.6397 89.6401 40.5897 89.6401 39.0697C89.6401 37.5497 88.3801 36.5397 86.9601 36.5397C85.6201 36.5397 84.3001 37.5897 84.3001 39.0697Z" fill="#1D1D1B"/>
<path d="M97.3398 27.2297H106.59V28.4397H109.52V27.2297H112.16V34.8397H109.52V33.4197H106.59V33.4997C106.59 33.7297 106.57 33.9197 106.51 34.0697C109.04 34.2597 111.49 36.1997 111.49 39.0697C111.49 42.1197 108.79 44.0697 106.11 44.0697C103.43 44.0697 100.77 42.1197 100.77 39.0697C100.77 37.2497 101.75 35.7897 103.09 34.8897H98.6098C97.8198 34.8897 97.3498 34.5997 97.3498 33.4697V27.2197L97.3398 27.2297ZM103.99 29.4897H99.9698V32.5897H103.99V29.4897ZM103.47 39.0697C103.47 40.5797 104.79 41.6397 106.13 41.6397C107.55 41.6397 108.81 40.5897 108.81 39.0697C108.81 37.5497 107.55 36.5397 106.13 36.5397C104.79 36.5397 103.47 37.5897 103.47 39.0697ZM109.52 31.3697V30.4697H106.59V31.3697H109.52Z" fill="#1D1D1B"/>
<path d="M122.57 27.2305C122.57 30.7205 123.36 32.9005 126.44 33.3005V35.7905C124.24 35.6905 122.15 34.5605 121.23 32.8405C120.25 34.6005 117.93 35.7105 116 35.7905V33.3005C119.12 32.9005 119.79 30.6905 119.79 27.2305H122.57ZM117.38 37.3305H120.02V40.7805H131.44V43.1405H118.68C117.88 43.1405 117.38 42.8505 117.38 41.7405V37.3305ZM131.33 32.8905V38.1805H128.69V27.2405H131.33V30.5405H133.46V32.9005H131.33V32.8905Z" fill="#1D1D1B"/>
<path d="M139.64 35.2C137.3 35.2 134.91 33.5 134.91 30.87C134.91 28.24 137.3 26.54 139.64 26.54C141.63 26.54 143.66 27.75 144.2 29.78H147.84V27.23H150.48V34.97H147.84V32.08H144.18C143.59 34.01 141.59 35.2 139.64 35.2ZM136.54 36.06H139.15V37.36H147.87V36.06H150.49V41.71C150.49 42.84 150.01 43.13 149.19 43.13H137.85C137.05 43.13 136.55 42.84 136.55 41.73V36.06H136.54ZM137.55 30.87C137.55 32.04 138.6 32.8 139.64 32.8C140.68 32.8 141.73 32.03 141.73 30.87C141.73 29.71 140.7 28.95 139.64 28.95C138.58 28.95 137.55 29.72 137.55 30.87ZM147.86 39.57H139.14V40.82H147.86V39.57Z" fill="#1D1D1B"/>
<path d="M164.3 27.2305V29.5905H160.95C161.2 31.3905 162 32.9205 164.38 33.2705V35.7805C162.43 35.6505 160.51 34.5705 159.59 32.8505C158.61 34.6305 156.45 35.6705 154.74 35.7605V33.2705C157.15 32.9305 157.9 31.3905 158.11 29.5905H154.82V27.2305H164.3ZM155.7 37.3305H158.34V40.7805H169.76V43.1405H157C156.2 43.1405 155.7 42.8505 155.7 41.7405V37.3305ZM167 27.2305H169.64V38.1705H167V27.2305Z" fill="#1D1D1B"/>
<path d="M173.44 35.7396V33.4996H177.29C176.89 32.9296 176.64 32.2696 176.64 31.5496C176.64 30.8596 176.87 30.2496 177.21 29.6896H173.97V27.5596H179.95V26.0996H182.77V27.5596H188.8V29.6896H185.37C185.79 30.2296 186.02 30.8396 186.02 31.5496C186.02 32.2996 185.75 32.9496 185.31 33.4996H189.33V35.7396H185.57C186.45 36.5596 187.05 37.6596 187.05 38.9596C187.05 42.1196 184.18 44.1496 181.38 44.1496C178.58 44.1496 175.59 42.1196 175.59 38.9596C175.59 37.6796 176.18 36.5996 177.01 35.7396H173.43H173.44ZM178.31 38.8796C178.31 40.5496 179.77 41.7496 181.36 41.7496C182.95 41.7496 184.37 40.5396 184.37 38.8796C184.37 37.2196 182.93 36.0096 181.36 36.0096C179.79 36.0096 178.31 37.2396 178.31 38.8796ZM179.32 31.5796C179.32 32.6296 180.18 33.4196 181.37 33.4196C182.56 33.4196 183.38 32.6296 183.38 31.5796C183.38 30.5296 182.56 29.7596 181.37 29.7596C180.18 29.7596 179.32 30.5096 179.32 31.5796Z" fill="#1D1D1B"/>
<path d="M197.88 35.24H192.59V32.98H194.33C193.77 32.35 193.41 31.58 193.41 30.64C193.41 28.11 195.79 26.5 198.12 26.5C200.45 26.5 202.72 28.11 202.72 30.64C202.72 31.58 202.36 32.38 201.74 32.98H203.89V35.24H200.5V38.76H197.88V35.24ZM194.01 36.77H196.62V40.77H208.08V43.13H195.32C194.52 43.13 194.02 42.84 194.02 41.73V36.77H194.01ZM195.96 30.64C195.96 31.71 196.86 32.63 198.03 32.63C199.2 32.63 200.1 31.71 200.1 30.64C200.1 29.57 199.18 28.65 198.03 28.65C196.88 28.65 195.96 29.57 195.96 30.64ZM205.31 36.23V27.23H207.95V39.57H205.29V38.33H202.22V36.24H205.3L205.31 36.23Z" fill="#1D1D1B"/>
<defs>
<linearGradient id="paint0_linear_924_52278" x1="11.6755" y1="10.0955" x2="31.7395" y2="10.0955" gradientUnits="userSpaceOnUse">
<stop stop-color="#76B72A"/>
<stop offset="1" stop-color="#007839"/>
</linearGradient>
<linearGradient id="paint1_linear_924_52278" x1="13.7597" y1="13.6797" x2="31.3897" y2="13.6797" gradientUnits="userSpaceOnUse">
<stop stop-color="#76B72A"/>
<stop offset="1" stop-color="#007839"/>
</linearGradient>
<linearGradient id="paint2_linear_924_52278" x1="13.7601" y1="15.0099" x2="31.3901" y2="15.0099" gradientUnits="userSpaceOnUse">
<stop stop-color="#76B72A"/>
<stop offset="1" stop-color="#007839"/>
</linearGradient>
<linearGradient id="paint3_linear_924_52278" x1="17.9998" y1="7.2904" x2="0.689767" y2="7.5004" gradientUnits="userSpaceOnUse">
<stop stop-color="#F39600"/>
<stop offset="1" stop-color="#E20613"/>
</linearGradient>
<linearGradient id="paint4_linear_924_52278" x1="18.0197" y1="9.20047" x2="0.709688" y2="9.41047" gradientUnits="userSpaceOnUse">
<stop stop-color="#F39600"/>
<stop offset="1" stop-color="#E20613"/>
</linearGradient>
<linearGradient id="paint5_linear_924_52278" x1="17.9698" y1="5.24" x2="0.659843" y2="5.44" gradientUnits="userSpaceOnUse">
<stop stop-color="#F39600"/>
<stop offset="1" stop-color="#E20613"/>
</linearGradient>
<linearGradient id="paint6_linear_924_52278" x1="18.0701" y1="12.72" x2="0.750078" y2="12.93" gradientUnits="userSpaceOnUse">
<stop stop-color="#F39600"/>
<stop offset="1" stop-color="#E20613"/>
</linearGradient>
<linearGradient id="paint7_linear_924_52278" x1="17.9299" y1="1.85" x2="0.61987" y2="2.06" gradientUnits="userSpaceOnUse">
<stop stop-color="#F39600"/>
<stop offset="1" stop-color="#E20613"/>
</linearGradient>
<linearGradient id="paint8_linear_924_52278" x1="2.44984" y1="18.6795" x2="15.9398" y2="26.3995" gradientUnits="userSpaceOnUse">
<stop offset="0.12" stop-color="#0094D3"/>
<stop offset="0.24" stop-color="#0185C7"/>
<stop offset="0.65" stop-color="#0458A4"/>
<stop offset="0.86" stop-color="#064797"/>
</linearGradient>
</defs>
</svg>
