<svg width="24" height="24" viewBox="0 0 24 24" fill="none" xmlns="http://www.w3.org/2000/svg">
<path d="M20.9936 17.6565C20.9598 17.9401 20.8248 18.2236 20.6492 18.3991L19.3391 19.7088C14.8753 23.4489 9.20278 17.8793 9.14875 17.8253L6.18417 14.8616C6.13014 14.8076 0.55888 9.1367 4.27981 4.68776L5.61016 3.35781C5.78574 3.18228 6.06936 3.04726 6.34624 3.0135C6.40026 3.00675 6.45429 3 6.50831 3C6.7109 3 6.88648 3.05401 6.98103 3.15527L9.74977 6.34852C10.0807 6.67932 10.0807 7.2194 9.74977 7.55021L8.73682 8.56286C8.48695 8.83291 8.31138 9.08269 8.20333 9.33923C7.98048 9.94683 7.62932 11.5266 9.14875 13.1671L10.8505 14.8683C12.478 16.3806 14.0582 16.0295 14.6863 15.8C14.9226 15.6987 15.1725 15.5164 15.4493 15.2599L16.4488 14.2607C16.7729 13.9367 17.3132 13.9232 17.6711 14.281L20.8383 17.0287C20.9733 17.1705 21.0274 17.4 20.9868 17.67L20.9936 17.6565Z" stroke="black" stroke-width="2" stroke-linejoin="round"/>
</svg>
