<svg xmlns="http://www.w3.org/2000/svg" width="60" height="60" viewBox="0 0 60 60">
    <path data-name="패스 7048" d="m355.938 673.556 4.176-2.4 5.668 3.259zm-1.744-.152 5.919-3.4 8.034 4.62 9.239.806 2.888 6.17 5.919 3.4v9.24l3.92 8.375-3.92 5.577V715l-8.033 4.62-5.32 7.569-6.809-.593-5.918 3.4-8.033-4.62-9.24-.8-2.889-6.171-5.918-3.4v-9.24l-3.92-8.375 3.92-5.577V685l8.034-4.62 5.319-7.569zm-10.07 5.792 3.752-5.339 4.8.419zm-1.362 1.939 11.66-6.707 13.416 1.169L379.5 682.3l5.692 12.158v13.414l-7.723 10.989-11.669 6.711-13.409-1.172-11.663-6.7-5.691-12.158v-13.418zm-2.057 1.183-5.668 3.259v4.8zm-6.671 11.234-2.766 3.934 2.766 5.908zm1 14.352v6.518l4.175 2.4zm6.43 11.372 2.038 4.353 6.519.568zm12.979 6.31 5.667 3.259 4.175-2.4zm13.1.138 4.8.419 3.753-5.34zm11.975-8.043 5.667-3.259v-4.8zm6.67-11.233 2.766-3.934-2.766-5.908zm-1-14.352v-6.519l-4.176-2.4zm-6.43-11.372-2.038-4.353-6.52-.571z" style="fill:#fff;fill-rule:evenodd;opacity:.2" transform="translate(-330.114 -670)"/>
    <path data-name="패스 7049" d="M357.333 693.333 350 700m0 0 7.333 6.667M350 700h20" style="fill:none;stroke:#fff;stroke-linecap:round;stroke-linejoin:round;stroke-width:1.5px" transform="translate(-330.114 -670)"/>
</svg>
