<svg xmlns="http://www.w3.org/2000/svg" width="60" height="60" viewBox="0 0 60 60">
    <g transform="translate(-1530 -810)">
        <circle data-name="타원 95" cx="30" cy="30" r="30" transform="translate(1530 810)" style="fill:#1a95ce"/>
        <path data-name="패스 7053" d="m1555.84 813.556 4.16-2.4 5.65 3.259zm-1.74-.152 5.9-3.4 8 4.62 9.21.806 2.87 6.17 5.9 3.4v9.24l3.91 8.375-3.91 5.577V855l-8 4.62-5.3 7.569-6.78-.593L1560 870l-8-4.62-9.21-.8-2.87-6.171-5.9-3.4v-9.24l-3.91-8.375 3.91-5.577V825l8-4.62 5.3-7.569zm-10.03 5.792 3.74-5.339 4.78.419zm-1.36 1.939 11.62-6.707 13.36 1.169 11.62 6.707 5.67 12.158v13.414l-7.69 10.989-11.62 6.707-13.36-1.169-11.62-6.707-5.67-12.158v-13.414zm-2.05 1.183-5.64 3.259v4.8zm-6.64 11.234-2.76 3.934 2.76 5.908zm1 14.352v6.518l4.16 2.4zm6.41 11.372 2.02 4.353 6.5.568zm12.93 6.31 5.64 3.259 4.16-2.4zm13.05.138 4.78.419 3.74-5.34zm11.93-8.043 5.64-3.259v-4.8zm6.64-11.233 2.76-3.934-2.76-5.908zm-1-14.352v-6.519l-4.16-2.4zm-6.41-11.372-2.03-4.353-6.49-.568z" style="fill-rule:evenodd;opacity:.4;fill:#fff"/>
        <g transform="translate(1536 816)">
            <rect width="48" height="48" rx="4" style="fill:none"/>
            <path data-name="사각형 70" transform="translate(12 12)" style="fill:none" d="M0 0h24v24H0z"/>
            <path data-name="패스 18" d="M9.816 19.632a9.816 9.816 0 1 1 9.816-9.816 9.827 9.827 0 0 1-9.816 9.816m0-16.759a6.943 6.943 0 1 0 6.943 6.943 6.95 6.95 0 0 0-6.943-6.943" transform="translate(12 12)" style="fill:#fff"/>
            <path data-name="사각형 69" transform="rotate(-45 48.996 -18.264)" style="fill:#fff" d="M0 0h2.873v9.481H0z"/>
        </g>
    </g>
</svg>
