<svg width="49" height="52" viewBox="0 0 49 52" fill="none" xmlns="http://www.w3.org/2000/svg">
<g id="Layer_1" clip-path="url(#clip0_1172_18236)">
<path id="Vector" d="M48.5 0H0V40.11H11.48V52L28.14 40.11H48.5V0Z" fill="#1CB0D4"/>
<path id="Vector_2" d="M10.4302 24.1002H13.0702V20.1902H17.6302V18.1802H13.0702V16.2502H18.1002V14.2402H10.4302V24.1002Z" fill="white"/>
<path id="Vector_3" d="M24.0602 14.2402H21.0502L17.4502 24.1002H20.0902L20.9102 21.6002H24.0402L24.8802 24.1002H27.5802L24.1102 14.3702L24.0602 14.2402ZM23.4202 19.6902H21.5402L22.4802 16.8602L23.4202 19.6902Z" fill="white"/>
<path id="Vector_4" d="M36.5299 22.0697C36.9799 21.6197 37.2099 20.8397 37.2099 19.7397V17.1597C37.2099 16.6197 37.0899 16.1497 36.8699 15.7597C36.6499 15.3897 36.3799 15.0897 36.0599 14.8797C35.7499 14.6797 35.3599 14.5097 34.8599 14.3597C34.4399 14.2497 34.0599 14.1797 33.7299 14.1397C33.1199 14.0797 32.2399 14.0597 31.4799 14.1397C31.0999 14.1697 30.6999 14.2497 30.2599 14.3797C29.8299 14.5097 29.4499 14.6697 29.1399 14.8697C28.7899 15.0997 28.4999 15.4197 28.2799 15.8097C28.0599 16.2097 27.9399 16.6597 27.9399 17.1597V21.2997C27.9399 21.8997 28.0999 22.4297 28.4099 22.8597C28.7199 23.2797 29.1499 23.5897 29.6999 23.7797C30.1799 23.9497 30.6499 24.0697 31.0999 24.1397C31.5499 24.2097 32.0399 24.2397 32.5599 24.2397C32.8599 24.2397 33.2799 24.2197 33.8499 24.1697C34.5499 24.1097 34.7499 24.0997 34.8099 24.0997H38.0799V22.0697H36.5399H36.5299ZM33.3599 22.1897C33.1499 22.2197 32.8999 22.2297 32.5799 22.2297C32.2599 22.2297 32.0099 22.2197 31.7999 22.1897C31.5999 22.1697 31.3899 22.1197 31.1599 22.0597C30.9599 22.0097 30.8099 21.9097 30.7099 21.7897C30.6099 21.6597 30.5599 21.5097 30.5599 21.3097V17.1497C30.5599 16.7697 30.6999 16.5097 30.9899 16.3697C31.3199 16.1997 31.8399 16.1097 32.5599 16.1097C33.2799 16.1097 33.7999 16.1997 34.1299 16.3697C34.4199 16.5197 34.5599 16.7797 34.5599 17.1497V21.3097C34.5599 21.5097 34.5099 21.6697 34.4199 21.7997C34.3199 21.9297 34.1799 22.0197 33.9999 22.0697C33.7799 22.1297 33.5599 22.1797 33.3599 22.1997V22.1897Z" fill="white"/>
</g>
<defs>
<clipPath id="clip0_1172_18236">
<rect width="48.5" height="52" fill="white"/>
</clipPath>
</defs>
</svg>
