<svg width="56" height="56" viewBox="0 0 56 56" fill="none" xmlns="http://www.w3.org/2000/svg">
<g id="Layer_1" clip-path="url(#clip0_1172_7197)">
<path id="Vector" d="M55.9998 17.9697H20.3198V47.2997H35.2998L47.5498 55.9997V47.2997H55.9998V17.9697Z" fill="#035C77"/>
<path id="Vector_2" d="M48.5 0H0V39.88H11.48V51.7L28.14 39.88H48.5V0Z" fill="#1CB0D4"/>
<path id="Vector_3" d="M14.8202 22.7102C16.5543 22.7102 17.9602 21.3088 17.9602 19.5802C17.9602 17.8515 16.5543 16.4502 14.8202 16.4502C13.086 16.4502 11.6802 17.8515 11.6802 19.5802C11.6802 21.3088 13.086 22.7102 14.8202 22.7102Z" fill="white"/>
<path id="Vector_4" d="M24.2499 22.7102C25.984 22.7102 27.3899 21.3088 27.3899 19.5802C27.3899 17.8515 25.984 16.4502 24.2499 16.4502C22.5157 16.4502 21.1099 17.8515 21.1099 19.5802C21.1099 21.3088 22.5157 22.7102 24.2499 22.7102Z" fill="white"/>
<path id="Vector_5" d="M33.68 22.7102C35.4142 22.7102 36.82 21.3088 36.82 19.5802C36.82 17.8515 35.4142 16.4502 33.68 16.4502C31.9459 16.4502 30.54 17.8515 30.54 19.5802C30.54 21.3088 31.9459 22.7102 33.68 22.7102Z" fill="white"/>
</g>
<defs>
<clipPath id="clip0_1172_7197">
<rect width="56" height="56" fill="white"/>
</clipPath>
</defs>
</svg>
