<svg xmlns="http://www.w3.org/2000/svg" width="360" height="360" viewBox="0 0 360 360">
    <path data-name="패스 7066" d="m1564.37 993.593-12.14 6.987 25.5 2.22 12.61-2.2zm-1.36-.368-12.52 7.205-22.81-1.992 11.61-11.61zm1.22-.7-25.24-6.808-12.61 12.613-16.74-1.459-14.27 20.3-25.56 4.46-11.53 31.83-28.76 16.539v25.18l-17.81 17.81 4.52 16.76-10.23 14.56 10.91 23.32-8.45 23.35 21.06 25.09V1250l22.66 13.03 6.54 24.25 16.25 4.38 7.39 15.79 25.78 2.24 16.5 19.66 32.87-5.73L1586 1340l21.77-12.52 25.24 6.81 12.61-12.61 16.74 1.46 14.27-20.31 25.56-4.46 11.53-31.83 28.76-16.54v-25.18l17.81-17.81-4.52-16.76 10.23-14.56-10.92-23.32 8.46-23.35-21.06-25.08V1070l-22.66-13.03-6.54-24.25-16.25-4.38-7.39-15.79-25.78-2.24-16.5-19.659-32.87 5.735L1586 980zm1.37.368 27.07 7.3 20.28-3.536-26.95-15.5zm48.71 4.546-19.35 3.376 19.14 5.16 17.73 1.55zm-5.89 8.046-15.79-4.26-11.02 1.92zm-30.64-1.67 36.14 3.15 31.91 8.6 40.89 23.52 32.16 38.3 12.76 27.27 9.84 36.47v45.86l-16.34 45.1-20.49 29.15-22.06 22.06-43.64 25.1-44.73 7.8-36.13-3.14-31.92-8.61-40.9-23.53-32.15-38.29-12.76-27.27-9.84-36.47v-45.87l16.34-45.08 20.5-29.17 22.05-22.05 43.63-25.1zm-3.89-.34-23.18-2.02-15.13 8.7zm-41.19 7.19 16.27-9.36-22.21-1.94-14.94 14.94zm-7.24-11.413-15.33-1.336-13.37 19.019 13.35-2.33zm-30.91 19.083-23.99 4.19-10.94 30.17 18.1-10.41zm-36.8 36.59-27.23 15.66v23.6l20.39-20.39zm-28.23 41.68-16.69 16.69 4.15 15.4 12.54-17.84zm-12.95 34.41-9.42 13.41 10.25 21.88 4.98-13.76zm.94 37.9-7.92 21.87 19.93 23.73v-19.95zm13.01 48.35v32.16l21.29 12.25-7.57-28.07zm22.89 46.48 6.13 22.72 14.88 4.02-9.39-20.06zm22.83 28.26 6.78 14.5 24.21 2.11-8.96-10.66zm33.3 17.82 15.49 18.45 31.13-5.43-18.35-10.56zm49.51 13.53 26.95 15.5 20.4-11.74-27.07-7.3zm49.94 3.42 23.72 6.4 11.61-11.61-22.81-1.98zm37.55-6.01 15.33 1.33 13.37-19.02-13.35 2.33zm30.91-19.09 23.99-4.18 10.93-30.17-18.09 10.4zm36.8-36.58 27.23-15.67v-23.6l-20.4 20.39zm28.23-41.69 16.69-16.69-4.15-15.4-12.54 17.84zm12.95-34.41 9.42-13.4-10.25-21.89-4.98 13.75zm-.94-37.9 7.92-21.87-19.93-23.73v19.95zm-13.01-48.34v-32.17l-21.29-12.25 7.57 28.07zm-22.89-46.49-6.13-22.72-14.88-4.02 9.39 20.05zM1695.76 1028l-6.78-14.5-24.21-2.11 8.95 10.66zm-33.3-17.82-15.5-18.444-31.12 5.429 18.36 10.555zm.9 1.09 8.68 10.33-25.83-6.97-9.96-5.73zm-13.76 5.31 35.25 20.27-11.69-13.91zm37.77 21.72-12.52-14.91 21.47 5.79 9.14 19.53zm1.87 2.23 28 33.35-11.04-23.6zm30.49 36.32-12.02-25.7 11.25 6.48 7.27 26.96zm1.65 3.51 8.76 18.73-3.29-12.21zm11.21 23.95-4.21-15.62 13.1 15.61v19.01zm1.5 5.56 7.39 27.41v-11.62zm8.39 31.12v-13.19l11.52 24.62-4.83 13.35zm0 3.84v39.39l6.09-16.81zm0 42.33 6.55-18.07 5.65 20.96-12.2 17.36zm-1 2.76-14.14 39.03 14.14-20.12zm-15.45 42.63 15.45-21.98v13.83l-19.59 19.59zm-2.19 3.12-15.07 21.44 11.45-11.45zm-18.42 26.2 14-13.99-6.52 17.98-17.25 9.92zm-4.12 4.12-15.38 15.39 7.67-4.42zm-18.1 18.1 9.03-5.19-16.18 23.02-12.93 2.25zm-3.33 1.92-38.04 21.88 19.58-3.42zm-40.57 23.34 20.88-3.65-14.94 14.94-22.22-1.93zm-2.88.5-38.32 6.68 23.18 2.02zm-42.15 7.35 25.5 2.22-12.14 6.99-25.97-7.01zm-3.88-.34-26.8-2.33 15.78 4.26zm-32.48-2.83 19.13 5.16-19.34 3.38-17.53-10.08zm-5.49-1.48-22.86-6.16 8.55 4.92zm-26.63-7.18 9.96 5.73-27.11-2.36-8.68-10.34zm-3.39-1.95-35.25-20.28 11.68 13.92zm-37.77-21.73 12.52 14.92-21.47-5.79-9.14-19.53zm-1.88-2.23-27.99-33.33 11.04 23.58zm-30.48-36.3 12.02 25.69-11.25-6.48-7.27-26.95zm-1.64-3.51-8.77-18.73 3.29 12.21zm-11.22-23.95 4.22 15.61-13.11-15.61v-19zm-1.5-5.57-7.39-27.41v11.62zm-8.39-31.12v13.19l-11.52-24.62 4.83-13.35zm0-3.84v-39.4l-6.09 16.82zm0-42.33-6.55 18.07-5.65-20.96 12.2-17.36zm1-2.76 14.14-39.03-14.14 20.12zm15.44-42.62-15.44 21.97v-13.83l19.59-19.59zm2.2-3.12 15.08-21.46-11.46 11.46zm18.42-26.22-14 14 6.52-17.98 17.26-9.92zm4.12-4.12 15.38-15.38-7.67 4.41zm18.1-18.09-9.03 5.19 16.18-23.02 12.92-2.25zm3.33-1.92 38.03-21.87-19.57 3.41zm150.31-20.38-8.55-4.91-14.3-1.25z" style="fill:#dfdfdf;fill-rule:evenodd;opacity:.8" transform="translate(-1406 -980)"/>
    <path data-name="패스 7067" d="m1470.18 1022.07 176.98-30.877 115.82 137.927-61.17 168.81-176.97 30.88-115.82-137.93z" style="stroke:#1a95ce;fill:none;opacity:.2" transform="translate(-1406 -980)"/>
    <path data-name="패스 7068" d="m1539.14 986.27 173.73 46.86 46.86 173.73-126.87 126.87-173.73-46.86-46.86-173.73z" style="stroke:#69ce1a;fill:none;opacity:.2" transform="translate(-1406 -980)"/>
    <path data-name="패스 7069" d="m1561.27 981.769 166.5 68.251 24.72 178.23-141.76 109.98-166.5-68.25-24.72-178.23z" style="stroke:#ce1a1a;fill:none;opacity:.2" transform="translate(-1406 -980)"/>
    <path data-name="패스 7070" d="M1430.02 1070.29 1586 980.577l155.98 89.713v179.42L1586 1339.42l-155.98-89.71z" style="stroke:#ca1ace;fill:none;opacity:.2" transform="translate(-1406 -980)"/>
</svg>
