<svg xmlns="http://www.w3.org/2000/svg" width="32" height="32" viewBox="0 0 32 32">
    <path data-name="패스 6991" d="m855.585 2690.97 1.415-.82 1.92 1.11zm-1.742-.15L857 2689l4.284 2.46 4.928.43 1.541 3.29 3.156 1.82v4.93l2.091 4.46-2.091 2.98v3.63l-4.284 2.46-2.837 4.04-3.632-.32L857 2721l-4.284-2.46-4.928-.43-1.541-3.29-3.156-1.82v-4.93l-2.091-4.46 2.091-2.98V2697l4.284-2.46 2.837-4.04zm-4.414 2.53 1.273-1.81 1.628.15zm-1.361 1.94 6-3.45 6.9.6 6.006 3.45 2.928 6.26v6.9l-3.977 5.66-6 3.45-6.9-.6-6.007-3.45-2.928-6.26v-6.9zm-2.054 1.18-1.923 1.11v1.63zm-2.923 5.9-.939 1.34.939 2zm1 7.84v2.21l1.417.82zm3.667 5.47.692 1.48 2.212.19zm7.322 3.06 1.92 1.11 1.415-.82zm6.59-.43 1.628.15 1.273-1.81zm6.316-4.78 1.923-1.11v-1.63zm2.923-5.9.939-1.34-.939-2zm-1-7.84v-2.21l-1.417-.82zm-3.667-5.47-.692-1.48-2.211-.19z" style="fill:#ccc;fill-rule:evenodd" transform="translate(-841 -2689)"/>
    <path data-name="패스 6992" d="m858.361 2701.44 3.912 3.56m0 0-3.912 3.56m3.912-3.56h-10.667" style="fill:none;stroke:#000;stroke-linecap:round;stroke-linejoin:round;stroke-width:1.5px" transform="translate(-841 -2689)"/>
</svg>
