<svg xmlns="http://www.w3.org/2000/svg" width="60" height="60" viewBox="0 0 60 60">
  <g id="btn_top" transform="translate(-1530 -3631)">
    <path id="패스_7093" data-name="패스 7093" d="M1547.5,3634.5l-4.932,7.256-8.105,4.818v6.973l-3.8,5.215,4.082,8.729-.283,8.276,6.461,3.571,2.211,5.669,9.58.906,7.313,4.309,6.576-3.628,6.234.907,5.387-7.767,7.539-4.251-.283-6.633,4.193-5.5-4.193-8.22v-8.956l-6.01-3.288-2.947-6.065-8.844-.681-7.936-4.364-5.668,3.571Z" fill="#fff" style="opacity:0.7"/>
    <path id="패스_6925" data-name="패스 6925" d="M1555.82,3634.56l4.18-2.41,5.67,3.26Zm-1.74-.16,5.92-3.4,8.03,4.62,9.24.81,2.89,6.17,5.92,3.4v9.24l3.92,8.37-3.92,5.58V3676l-8.03,4.62-5.32,7.57-6.81-.59L1560,3691l-8.03-4.62-9.24-.81-2.89-6.17-5.92-3.4v-9.24l-3.92-8.37,3.92-5.58V3646l8.03-4.62,5.32-7.57Zm-10.07,5.8,3.75-5.34,4.81.41Zm-1.36,1.93,11.66-6.7,13.41,1.17,11.67,6.71,5.69,12.15v13.41l-7.73,11-11.66,6.7-13.41-1.17-11.67-6.71-5.69-12.15v-13.41Zm-2.06,1.19-5.67,3.26v4.81Zm-6.67,11.23-2.77,3.94,2.77,5.91Zm1,14.35v6.52l4.18,2.41Zm6.43,11.37,2.04,4.36,6.52.57Zm12.98,6.32,5.67,3.26,4.18-2.41Zm13.1.14,4.81.41,3.75-5.34Zm11.98-8.05,5.67-3.26v-4.81Zm6.67-11.23,2.77-3.94-2.77-5.91Zm-1-14.35v-6.52l-4.18-2.41Zm-6.43-11.37-2.04-4.36-6.52-.57Z" fill="#CBCBCB" fill-rule="evenodd"/>
    <path id="패스_6926" data-name="패스 6926" d="M1553.22,3658.33l6.67-7.33m0,0,6.66,7.33m-6.66-7.33v20" fill="none" stroke="#000" stroke-linecap="round" stroke-linejoin="round" stroke-width="1.5"/>
  </g>
</svg>
