<svg xmlns="http://www.w3.org/2000/svg" width="24" height="24" viewBox="0 0 24 24">
    <path data-name="사각형 1560" style="fill:none" d="M0 0h24v24H0z"/>
    <path data-name="사각형 1561" transform="translate(2 2)" style="fill:none" d="M0 0h20v20H0z"/>
    <path data-name="빼기 3" d="M11586 20735h-9a2 2 0 0 1-2-2v-16a2 2 0 0 1 2-2h9a2 2 0 0 1 2 2v5h-2v-5h-9v16h9v-5h2v5a2 2 0 0 1-2 2z" transform="translate(-11573 -20713)" style="fill:#fff"/>
    <path data-name="패스 7064" d="m1520.5 57.5 2.5 2.5m0 0-2.5 2.5m2.5-2.5h-8.5" transform="translate(-1502 -48)" style="stroke:#fff;stroke-linecap:round;stroke-linejoin:round;stroke-width:2px;fill:none"/>
</svg>
