<svg xmlns="http://www.w3.org/2000/svg" xmlns:xlink="http://www.w3.org/1999/xlink" width="18" height="16" viewBox="0 0 18 16">
  <defs>
    <clipPath id="clip-path">
      <rect id="사각형_910" data-name="사각형 910" width="18" height="16" transform="translate(-0.204)" fill="none"/>
    </clipPath>
  </defs>
  <g id="그룹_2346" data-name="그룹 2346" transform="translate(0.204)">
    <g id="그룹_2345" data-name="그룹 2345" clip-path="url(#clip-path)">
      <path id="패스_4233" data-name="패스 4233" d="M0,1H0A1,1,0,0,0,1,2H16.8a1,1,0,0,0,0-2H1A1,1,0,0,0,0,1" fill="#333"/>
      <path id="패스_4234" data-name="패스 4234" d="M16.8,8.1H1a1,1,0,1,1,0-2H16.8a1,1,0,0,1,0,2" transform="translate(0 0.685)" fill="#333"/>
      <path id="패스_4235" data-name="패스 4235" d="M16.8,14.2H1a1,1,0,1,1,0-2H16.8a1,1,0,0,1,0,2" transform="translate(0 1.37)" fill="#333"/>
    </g>
  </g>
</svg>
