<svg xmlns="http://www.w3.org/2000/svg" width="126" height="20"><defs><clipPath id="prefix__a"><path data-name="사각형 1694" d="M0 0h126v20H0z" fill="#fff"/></clipPath></defs><g data-name="logo" clip-path="url(#prefix__a)" fill="#fff"><path data-name="패스 7077" d="M44.561 11.828c-.7 1.534-3.174 5.468-5.517 5.959-.787.159-1.376.058-1.653-.524a14.692 14.692 0 01-.228-2.236l-.034-5.545.885.019a1.573 1.573 0 01.53.062c2.032.75 1.735 2.275 1.905 3.444.126.7.486.7.574.13l-.078-7.714c-.058-.3-.258-.332-.413-.087-.277 2.106-.928 3.246-2.348 3.458h-1.055l-.044-4.54c-.015-1.14.092-2.121 1.444-2.082a4.754 4.754 0 013.4 1.924 42.37 42.37 0 012.2 4.069c.384.245.418-.106.4-.322C44.3 5.47 43.861 3 43.341.324c-.228-.769-.7.063-.821.13L41.591 1a3.784 3.784 0 01-1.769.467L29.1 1.532c-.51.072-.423.63.122.693.486.067 1.162.159 1.312.442a5.906 5.906 0 01.253 2.164l.034 10.407a6.6 6.6 0 01-.17 2.188c-.165.308-.943.466-1.39.519-.248.072-.34.2-.345.332a.4.4 0 00-.34-.322c-1.128-.563-1.337-1.39-1.925-2.636L21.73.709c-.17-.284-.306-.293-.574-.115a12.865 12.865 0 01-5.95 2.371c-.36.106-.462.438-.063.548l.51.327c.758.659 1.162.616.676 1.828-2.041 7.2-3.859 11.225-6.533 12.4a.083.083 0 00-.049.014.378.378 0 00-.107-.125c-.894-.111-1.162-.635-1.118-1.169L8.509 3.263c.049-.467.136-.895 1.638-1.058.462-.125.34-.582-.058-.592H.217a.3.3 0 00.034.587c.958 0 1.769.356 1.779 1.327v13.25c-.01.794-.262 1.164-1.551 1.207-.394-.024-.7.558 0 .678h9.07a.205.205 0 00.126-.067.242.242 0 00.112.063l7.442.014c.51-.178.253-.765-.433-.794-1.006-.212-1.8-1.991-1.75-3.53l.063-2.1h4.1l.836 2.775c.53 1.664.476 2.414-.588 2.761l-.661.212c-.442.13-.413.6 0 .678h9.892a.364.364 0 00.233-.327.431.431 0 00.36.322l10.562-.014a12.939 12.939 0 012.153.212c1.05.592 1.22.9 1.259 1.01a.249.249 0 00.433 0 57.759 57.759 0 001.269-7.95c-.044-.64-.214-.394-.4-.087zm-29.33-.3L16.9 5.682l2.1 5.843z"/><path data-name="패스 7078" d="M59.382 1.136h-1.116v7.793h1.117zm-6.12 5.939h.684a19.629 19.629 0 003.8-.239l-.1-.9a17.616 17.616 0 01-3.272.214V2.708h2.723v-.889h-3.835zM63.503 3.25v-.474h1.645v-.888h-4.45v.889h1.671v.473a3.62 3.62 0 01-1.982 3.337l.63.863a3.8 3.8 0 001.939-2.3 3.556 3.556 0 001.922 2.1l.6-.855a3.341 3.341 0 01-1.975-3.145zm2.424 5.662h1.117V1.136h-1.117zm6.207-7.349H68.48V5.1h.615a22.087 22.087 0 003.4-.162l-.078-.854a18.951 18.951 0 01-2.839.154v-.53h2.32v-.812h-2.32v-.479h2.554zm-2.631 4.811h4.146v.419h-4.138V8.86h5.471v-.837h-4.365v-.444h4.13V5.536h-5.246zm2.864-2.724h1.281v1.6h1.1V1.136h-1.1v1.657h-1.281zm12.63.974h-7.18v.88h1.61v.91a1.186 1.186 0 00-.788 1.081c0 .919 1.035 1.427 2.762 1.427 1.7 0 2.735-.508 2.744-1.427a1.173 1.173 0 00-.736-1.051v-.94h1.592zM78.53 2.77c0 .923 1.121 1.478 2.874 1.478s2.861-.555 2.866-1.478c0-.94-1.126-1.512-2.866-1.512s-2.873.57-2.873 1.51zm1.152 0c-.009-.44.619-.667 1.722-.667 1.087 0 1.723.226 1.723.667s-.636.649-1.723.649c-1.103-.002-1.731-.224-1.722-.651zm.078 4.725c0-.4.545-.594 1.636-.6 1.069 0 1.632.2 1.636.6s-.567.6-1.636.6c-1.091-.004-1.64-.196-1.636-.602zm.762-1.367v-.626h1.775v.628a6.527 6.527 0 00-.9-.056 6.926 6.926 0 00-.88.052zm11.2-4.99h-1.105V5.69h1.108V3.913h1.065v-.906h-1.065zm-6.25 1.538h4.675v-.857h-1.783v-.735h-1.1v.735h-1.792zm.381 1.6c0 .829.8 1.376 1.956 1.376s1.939-.547 1.939-1.376S88.956 2.9 87.809 2.9s-1.955.543-1.955 1.372zm.71 4.554h5.159V5.989h-1.105v.59h-2.952v-.59h-1.1zm.372-4.554c0-.363.346-.581.874-.573.532-.009.891.209.891.573s-.36.577-.891.581-.877-.207-.873-.585zm.727 3.7v-.56h2.955v.555zm14.136-6.836h-1.116v7.772h1.116zm-6.6 5.571l.58.872a5.659 5.659 0 003.658-5.633h-3.809v.854h2.684c-.178 1.724-1.074 2.954-3.108 3.903zm11.8-5.366v-.167h-1.134v.162c-.009.761-.909 1.525-2.675 1.709l.372.82a3.962 3.962 0 002.861-1.371 3.962 3.962 0 002.878 1.371l.363-.82c-1.756-.183-2.661-.948-2.661-1.708zm-4.16 3.705h3.03v.513h-2.2v.829h4.389v.41h-4.38V8.86h5.679v-.82h-4.6v-.47h4.389V5.562h-2.173V5.05h3.047v-.855h-7.185zm10.717-1.8v-.474h1.644v-.888h-4.449v.889h1.667v.473a3.62 3.62 0 01-1.982 3.333l.632.863a3.8 3.8 0 001.939-2.3 3.558 3.558 0 001.922 2.1l.6-.855a3.341 3.341 0 01-1.973-3.141zm2.424 5.657h1.117V1.136h-1.117zm8.855-7.767h-1.107v4.516h-1.51v.743h1.506v.615h1.108zm-6.7 3.444l.13.863c.6 0 1.268 0 1.974-.03V6.45h-1.1v2.325h5.869v-.872h-4.77V6.835h1.108V5.357c.636-.047 1.282-.12 1.9-.222l-.061-.778a46.927 46.927 0 01-5.05.231zm.58-1.786c0 .833.809 1.371 1.982 1.367 1.143 0 1.961-.534 1.965-1.367s-.822-1.4-1.965-1.393c-1.172 0-1.979.568-1.979 1.397zm1.047 0c0-.385.372-.6.935-.6.528 0 .909.214.917.6-.008.376-.389.585-.917.581-.562.008-.938-.201-.934-.577zM59.33 11.35h-5.913v.812h1.021v1.025h-.97v.812h5.809v-.812h-.978v-1.026h1.03zm-6.544 3.914h7.185v-.855h-7.185zm.831 1.23h4.389v.393h-4.38v1.973h5.679v-.8h-4.6v-.43h4.392v-1.923h-5.48zm1.93-3.307v-1.026h1.645v1.025zm11.67-2.043h-1.048v1.88h-.684v-1.743h-1.03v4.443h1.03v-1.82h.684v2.461h1.048zm-6.458 1.4h1.939v.706h-1.931v2.41h.55a14.083 14.083 0 002.865-.205l-.095-.855a12.34 12.34 0 01-2.251.2v-.765h1.93v-2.361h-3zm.632 5.486l.441.846a3.71 3.71 0 002.654-1.426 3.672 3.672 0 002.653 1.427l.441-.846c-1.7-.209-2.549-1.051-2.545-1.871v-.137h-1.108v.137c0 .82-.853 1.662-2.536 1.871zm13.9-3.127h-3.047v-.623h2.354v-.872h-.978v-1.187h1.03v-.871h-5.91v.872h1.022v1.188h-.97v.872h2.347v.624h-3.03v.863h7.185zm-6.354 3.922h5.5v-2.528h-5.5zm1.091-.872v-.8h3.324v.8zm.84-4.546v-1.186h1.649v1.188z"/><path data-name="사각형 1693" d="M80 18h45v1H80z"/></g></svg>