<svg xmlns="http://www.w3.org/2000/svg" width="199" height="32"><defs><clipPath id="a"><path data-name="사각형 1694" style="fill:#fff" d="M0 0h199v32H0z"/></clipPath></defs><g data-name="logo" style="clip-path:url(#a)"><path data-name="패스 7077" d="M70.378 18.926c-1.105 2.455-5.013 8.749-8.713 9.534-1.244.254-2.173.092-2.61-.839a23.8 23.8 0 0 1-.361-3.578l-.054-8.873 1.4.031a2.454 2.454 0 0 1 .837.1c3.209 1.2 2.741 3.64 3.009 5.51.2 1.124.768 1.116.906.208l-.125-12.343c-.092-.485-.407-.531-.653-.139-.438 3.37-1.466 5.194-3.708 5.533H58.64l-.069-7.264c-.023-1.824.146-3.393 2.28-3.332a7.487 7.487 0 0 1 5.374 3.078 68.08 68.08 0 0 1 3.47 6.51c.606.392.66-.169.637-.516-.361-3.793-1.059-7.741-1.881-12.027-.361-1.231-1.105.1-1.3.208l-1.466.87a5.916 5.916 0 0 1-2.794.746l-16.935.108c-.806.115-.668 1.008.192 1.108.768.108 1.835.254 2.073.708a9.565 9.565 0 0 1 .4 3.463l.054 16.652a10.7 10.7 0 0 1-.269 3.5c-.261.493-1.489.746-2.2.831-.391.115-.537.323-.545.531a.637.637 0 0 0-.537-.515c-1.781-.9-2.111-2.224-3.04-4.217L34.32 1.135c-.269-.454-.484-.469-.906-.185a20.17 20.17 0 0 1-9.4 3.794c-.568.169-.729.7-.1.877l.806.523c1.2 1.054 1.835.985 1.067 2.924-3.22 11.532-6.087 17.96-10.314 19.845a.13.13 0 0 0-.077.023.6.6 0 0 0-.169-.2c-1.413-.177-1.835-1.016-1.766-1.87l-.022-21.645c.077-.746.215-1.431 2.587-1.693.729-.2.537-.931-.092-.946H.342a.489.489 0 0 0 .058.946c1.512 0 2.794.569 2.81 2.124v21.192c-.015 1.27-.415 1.862-2.449 1.931-.622-.038-1.1.893-.008 1.085h14.329a.323.323 0 0 0 .2-.108.382.382 0 0 0 .177.1l11.753.023c.806-.285.4-1.224-.683-1.27-1.589-.338-2.84-3.186-2.764-5.648l.1-3.363h6.472l1.32 4.44c.837 2.662.752 3.863-.929 4.417l-1.044.339c-.7.208-.653.962 0 1.085h15.622a.582.582 0 0 0 .368-.523.684.684 0 0 0 .568.516l16.682-.023a20.18 20.18 0 0 1 3.4.339c1.658.946 1.927 1.447 1.988 1.616a.391.391 0 0 0 .683 0 93.529 93.529 0 0 0 2-12.72c-.069-1.023-.338-.631-.637-.139zm-46.322-.485 2.644-9.35 3.316 9.349z" style="fill:#1a95ce"/><path data-name="패스 7078" d="M93.787 1.816h-1.764v12.469h1.764zm-9.666 9.5H85.2a30.609 30.609 0 0 0 6-.383L91.039 9.5a27.47 27.47 0 0 1-5.168.342v-5.51h4.307V2.91h-6.057zm16.174-6.111v-.764h2.6V3.02h-7.03v1.421H98.5v.766a5.8 5.8 0 0 1-3.131 5.332l1 1.381a6.066 6.066 0 0 0 3.063-3.678 5.663 5.663 0 0 0 3.035 3.363l.943-1.367a5.352 5.352 0 0 1-3.115-5.031zm3.828 9.051h1.764V1.816h-1.764zm9.8-11.758h-5.77V8.16h.971a34.438 34.438 0 0 0 5.376-.26l-.123-1.367a29.549 29.549 0 0 1-4.484.246v-.847h3.664v-1.3h-3.664v-.765h4.033zm-4.156 7.7h6.548v.67h-6.535v3.309h8.641v-1.34h-6.891v-.711h6.522V8.857h-8.282zm4.525-4.361h2.023v2.57h1.737V1.816h-1.737v2.653h-2.023zm19.947 1.559h-11.344V8.8h2.543v1.456a1.9 1.9 0 0 0-1.245 1.73c0 1.47 1.634 2.283 4.362 2.283 2.686 0 4.32-.813 4.334-2.283a1.877 1.877 0 0 0-1.162-1.682V8.8h2.515zm-10.21-2.968c0 1.477 1.771 2.365 4.539 2.365 2.748 0 4.519-.889 4.526-2.365-.007-1.5-1.778-2.42-4.526-2.42-2.768 0-4.539.916-4.539 2.42zm1.819 0c-.014-.7.977-1.066 2.72-1.066 1.716 0 2.721.362 2.721 1.066 0 .684-1.005 1.039-2.721 1.039-1.743 0-2.734-.356-2.72-1.039zm.123 7.561c-.007-.643.861-.95 2.584-.957 1.688.007 2.577.314 2.584.957s-.9.957-2.584.957c-1.723-.001-2.591-.308-2.584-.958zm1.2-2.188v-1h2.8v1a10.177 10.177 0 0 0-1.422-.089 10.8 10.8 0 0 0-1.375.088zm17.691-7.984h-1.75V9.1h1.75V6.26h1.682V4.811h-1.682zm-9.871 2.461h7.383V2.91h-2.816V1.734h-1.737V2.91h-2.83zm.6 2.557c0 1.326 1.258 2.2 3.09 2.2 1.811 0 3.062-.875 3.062-2.2s-1.251-2.2-3.062-2.2c-1.827-.002-3.081.873-3.081 2.199zm1.121 7.287h8.148v-4.54h-1.75v.943h-4.662v-.943h-1.736zm.588-7.287c-.007-.581.547-.93 1.381-.916.84-.014 1.408.335 1.408.916 0 .6-.568.923-1.408.93s-1.381-.329-1.381-.931zm1.148 5.92v-.889h4.662v.889zm22.331-10.939h-1.763v12.442h1.763zm-10.418 8.914.916 1.394c4.444-2.1 5.763-5.236 5.77-9.01h-6.016v1.368h4.239c-.281 2.762-1.696 4.731-4.909 6.249zM169 2.145v-.26h-1.791v.26c-.014 1.217-1.435 2.44-4.225 2.734l.588 1.313A6.23 6.23 0 0 0 168.087 4a6.229 6.229 0 0 0 4.546 2.194l.574-1.312C170.425 4.585 169 3.361 169 2.145zm-6.58 5.933h4.785V8.9h-3.473v1.326h6.932v.656h-6.918v3.295h8.969v-1.314h-7.26v-.752h6.932V8.9h-3.432v-.82h4.813V6.711H162.42zm16.926-2.871v-.766h2.6V3.02h-7.027v1.421h2.639v.766a5.8 5.8 0 0 1-3.131 5.332l1 1.381a6.062 6.062 0 0 0 3.062-3.678 5.665 5.665 0 0 0 3.036 3.363l.943-1.367a5.352 5.352 0 0 1-3.122-5.031zm3.828 9.051h1.764V1.816h-1.764zM197.16 1.83h-1.75v7.219h-2.379v1.189h2.379v.984h1.75zm-10.582 5.51.205 1.381c.944 0 2-.007 3.117-.048v1.647h-1.736v3.719h9.27v-1.395H189.9v-1.708h1.75V8.57a33.678 33.678 0 0 0 3.008-.355l-.1-1.244a73.167 73.167 0 0 1-7.98.369zm.916-2.857c0 1.333 1.278 2.194 3.131 2.188 1.8.007 3.1-.854 3.1-2.187s-1.3-2.235-3.1-2.229c-1.853-.008-3.131.901-3.131 2.227zm1.654 0c-.006-.615.588-.957 1.477-.957.834 0 1.436.342 1.449.957-.013.6-.615.937-1.449.93-.889.006-1.483-.329-1.477-.931zM93.705 18.158h-9.338v1.3h1.613V21.1h-1.531v1.3h9.174v-1.3h-1.545v-1.643h1.627zM83.369 24.42h11.348v-1.367H83.369zm1.313 1.969h6.932v.629H84.7v3.158h8.969v-1.285H86.4v-.684h6.932v-3.076h-8.65zM87.73 21.1v-1.643h2.6V21.1zm18.43-3.268h-1.654v3.008h-1.08v-2.791H101.8v7.109h1.627v-2.912h1.08v3.938h1.654zm-10.2 2.242h3.063v1.135h-3.048v3.855h.861a21.962 21.962 0 0 0 4.525-.328l-.15-1.367a19.245 19.245 0 0 1-3.555.321v-1.225h3.049v-3.787h-4.744zm1 8.777.7 1.354a5.84 5.84 0 0 0 4.191-2.283 5.782 5.782 0 0 0 4.19 2.283l.7-1.354c-2.686-.335-4.026-1.682-4.019-2.994v-.219h-1.75v.219c-.007 1.311-1.354 2.658-4.013 2.993zm21.957-5H114.1v-1h3.718v-1.398h-1.545v-1.9h1.627v-1.395h-9.338v1.395h1.614v1.9h-1.532v1.395h3.706v1h-4.786v1.381h11.348zm-10.035 6.275h8.681v-4.052h-8.681zm1.723-1.394v-1.291h5.25v1.285zm1.326-7.274v-1.9h2.6v1.9z" style="fill:#1a95ce"/><path data-name="사각형 1693" transform="translate(125 28)" style="fill:#1a95ce" d="M0 0h73v2H0z"/></g></svg>