<svg xmlns="http://www.w3.org/2000/svg" xmlns:xlink="http://www.w3.org/1999/xlink" width="24" height="24" viewBox="0 0 24 24">
  <defs>
    <clipPath id="clip-path">
      <rect id="사각형_1445" data-name="사각형 1445" width="24" height="24" fill="none"/>
    </clipPath>
  </defs>
  <g id="그룹_10346" data-name="그룹 10346" clip-path="url(#clip-path)">
    <path id="패스_6244" data-name="패스 6244" d="M12.2.925A6.97,6.97,0,0,1,15,3.472,6.833,6.833,0,0,1,16,7.14a6.528,6.528,0,0,1-.427,2.481A3.478,3.478,0,0,1,14.378,11.2a3.064,3.064,0,0,1-1.806.54,2.7,2.7,0,0,1-1.438-.36,2.069,2.069,0,0,1-.852-1.066,3.133,3.133,0,0,1-2.859,1.426A3.742,3.742,0,0,1,4.071,9.753,4.451,4.451,0,0,1,3.561,7.6a4.426,4.426,0,0,1,.51-2.139A3.719,3.719,0,0,1,7.423,3.472,3.193,3.193,0,0,1,10,4.554V3.586h2.274V8.893q0,1.047.8,1.048a1.007,1.007,0,0,0,.911-.688,5.075,5.075,0,0,0,.326-2.079,5.489,5.489,0,0,0-.777-2.924,5.3,5.3,0,0,0-2.19-1.981,7.118,7.118,0,0,0-3.252-.712,6.741,6.741,0,0,0-3.252.762,5.472,5.472,0,0,0-2.19,2.1,5.961,5.961,0,0,0-.778,3.046,6.119,6.119,0,0,0,.769,3.086,5.419,5.419,0,0,0,2.166,2.113,6.606,6.606,0,0,0,3.218.762,7.439,7.439,0,0,0,3.294-.722l.534,1.507a6.992,6.992,0,0,1-1.78.582,10.5,10.5,0,0,1-2.048.2,8.761,8.761,0,0,1-4.2-.974A7.034,7.034,0,0,1,1,11.332,7.516,7.516,0,0,1,0,7.468,7.363,7.363,0,0,1,1.011,3.636,7.054,7.054,0,0,1,3.862.967,8.972,8.972,0,0,1,8.092,0a8.86,8.86,0,0,1,4.1.925M9.446,9.261A2.271,2.271,0,0,0,10.031,7.6a2.226,2.226,0,0,0-.585-1.639,2.034,2.034,0,0,0-1.505-.59,1.979,1.979,0,0,0-1.5.6A2.27,2.27,0,0,0,5.868,7.6a2.32,2.32,0,0,0,.569,1.653,1.963,1.963,0,0,0,1.5.606,3.642,3.642,0,0,0,1.505-.6" transform="translate(4 4.5)" fill="#333"/>
  </g>
</svg>
