<svg xmlns="http://www.w3.org/2000/svg" width="23.999" height="24" viewBox="0 0 23.999 24">
  <g id="그룹_10482" data-name="그룹 10482" transform="translate(-360.001 -516.999)">
    <path id="합치기_2" data-name="합치기 2" d="M9474-1958a12,12,0,0,1-12-12,12,12,0,0,1,12-12,12,12,0,0,1,12,12v8a4,4,0,0,1-4,4Z" transform="translate(-9102 2499)" fill="#23a0ef"/>
    <path id="패스_6264" data-name="패스 6264" d="M4.844-.154a2.128,2.128,0,0,1-1.6.728A1.81,1.81,0,0,1,1.862-.112,4.932,4.932,0,0,0,5.362-4.9,5.071,5.071,0,0,0,0-9.968,5.071,5.071,0,0,0-5.362-4.9,5,5,0,0,0-.784.126c1.512,1.6,2.534,2.128,3.99,2.128a3.32,3.32,0,0,0,2.646-1.2ZM-3.066-4.9A2.99,2.99,0,0,1,0-8.036,2.989,2.989,0,0,1,3.066-4.9,2.989,2.989,0,0,1,0-1.764,2.99,2.99,0,0,1-3.066-4.9Z" transform="translate(372 534)" fill="#fff"/>
  </g>
</svg>
