<svg id="file" xmlns="http://www.w3.org/2000/svg" width="20" height="20" viewBox="0 0 20 20">
  <rect id="사각형_857" data-name="사각형 857" width="20" height="20" fill="none"/>
  <rect id="사각형_860" data-name="사각형 860" width="16" height="16" transform="translate(2 2)" fill="none"/>
  <path id="Frame_518" data-name="Frame 518" d="M16.33,11.089l-2.5,4.33A5,5,0,0,1,7,17.25H7a5,5,0,0,1-1.83-6.83L8.4,4.826a3.542,3.542,0,0,1,4.838-1.3h0a3.542,3.542,0,0,1,1.3,4.838L11.3,13.961a2.083,2.083,0,0,1-2.846.763h0A2.083,2.083,0,0,1,7.7,11.878l2.5-4.33" transform="translate(-0.749 -0.488)" fill="none" stroke="#000" stroke-linecap="round" stroke-width="1"/>
</svg>
