<svg width="96" height="96" viewBox="0 0 96 96" fill="none" xmlns="http://www.w3.org/2000/svg">
<g id="Layer_1">
<g id="Group 9609">
<path id="Vector" d="M31.41 70.2386L29.98 69.1386C30.68 68.2286 30.84 66.9986 30.4 65.9386L30.38 65.8886C29.94 64.8286 28.96 64.0786 27.82 63.9286L24.26 63.4686V54.1686L27.82 53.7086C28.96 53.5586 29.94 52.8086 30.38 51.7486L30.4 51.6986C30.84 50.6386 30.68 49.4086 29.98 48.4986L27.79 45.6586L34.37 39.0786L37.21 41.2686C38.12 41.9686 39.34 42.1286 40.41 41.6886L40.46 41.6686C41.52 41.2286 42.27 40.2486 42.42 39.1086L42.88 35.5586H52.18L52.64 39.1086C52.79 40.2486 53.54 41.2286 54.6 41.6686L54.65 41.6886C55.71 42.1286 56.93 41.9686 57.84 41.2686L60.68 39.0786L67.26 45.6586L65.07 48.4986C64.37 49.4086 64.21 50.6386 64.65 51.6986L64.67 51.7486C65.11 52.8086 66.09 53.5486 67.23 53.6986L70.78 54.1586V62.6686H68.97V55.7486L66.99 55.4886C65.21 55.2586 63.68 54.0886 62.99 52.4286L62.97 52.3786C62.28 50.7186 62.53 48.8086 63.63 47.3786L64.85 45.7986L60.52 41.4686L58.94 42.6886C57.52 43.7886 55.61 44.0386 53.95 43.3486L53.9 43.3286C52.25 42.6386 51.07 41.1086 50.84 39.3286L50.58 37.3486H44.46L44.2 39.3286C43.97 41.1086 42.8 42.6386 41.14 43.3286L41.09 43.3486C39.43 44.0386 37.52 43.7786 36.1 42.6886L34.52 41.4686L30.19 45.7986L31.41 47.3786C32.51 48.7986 32.76 50.7186 32.07 52.3786L31.22 52.0786L32.06 52.4286C31.38 54.0886 29.84 55.2586 28.06 55.4886L26.08 55.7486V61.8686L28.06 62.1286C29.84 62.3586 31.37 63.5286 32.06 65.1886L31.24 65.5786L32.07 65.2286C32.76 66.8886 32.51 68.8086 31.41 70.2286V70.2386Z" fill="black"/>
<path id="Vector_2" d="M40.9501 66.5497C38.6801 64.6197 37.3701 61.7997 37.3701 58.8197C37.3701 53.2297 41.9201 48.6797 47.5101 48.6797C53.1001 48.6797 57.6501 53.2297 57.6501 58.8197H55.8401C55.8401 54.2197 52.1001 50.4897 47.5101 50.4897C42.9201 50.4897 39.1801 54.2297 39.1801 58.8197C39.1801 61.2697 40.2501 63.5897 42.1201 65.1697L40.9501 66.5497Z" fill="black"/>
<path id="Vector_3" d="M49.9201 84.9984C48.6501 84.9984 47.3801 84.8284 46.1601 84.4784L25.2501 78.5684C24.2801 78.2884 23.4701 77.6584 22.9701 76.7684C22.4801 75.8884 22.3501 74.8584 22.6301 73.8884C23.1901 71.9084 25.1901 70.7484 27.1801 71.2384L42.0701 74.8884C42.1701 74.8984 42.2301 74.8884 42.3601 74.8684C42.4301 74.8584 42.5001 74.8484 42.5701 74.8384L52.7201 73.5184C53.3301 73.4384 53.7901 72.9184 53.7901 72.2984C53.7901 71.6184 53.2401 71.0684 52.5601 71.0684H48.4201C45.9601 71.0684 43.9601 69.0684 43.9601 66.6084C43.9601 64.1484 45.9601 62.1484 48.4201 62.1484H56.0701C57.6101 62.1484 59.1301 62.3784 60.6001 62.8284L72.5301 66.4684V81.4684L52.1201 84.8084C51.3901 84.9284 50.6501 84.9884 49.9001 84.9884L49.9201 84.9984ZM26.2801 72.9384C25.4101 72.9384 24.6201 73.5084 24.3801 74.3884C24.2401 74.8984 24.3001 75.4384 24.5601 75.8984C24.8201 76.3584 25.2401 76.6984 25.7501 76.8384L46.6601 82.7484C48.3401 83.2184 50.1401 83.3284 51.8601 83.0384L70.7601 79.9484V67.8284L60.1101 64.5784C58.8101 64.1784 57.4601 63.9784 56.1001 63.9784H48.4501C46.9901 63.9784 45.8001 65.1684 45.8001 66.6284C45.8001 68.0884 46.9901 69.2784 48.4501 69.2784H52.5901C54.2601 69.2784 55.6201 70.6384 55.6201 72.3084C55.6201 73.8284 54.4801 75.1284 52.9701 75.3184L42.8201 76.6384C42.8201 76.6384 42.7301 76.6484 42.6801 76.6584C42.4701 76.6984 42.1901 76.7484 41.7701 76.6784L41.6901 76.6584L26.7601 72.9984C26.6001 72.9584 26.4401 72.9384 26.2801 72.9384Z" fill="black"/>
<path id="Vector_4" d="M79.59 83.3405H72.95C71.73 83.3405 70.73 82.3405 70.73 81.1205V66.7005C70.73 65.4805 71.73 64.4805 72.95 64.4805H79.59C80.81 64.4805 81.81 65.4805 81.81 66.7005V81.1205C81.81 82.3405 80.81 83.3405 79.59 83.3405ZM72.95 66.3005C72.72 66.3005 72.54 66.4805 72.54 66.7105V81.1305C72.54 81.3605 72.72 81.5405 72.95 81.5405H79.59C79.82 81.5405 80 81.3605 80 81.1305V66.7105C80 66.4805 79.82 66.3005 79.59 66.3005H72.95Z" fill="black"/>
<path id="Vector_5" d="M48.4201 17.1016H46.6101V27.6016H48.4201V17.1016Z" fill="black"/>
<path id="Vector_6" d="M41.6099 30.0213H39.7999V27.8413H33.1699V22.5312H34.9799V26.0312H41.6099V30.0213Z" fill="black"/>
<path id="Vector_7" d="M55.04 30.0213H53.23V26.0312H59.87V22.5312H61.68V27.8413H55.04V30.0213Z" fill="black"/>
<path id="Vector_8" d="M36.1899 34.7191H21.7899V28.0991H17.9299V26.2891H23.5999V32.9091H36.1899V34.7191Z" fill="black"/>
<path id="Vector_9" d="M73.0599 34.7191H58.6599V32.9091H71.2499V26.2891H76.9099V28.0991H73.0599V34.7191Z" fill="black"/>
<path id="Vector_10" d="M18.7701 49.4317H12.1101V47.6217H16.9601V41.0117H24.1301V42.8217H18.7701V49.4317Z" fill="black"/>
<path id="Vector_11" d="M84.54 49.4317H77.88V42.8217H72.52V41.0117H79.69V47.6217H84.54V49.4317Z" fill="black"/>
<path id="Vector_12" d="M47.52 11C45.59 11 44.01 12.57 44.01 14.51C44.01 16.45 45.58 18.02 47.52 18.02C49.46 18.02 51.03 16.45 51.03 14.51C51.03 12.57 49.46 11 47.52 11Z" fill="#1CB0D4"/>
<path id="Vector_13" d="M34.0701 16.4297C32.1401 16.4297 30.5601 17.9997 30.5601 19.9397C30.5601 21.8797 32.1301 23.4497 34.0701 23.4497C36.0101 23.4497 37.5801 21.8797 37.5801 19.9397C37.5801 17.9997 36.0101 16.4297 34.0701 16.4297Z" fill="#1CB0D4"/>
<path id="Vector_14" d="M15.3301 23.6914C13.4001 23.6914 11.8201 25.2614 11.8201 27.2014C11.8201 29.1414 13.3901 30.7114 15.3301 30.7114C17.2701 30.7114 18.8401 29.1414 18.8401 27.2014C18.8401 25.2614 17.2701 23.6914 15.3301 23.6914Z" fill="#1CB0D4"/>
<path id="Vector_15" d="M60.77 16.4297C58.84 16.4297 57.26 17.9997 57.26 19.9397C57.26 21.8797 58.83 23.4497 60.77 23.4497C62.71 23.4497 64.28 21.8797 64.28 19.9397C64.28 17.9997 62.71 16.4297 60.77 16.4297Z" fill="#1CB0D4"/>
<path id="Vector_16" d="M79.52 23.6914C77.59 23.6914 76.01 25.2614 76.01 27.2014C76.01 29.1414 77.58 30.7114 79.52 30.7114C81.46 30.7114 83.03 29.1414 83.03 27.2014C83.03 25.2614 81.46 23.6914 79.52 23.6914Z" fill="#1CB0D4"/>
<path id="Vector_17" d="M87.1499 45.0195C85.2199 45.0195 83.6399 46.5895 83.6399 48.5295C83.6399 50.4695 85.2099 52.0395 87.1499 52.0395C89.0899 52.0395 90.6599 50.4695 90.6599 48.5295C90.6599 46.5895 89.0899 45.0195 87.1499 45.0195Z" fill="#1CB0D4"/>
<path id="Vector_18" d="M9.51 45.0195C7.58 45.0195 6 46.5895 6 48.5295C6 50.4695 7.57 52.0395 9.51 52.0395C11.45 52.0395 13.02 50.4695 13.02 48.5295C13.02 46.5895 11.45 45.0195 9.51 45.0195Z" fill="#1CB0D4"/>
</g>
</g>
</svg>
