<svg width="24" height="24" viewBox="0 0 24 24" fill="none" xmlns="http://www.w3.org/2000/svg">
<path fill-rule="evenodd" clip-rule="evenodd" d="M11.0926 4.5015C11.9261 3.72366 13.0426 3.29761 14.1936 3.29761C15.3446 3.29761 16.4612 3.72366 17.2947 4.5015C18.1306 5.28152 18.6143 6.35483 18.6143 7.48986C18.6143 8.62489 18.1306 9.6982 17.2947 10.4782L12.054 15.369C11.5412 15.8475 10.8597 16.1054 10.1623 16.1054C9.46492 16.1054 8.78338 15.8475 8.27063 15.369C7.75555 14.8883 7.45195 14.2209 7.45195 13.5092C7.45195 12.7975 7.75555 12.1302 8.27063 11.6495L8.28724 11.6343L12.2742 8.07794L13.6056 9.57046L9.62884 13.1177C9.50686 13.2346 9.45195 13.3766 9.45195 13.5092C9.45195 13.6442 9.50876 13.7888 9.63518 13.9068C9.76393 14.0269 9.95246 14.1054 10.1623 14.1054C10.3721 14.1054 10.5607 14.0269 10.6894 13.9068L15.9302 9.01603C16.3773 8.59872 16.6143 8.0481 16.6143 7.48986C16.6143 6.93162 16.3773 6.381 15.9302 5.9637C15.4807 5.54421 14.8571 5.29761 14.1936 5.29761C13.5302 5.29761 12.9066 5.54421 12.4571 5.9637L7.21637 10.8544C6.44845 11.5711 6.03125 12.5277 6.03125 13.5092C6.03125 14.4908 6.44845 15.4474 7.21637 16.164C7.98664 16.8828 9.04524 17.2976 10.1623 17.2976C11.2794 17.2976 12.338 16.8828 13.1082 16.164L19.0801 10.591L20.4446 12.0532L14.4728 17.6262C13.3185 18.7034 11.7669 19.2976 10.1623 19.2976C8.5577 19.2976 7.00609 18.7034 5.85183 17.6262C4.69524 16.5469 4.03125 15.0676 4.03125 13.5092C4.03125 11.9509 4.69524 10.4716 5.85183 9.39224L11.0926 4.5015Z" fill="black"/>
</svg>
