<svg width="32" height="32" viewBox="0 0 32 32" fill="none" xmlns="http://www.w3.org/2000/svg">
<path d="M23.7969 30.2976H15.2969C14.9616 30.2976 14.6897 30.0258 14.6897 29.6905V29.1127C14.6897 27.9277 14.219 26.7911 13.381 25.9532L13.2164 25.7886C12.9858 25.558 12.794 25.2918 12.6482 25.0002L12.2528 24.2095C11.4598 22.6234 11.0469 20.8744 11.0469 19.1011C11.0469 18.4952 11.2876 17.9141 11.716 17.4856L11.9576 17.244C12.5407 16.6609 12.8683 15.87 12.8683 15.0454V13.9048V7.22619C12.8683 6.46178 13.2282 5.74198 13.8397 5.28333C14.7032 4.63571 15.8905 4.63571 16.754 5.28333C17.3655 5.74198 17.7254 6.46178 17.7254 7.22619V11.1151C17.7254 11.7351 17.9717 12.3296 18.4101 12.7679C18.7545 13.1124 19.1981 13.3407 19.6786 13.4208L21.8622 13.7847C22.3398 13.8643 22.8028 14.0148 23.2358 14.2314L24.8349 15.0309C24.9516 15.0893 25.0582 15.1661 25.1505 15.2584L26.7679 16.8758C26.8105 16.9183 26.8425 16.9702 26.8615 17.0272C27.2418 18.168 27.3512 19.3816 27.1811 20.572L26.906 22.4982C26.8574 22.8384 26.7542 23.1686 26.6005 23.476L25.5239 25.6292C25.1867 26.3036 25.0112 27.0473 25.0112 27.8014V29.0833C25.0112 29.754 24.4675 30.2976 23.7969 30.2976Z" fill="white"/>
<path fill-rule="evenodd" clip-rule="evenodd" d="M13.4771 4.79763C14.5565 3.9881 16.0406 3.9881 17.12 4.79763C17.8844 5.37093 18.3343 6.27068 18.3343 7.2262V11.1151C18.3343 11.574 18.5166 12.0142 18.8411 12.3386C19.0961 12.5936 19.4244 12.7626 19.7801 12.8219L21.9637 13.1858C22.501 13.2754 23.0218 13.4447 23.509 13.6883L25.1081 14.4879C25.2832 14.5754 25.4431 14.6906 25.5815 14.8291L27.1989 16.4465C27.3081 16.5557 27.3903 16.6888 27.4392 16.8352C27.8492 18.0654 27.9672 19.3742 27.7839 20.6579L27.5087 22.5841C27.4509 22.9889 27.3281 23.3818 27.1453 23.7476L26.0687 25.9007C25.7736 26.4909 25.62 27.1416 25.62 27.8014V29.0833C25.62 30.0893 24.8045 30.9048 23.7985 30.9048H15.2985C14.6279 30.9048 14.0843 30.3611 14.0843 29.6905V29.1127C14.0843 28.0887 13.6775 27.1066 12.9534 26.3825L12.7888 26.2179C12.5121 25.9412 12.2818 25.6217 12.1068 25.2717L11.7114 24.481C10.8762 22.8106 10.4414 20.9687 10.4414 19.1011C10.4414 18.3341 10.7461 17.5986 11.2884 17.0563L11.5299 16.8147C11.9992 16.3455 12.2628 15.709 12.2628 15.0454V7.2262C12.2628 6.27068 12.7127 5.37093 13.4771 4.79763ZM16.3914 5.76905C15.7438 5.28334 14.8533 5.28334 14.2057 5.76905C13.747 6.11304 13.4771 6.65289 13.4771 7.2262V15.0454C13.4771 16.0311 13.0856 16.9764 12.3886 17.6734L12.147 17.915C11.8324 18.2295 11.6557 18.6562 11.6557 19.1011C11.6557 20.7801 12.0466 22.4362 12.7975 23.938L13.1929 24.7287C13.3095 24.9619 13.463 25.1749 13.6474 25.3593L13.812 25.5239C14.7638 26.4757 15.2985 27.7666 15.2985 29.1127V29.6905H23.7985C24.1339 29.6905 24.4057 29.4187 24.4057 29.0833V27.8014C24.4057 26.9531 24.6032 26.1164 24.9826 25.3577L26.0592 23.2045C26.1837 22.9555 26.2672 22.688 26.3066 22.4124L26.5818 20.4862C26.7361 19.4061 26.6407 18.3053 26.3033 17.2682L24.7229 15.6877C24.6767 15.6416 24.6234 15.6032 24.5651 15.574L22.966 14.7744C22.5871 14.585 22.1819 14.4532 21.764 14.3836L19.5805 14.0197C18.9751 13.9188 18.4164 13.6312 17.9824 13.1973C17.4302 12.6451 17.12 11.8961 17.12 11.1151V7.2262C17.12 6.65289 16.8501 6.11304 16.3914 5.76905Z" fill="black"/>
<path fill-rule="evenodd" clip-rule="evenodd" d="M5.22675 6.0119L6.61886 7.40402L5.76023 8.26265L2.90234 5.40476L5.76023 2.54688L6.61886 3.4055L5.22675 4.79762H9.8324V6.0119H5.22675Z" fill="#1CB0D4"/>
<path fill-rule="evenodd" clip-rule="evenodd" d="M25.367 6.0119L23.9749 7.40402L24.8335 8.26265L27.6914 5.40476L24.8335 2.54688L23.9749 3.4055L25.367 4.79762H20.7613V6.0119H25.367Z" fill="#1CB0D4"/>
</svg>
