<svg width="154" height="154" viewBox="0 0 154 154" fill="none" xmlns="http://www.w3.org/2000/svg">
<path d="M84 50C84.8333 53.8333 83.5 63.5 71.5 71.5" stroke="#5FD46E" stroke-width="5" stroke-linecap="square" stroke-linejoin="round"/>
<path d="M106.5 62L111 57" stroke="#EF5DA8" stroke-width="5" stroke-linecap="square" stroke-linejoin="round"/>
<path d="M26 66.5L32 70" stroke="#D0D0D0" stroke-width="5" stroke-linecap="square" stroke-linejoin="round"/>
<path d="M65.5 58L25 106L39 124.5L47 119.5L54.5 135L66.5 129.5L59.5 115L95.5 98L65.5 58Z" fill="#2093EE"/>
<path d="M60 83.5L46.5 99" stroke="white" stroke-width="5" stroke-linecap="square" stroke-linejoin="round"/>
<circle cx="96" cy="24" r="4" fill="#D9D9D9"/>
<circle cx="92" cy="74" r="4" fill="#D9D9D9"/>
<circle cx="123" cy="100" r="4" fill="#D9D9D9"/>
<path d="M103.5 89.501C106.833 84.1677 116.7 75.301 129.5 82.501" stroke="#FB761C" stroke-width="5" stroke-linecap="square" stroke-linejoin="round"/>
<path d="M51 31L54 26L57 31L63 35L57.5 38.5L54 44L51 39L45 35L51 31Z" fill="#FB761C"/>
<path d="M107.135 113.828L108.861 108.258L112.963 112.402L119.742 114.862L115.231 119.569L113.138 125.743L109.036 121.599L102.257 119.139L107.135 113.828Z" fill="#EF5DA8"/>
</svg>
