<svg xmlns="http://www.w3.org/2000/svg" width="7" height="6.997" viewBox="0 0 7 6.997">
  <path id="합치기_2" data-name="합치기 2" d="M2.747,6.244V5.321L2.1,5.974A.755.755,0,1,1,1.027,4.906l.65-.651H.755a.756.756,0,0,1,0-1.512h.923l-.65-.65A.756.756,0,0,1,2.1,1.024l.652.653V.755a.754.754,0,1,1,1.507,0v.92l.652-.651A.756.756,0,0,1,5.976,2.092l-.652.651h.921a.756.756,0,0,1,0,1.512H5.324l.65.651a.761.761,0,0,1,0,1.068.757.757,0,0,1-1.068,0l-.653-.653v.922a.754.754,0,0,1-1.507,0Z" fill="#ffc333"/>
</svg>
