<svg xmlns="http://www.w3.org/2000/svg" xmlns:xlink="http://www.w3.org/1999/xlink" width="80" height="80" viewBox="0 0 80 80">
  <defs>
    <clipPath id="clip-path">
      <rect id="사각형_1717" data-name="사각형 1717" width="29" height="29" transform="translate(690.285 242)" fill="#eaeaea" stroke="#707070" stroke-width="1"/>
    </clipPath>
  </defs>
  <g id="Img" transform="translate(-504 -480)">
    <path id="패스_7075" data-name="패스 7075" d="M1564.427,3635.747l5.573-3.213,7.56,4.347Zm-2.32-.213L1570,3631l10.707,6.16,12.32,1.08,3.853,8.227,7.893,4.533v12.32l5.227,11.16-5.227,7.44V3691l-10.707,6.16-7.094,10.093-9.08-.787L1570,3711l-10.707-6.16-12.32-1.08-3.853-8.227-7.893-4.533v-12.32L1530,3667.52l5.227-7.44V3651l10.707-6.16,7.094-10.093Zm-13.427,7.733,5-7.12,6.413.546Zm-1.813,2.573,15.547-8.933,17.88,1.56,15.56,8.947,7.586,16.2v17.88l-10.307,14.667-15.547,8.933-17.88-1.56-15.56-8.947-7.587-16.2v-17.88Zm-2.747,1.587-7.56,4.347v6.413Zm-8.893,14.973-3.693,5.253,3.693,7.88Zm1.333,19.133v8.693l5.573,3.213Zm8.573,15.16,2.72,5.813,8.693.76Zm17.307,8.427,7.56,4.347,5.573-3.213Zm17.467.187,6.413.546,5-7.12Zm15.973-10.733,7.56-4.347v-6.413Zm8.893-14.973,3.693-5.253-3.693-7.88Zm-1.333-19.133v-8.693l-5.573-3.213Zm-8.573-15.16-2.72-5.813-8.693-.76Z" transform="translate(-1026 -3151)" fill="#eaeaea" fill-rule="evenodd"/>
    <g id="마스크_그룹_1184" data-name="마스크 그룹 1184" transform="translate(-160.285 264)" clip-path="url(#clip-path)">
      <path id="패스_7092" data-name="패스 7092" d="M-20071.656,17572l6.816,9.32,13.371-19.219" transform="translate(20766.232 -17315.521)" fill="none" stroke="#1a95ce" stroke-width="4"/>
    </g>
  </g>
</svg>
