<svg width="96" height="96" viewBox="0 0 96 96" fill="none" xmlns="http://www.w3.org/2000/svg">
<g id="Layer_1">
<g id="Group 9605">
<path id="Vector" d="M76.1346 69.2166H20.3889V30.4258H76.142V69.2166H76.1346ZM21.9987 67.5994H74.5174V32.043H21.9987V67.5994Z" fill="black"/>
<path id="Vector_2" d="M75.3298 60.4863H21.1938V62.1035H75.3298V60.4863Z" fill="black"/>
<path id="Vector_3" d="M55.0369 77.5393H41.4863V71.6465H43.1035V75.9221H53.4197V71.6465H55.0369V77.5393Z" fill="black"/>
<path id="Vector_4" d="M59.1726 75.918H37.3513V77.5352H59.1726V75.918Z" fill="black"/>
<path id="Vector_5" d="M30.875 54.3066H26.8357V58.346H30.875V54.3066Z" fill="#1CB0D4"/>
<path id="Vector_6" d="M38.6363 50.8613H34.5969V58.3345H38.6363V50.8613Z" fill="#1CB0D4"/>
<path id="Vector_7" d="M46.3972 53.0371H42.3579V58.3392H46.3972V53.0371Z" fill="#1CB0D4"/>
<path id="Vector_8" d="M54.1658 54.3066H50.1265V58.346H54.1658V54.3066Z" fill="#1CB0D4"/>
<path id="Vector_9" d="M62 45H58V58H62V45Z" fill="#1CB0D4"/>
<path id="Vector_10" d="M70 41H66V58H70V41Z" fill="#1CB0D4"/>
<path id="Vector_11" d="M28.6522 51.0237H24.9895V49.4139H28.0836L32.8762 45.5517H46.2791L58.6186 35.0879H71.5341V36.7051H59.2167L46.8698 47.1616H33.4448L28.6522 51.0237Z" fill="black"/>
<path id="Vector_12" d="M80.8312 25.587H15.6924L17.7822 18.4609H78.7414L80.8312 25.587ZM17.8487 23.9698H78.6749L77.5303 20.0781H18.9933L17.8487 23.9698Z" fill="black"/>
<path id="Vector_13" d="M65.2129 25.587H31.3105V18.4609H65.2129V25.587ZM32.9278 23.9698H63.603V20.0781H32.9278V23.9772V23.9698Z" fill="black"/>
<path id="Vector_14" d="M49.0703 19.2656H47.4531V24.6932H49.0703V19.2656Z" fill="black"/>
</g>
</g>
</svg>
