<svg width="60" height="60" viewBox="0 0 60 60" fill="none" xmlns="http://www.w3.org/2000/svg">
<path d="M27.3598 43.2318L16.128 52.5916L7.40841 42.128L18.6402 32.7682L18.891 32.5592L18.9701 32.2425L23.4828 14.1917L45.989 42.0993L27.9501 43.0012L27.6164 43.0179L27.3598 43.2318Z" stroke="black" stroke-width="2"/>
<path d="M16.5 35L25 45" stroke="black" stroke-width="2"/>
<path d="M12.5 38L21 48" stroke="black" stroke-width="2"/>
<path d="M38.173 33.6199C39.6635 32.513 40.6532 30.8594 40.9244 29.0228C41.1957 27.1862 40.7263 25.3171 39.6194 23.8266C38.5126 22.3362 36.859 21.3464 35.0224 21.0752C33.1858 20.8039 31.3166 21.2733 29.8262 22.3802" stroke="black" stroke-width="2"/>
<path d="M43 20L49.5 14" stroke="black" stroke-width="2" stroke-linecap="round"/>
<path d="M38.5 16.5L40.5 10M46 25L52.5 24.5" stroke="black" stroke-width="2" stroke-linecap="round"/>
</svg>
