<svg xmlns="http://www.w3.org/2000/svg" width="12" height="12" viewBox="0 0 12 12">
    <g transform="translate(0 -71)">
        <circle data-name="타원 112" cx="6" cy="6" r="6" transform="translate(0 71)" style="fill:#ff6363"/>
        <path data-name="패스 7124" d="M.93-8.4h1.28L2-2.972h-.866zm.646 8a.734.734 0 0 1-.533-.21.691.691 0 0 1-.215-.516.691.691 0 0 1 .215-.516.734.734 0 0 1 .533-.21.7.7 0 0 1 .521.21.711.711 0 0 1 .2.516.7.7 0 0 1-.21.516.7.7 0 0 1-.511.21z" transform="translate(4.434 81.4)" style="fill:#fff"/>
    </g>
</svg>
