<svg width="104" height="104" viewBox="0 0 104 104" fill="none" xmlns="http://www.w3.org/2000/svg">
<g id="Layer_1">
<g id="Group 9608">
<path id="Vector" d="M77.9075 75.0333H33.3782L28.2676 47.8652H83.0075L77.8968 75.0333H77.9075ZM34.9719 73.1208H76.3137L80.7018 49.7884H30.5838L34.9719 73.1208Z" fill="#000333"/>
<path id="Vector_2" d="M44.6832 85.9999C42.2394 85.9999 40.2526 84.013 40.2526 81.5693C40.2526 79.1255 42.2394 77.1387 44.6832 77.1387C47.1269 77.1387 49.1138 79.1255 49.1138 81.5693C49.1138 84.013 47.1269 85.9999 44.6832 85.9999ZM44.6832 79.0512C43.2913 79.0512 42.1651 80.1774 42.1651 81.5693C42.1651 82.9612 43.2913 84.0874 44.6832 84.0874C46.075 84.0874 47.2013 82.9612 47.2013 81.5693C47.2013 80.1774 46.075 79.0512 44.6832 79.0512Z" fill="#000333"/>
<path id="Vector_3" d="M66.613 85.9999C64.1692 85.9999 62.1824 84.013 62.1824 81.5693C62.1824 79.1255 64.1692 77.1387 66.613 77.1387C69.0567 77.1387 71.0436 79.1255 71.0436 81.5693C71.0436 84.013 69.0567 85.9999 66.613 85.9999ZM66.613 79.0512C65.2211 79.0512 64.0949 80.1774 64.0949 81.5693C64.0949 82.9612 65.2211 84.0874 66.613 84.0874C68.0049 84.0874 69.1311 82.9612 69.1311 81.5693C69.1311 80.1774 68.0049 79.0512 66.613 79.0512Z" fill="#000333"/>
<path id="Vector_4" d="M43.1318 33.1818C39.1049 33.1818 35.8324 29.9093 35.8324 25.8825C35.8324 21.8556 39.1049 18.5938 43.1318 18.5938C47.1586 18.5938 50.4311 21.8662 50.4311 25.8931C50.4311 29.92 47.1586 33.1925 43.1318 33.1925V33.1818ZM43.1318 20.5062C40.1674 20.5062 37.7555 22.9181 37.7555 25.8825C37.7555 28.8469 40.1674 31.2587 43.1318 31.2587C46.0961 31.2587 48.508 28.8469 48.508 25.8825C48.508 22.9181 46.0961 20.5062 43.1318 20.5062Z" fill="#000333"/>
<path id="Vector_5" d="M28.4906 49.0264L26.8969 41.557H21V39.6445H28.4481L30.3712 48.6226L28.4906 49.0264Z" fill="#000333"/>
<path id="Vector_6" d="M57.4117 30.0697H48.6143V28.1573H55.4992V23.6204H48.6143V21.6973H57.4117V30.0697Z" fill="#000333"/>
<path id="Vector_7" d="M61.3962 31.6015H58.1025C56.7 31.6015 55.5631 30.4647 55.5631 29.0622V22.7191C55.5631 21.3166 56.7 20.1797 58.1025 20.1797H61.3962C62.7987 20.1797 63.9356 21.3166 63.9356 22.7191V29.0622C63.9356 30.4647 62.7987 31.6015 61.3962 31.6015ZM58.1025 22.0922C57.7625 22.0922 57.4756 22.3684 57.4756 22.7191V29.0622C57.4756 29.4022 57.7519 29.689 58.1025 29.689H61.3962C61.7362 29.689 62.0231 29.4128 62.0231 29.0622V22.7191C62.0231 22.3791 61.7468 22.0922 61.3962 22.0922H58.1025Z" fill="#000333"/>
<path id="Vector_8" d="M73.4449 23.9606L66.5068 20.4012L63.7125 23.7269L62.2462 22.4944L66.0181 18L74.3268 22.2606L73.4449 23.9606Z" fill="#000333"/>
<path id="Vector_9" d="M66.0181 33.777L62.2462 29.2827L63.7125 28.0502L66.5068 31.3758L73.4449 27.8164L74.3268 29.5164L66.0181 33.777Z" fill="#000333"/>
<path id="Vector_10" d="M43.1319 28.8812C44.7866 28.8812 46.1281 27.5397 46.1281 25.8849C46.1281 24.2301 44.7866 22.8887 43.1319 22.8887C41.4771 22.8887 40.1356 24.2301 40.1356 25.8849C40.1356 27.5397 41.4771 28.8812 43.1319 28.8812Z" fill="#1CB0D4"/>
<path id="Vector_11" d="M43.1319 29.8347C40.9538 29.8347 39.1794 28.0603 39.1794 25.8822C39.1794 23.7041 40.9538 21.9297 43.1319 21.9297C45.3101 21.9297 47.0844 23.7041 47.0844 25.8822C47.0844 28.0603 45.3101 29.8347 43.1319 29.8347ZM43.1319 23.8528C42.0057 23.8528 41.1026 24.7666 41.1026 25.8822C41.1026 26.9978 42.0163 27.9115 43.1319 27.9115C44.2476 27.9115 45.1613 26.9978 45.1613 25.8822C45.1613 24.7666 44.2476 23.8528 43.1319 23.8528Z" fill="#1CB0D4"/>
<path id="Vector_12" d="M56.5936 56.5488H54.6812V65.6119H56.5936V56.5488Z" fill="#000333"/>
<path id="Vector_13" d="M43.3656 56.5488H41.4531V65.6119H43.3656V56.5488Z" fill="#000333"/>
<path id="Vector_14" d="M69.8323 56.5488H67.9198V65.6119H69.8323V56.5488Z" fill="#000333"/>
<path id="Vector_15" d="M60.206 44.9115L49.0179 29.1016L47.4454 30.2066L57.8579 44.9115H60.206Z" fill="#000333"/>
<path id="Vector_16" d="M47.0526 44.913L40.3376 30.6543L38.6057 31.4724L44.9382 44.913H47.0526Z" fill="#000333"/>
</g>
</g>
</svg>
