<svg xmlns="http://www.w3.org/2000/svg" xmlns:xlink="http://www.w3.org/1999/xlink" width="16" height="16" viewBox="0 0 16 16">
  <defs>
    <clipPath id="clip-path">
      <rect id="사각형_1436" data-name="사각형 1436" width="16" height="16" transform="translate(753 1563)" fill="#fff" opacity="0"/>
    </clipPath>
  </defs>
  <g id="delete_ic_s" transform="translate(-753 -1563)">
    <g id="마스크_그룹_1" data-name="마스크 그룹 1" clip-path="url(#clip-path)">
      <path id="합치기_3" data-name="합치기 3" d="M11.744,12.785,6.5,7.543,1.259,12.785A.742.742,0,0,1,.737,13a.736.736,0,0,1-.519-1.259L5.459,6.5.218,1.259a.733.733,0,0,1,0-1.044A.722.722,0,0,1,.737,0a.73.73,0,0,1,.522.215L6.5,5.457,11.744.215A.722.722,0,0,1,12.263,0a.739.739,0,0,1,.523,1.259L7.544,6.5l5.242,5.241a.743.743,0,0,1,0,1.044.746.746,0,0,1-.523.215A.733.733,0,0,1,11.744,12.785Z" transform="translate(754.5 1564.5)" fill="#999"/>
    </g>
  </g>
</svg>
