<svg width="24" height="24" viewBox="0 0 24 24" fill="none" xmlns="http://www.w3.org/2000/svg">
<path fill-rule="evenodd" clip-rule="evenodd" d="M20 4V16H4V4H20ZM22 2H2V18H22V2ZM8.10957 5C7.49931 5 7 5.52863 7 6.17474V13.8253C7 14.4714 7.49931 15 8.10957 15H15.8904C16.5007 15 17 14.4714 17 13.8253V6.17474C17 5.52863 16.5007 5 15.8904 5H8.10957ZM8.66436 11.1821C8.66436 11.5051 8.91401 11.7695 9.21914 11.7695H14.7809C15.086 11.7695 15.3356 11.5051 15.3356 11.1821C15.3356 10.859 15.086 10.5947 14.7809 10.5947H9.21914C8.91401 10.5947 8.66436 10.859 8.66436 11.1821ZM10.8835 8.68576C10.8835 9.09692 10.5784 9.41997 10.19 9.41997C9.80166 9.41997 9.49653 9.09692 9.49653 8.68576C9.49653 8.2746 9.80166 7.95154 10.19 7.95154C10.5784 7.95154 10.8835 8.2746 10.8835 8.68576ZM13.7961 9.41997C14.1845 9.41997 14.4896 9.09692 14.4896 8.68576C14.4896 8.2746 14.1845 7.95154 13.7961 7.95154C13.4078 7.95154 13.1026 8.2746 13.1026 8.68576C13.1026 9.09692 13.4078 9.41997 13.7961 9.41997ZM4 20H20V22H4V20Z" fill="black"/>
</svg>
