<svg xmlns="http://www.w3.org/2000/svg" width="20" height="20" viewBox="0 0 20 20">
  <path id="패스_7055" data-name="패스 7055" d="M1879.33,401.249l.67-.384.9.521Zm-1.3-.114L1880,400l2.68,1.54,3.08.269.96,2.056,1.97,1.135v3.08l1.31,2.792-1.31,1.859V415l-2.67,1.54-1.78,2.523-2.27-.2L1880,420l-2.68-1.54-3.08-.268-.96-2.057L1871.31,415v-3.08l-1.31-2.792,1.31-1.858V405l2.67-1.54,1.78-2.523Zm-2.5,1.439.59-.853.77.067Zm-1.03,1.452,3.7-2.124,4.25.37,3.69,2.126,1.8,3.849v4.245l-2.44,3.482-3.7,2.125-4.25-.371-3.69-2.125-1.8-3.85v-4.245Zm-1.54.886-.9.522v.769Zm-1.65,3.663-.45.63.45.946Zm.75,4.947v1.044l.67.385Zm2.35,3.264.33.7,1.04.091Zm4.69,1.829.9.52.67-.384Zm4.01-.4.77.067.6-.853Zm3.93-3.124.9-.522V413.8Zm1.65-3.663.45-.63-.45-.946Zm-.75-4.947v-1.044l-.67-.385Zm-2.35-3.264-.33-.7-1.04-.091Z" transform="translate(-1870 -400)" fill="#1a95ce" fill-rule="evenodd"/>
</svg>
