<svg xmlns="http://www.w3.org/2000/svg" xmlns:xlink="http://www.w3.org/1999/xlink" width="80" height="80" viewBox="0 0 80 80">
  <defs>
    <clipPath id="clip-path">
      <rect id="사각형_1736" data-name="사각형 1736" width="80" height="80" transform="translate(1055 324)" fill="#fff" stroke="#707070" stroke-width="1"/>
    </clipPath>
  </defs>
  <g id="Img" transform="translate(-1055 -324)" clip-path="url(#clip-path)">
    <g id="그룹_10620" data-name="그룹 10620" transform="translate(1060 329)">
      <path id="패스_7118" data-name="패스 7118" d="M.65,28.15V69.012H69.26V28.15L34.955,1.584Z" fill="#eaeaea"/>
      <path id="패스_7119" data-name="패스 7119" d="M1.3,28.468,34.955,2.406,68.61,28.468V68.362H1.3ZM0,27.831v41.83H69.91V27.831L34.955.762Z" fill="#eaeaea"/>
      <rect id="사각형_1733" data-name="사각형 1733" width="60" height="48.405" transform="translate(4.954 0.649)" fill="#fff"/>
      <path id="패스_7120" data-name="패스 7120" d="M5.605,1.3h58.7V48.4H5.605ZM4.3,49.7h61.3V0H4.3Z" fill="#eaeaea"/>
      <path id="패스_7121" data-name="패스 7121" d="M34.955,49.054.65,29.075V69.033H69.259V29.075Z" fill="#fff"/>
      <path id="패스_7122" data-name="패스 7122" d="M68.61,30.207V68.384H1.3V30.207l33.655,19.6ZM34.955,48.3,0,27.945V69.683H69.91V27.945Z" fill="#eaeaea"/>
      <rect id="사각형_1734" data-name="사각형 1734" width="58.696" height="3" transform="translate(5.607 1.302)" fill="#1a95ce"/>
      <rect id="사각형_1735" data-name="사각형 1735" width="1.3" height="79.616" transform="matrix(0.502, -0.865, 0.865, 0.502, 0.324, 29.638)" fill="#eaeaea"/>
      <path id="패스_7123" data-name="패스 7123" d="M29.639,31.2l-6.506-8.9,2.479-1.813,3.965,5.42,9.04-12.994,2.522,1.754Z" transform="translate(2.718 2.76)" fill="#1a95ce"/>
    </g>
  </g>
</svg>
