<svg width="154" height="154" viewBox="0 0 154 154" fill="none" xmlns="http://www.w3.org/2000/svg">
<g id="Layer_1">
<g id="Group 9600">
<path id="Vector" d="M119.83 62.4L78.5 33L37.18 62.4H37V116.65H120.01V62.4H119.83Z" fill="#035C77"/>
<path id="Vector_2" d="M108.62 43.8789H48.4004V116.659H108.62V43.8789Z" fill="#F4FDFF"/>
<path id="Vector_3" opacity="0.1" d="M72.4002 54.9688H58.2002V58.9688H72.4002V54.9688Z" fill="#1CB0D4"/>
<path id="Vector_4" opacity="0.1" d="M99.6802 64.9688H58.2002V68.9688H99.6802V64.9688Z" fill="#1CB0D4"/>
<path id="Vector_5" opacity="0.1" d="M86.2102 74.9688H71.6602V78.9688H86.2102V74.9688Z" fill="#1CB0D4"/>
<path id="Vector_6" d="M37 62.3984L120.01 116.648H37" fill="url(#paint0_linear_529_38024)"/>
<path id="Vector_7" d="M37 116.648H120.01V62.3984L37 116.648Z" fill="#2093EE"/>
<g id="Vector_8" filter="url(#filter0_d_529_38024)">
<path d="M120.01 121.32C129.167 121.32 136.59 113.897 136.59 104.74C136.59 95.5833 129.167 88.1602 120.01 88.1602C110.853 88.1602 103.43 95.5833 103.43 104.74C103.43 113.897 110.853 121.32 120.01 121.32Z" fill="#035C77"/>
</g>
<path id="Vector (Stroke)" fill-rule="evenodd" clip-rule="evenodd" d="M128.174 98.8241C128.955 99.6051 128.955 100.871 128.174 101.652L119.174 110.652C118.393 111.434 117.127 111.434 116.346 110.652L111.846 106.152C111.065 105.371 111.065 104.105 111.846 103.324C112.627 102.543 113.893 102.543 114.674 103.324L117.76 106.41L125.346 98.8241C126.127 98.043 127.393 98.043 128.174 98.8241Z" fill="white"/>
</g>
</g>
<defs>
<filter id="filter0_d_529_38024" x="95.4297" y="86.1602" width="41.1602" height="41.1602" filterUnits="userSpaceOnUse" color-interpolation-filters="sRGB">
<feFlood flood-opacity="0" result="BackgroundImageFix"/>
<feColorMatrix in="SourceAlpha" type="matrix" values="0 0 0 0 0 0 0 0 0 0 0 0 0 0 0 0 0 0 127 0" result="hardAlpha"/>
<feOffset dx="-4" dy="2"/>
<feGaussianBlur stdDeviation="2"/>
<feComposite in2="hardAlpha" operator="out"/>
<feColorMatrix type="matrix" values="0 0 0 0 0 0 0 0 0 0 0 0 0 0 0 0 0 0 0.05 0"/>
<feBlend mode="normal" in2="BackgroundImageFix" result="effect1_dropShadow_529_38024"/>
<feBlend mode="normal" in="SourceGraphic" in2="effect1_dropShadow_529_38024" result="shape"/>
</filter>
<linearGradient id="paint0_linear_529_38024" x1="78.505" y1="62.3984" x2="78.505" y2="106.5" gradientUnits="userSpaceOnUse">
<stop offset="0.50937" stop-color="#EAF3F4"/>
<stop offset="1" stop-color="#DCE9EB"/>
</linearGradient>
</defs>
</svg>
