<svg width="154" height="154" viewBox="0 0 154 154" fill="none" xmlns="http://www.w3.org/2000/svg">
<g id="Layer_1">
<g id="Group 9600">
<path id="Vector" d="M119.83 62.4L78.5 33L37.18 62.4H37V116.65H120.01V62.4H119.83Z" fill="#035C77"/>
<path id="Vector_2" d="M108.62 43.8789H48.4004V116.659H108.62V43.8789Z" fill="#F4FDFF"/>
<path id="Vector_3" opacity="0.1" d="M72.4002 54.9688H58.2002V58.9688H72.4002V54.9688Z" fill="#1CB0D4"/>
<path id="Vector_4" opacity="0.1" d="M99.6802 64.9688H58.2002V68.9688H99.6802V64.9688Z" fill="#1CB0D4"/>
<path id="Vector_5" opacity="0.1" d="M86.2102 74.9688H71.6602V78.9688H86.2102V74.9688Z" fill="#1CB0D4"/>
<path id="Vector_6" d="M37 62.3984L120.01 116.648H37" fill="url(#paint0_linear_529_38045)"/>
<path id="Vector_7" d="M37 116.648H120.01V62.3984L37 116.648Z" fill="#2093EE"/>
<g id="Vector_8" filter="url(#filter0_d_529_38045)">
<path d="M119.58 121.16C128.737 121.16 136.16 113.737 136.16 104.58C136.16 95.4231 128.737 88 119.58 88C110.423 88 103 95.4231 103 104.58C103 113.737 110.423 121.16 119.58 121.16Z" fill="#FB761C"/>
</g>
<path id="Vector_9" d="M122.409 104.575L125.499 101.485C126.279 100.705 126.279 99.4353 125.499 98.6553C124.719 97.8753 123.449 97.8753 122.669 98.6553L119.579 101.745L116.489 98.6653C115.709 97.8753 114.449 97.8753 113.669 98.6653C112.889 99.4553 112.879 100.705 113.669 101.485L116.759 104.575L113.669 107.665C112.889 108.445 112.889 109.715 113.669 110.495C114.059 110.885 114.569 111.085 115.079 111.085C115.589 111.085 116.099 110.885 116.489 110.495L119.579 107.405L122.669 110.495C123.059 110.885 123.569 111.085 124.079 111.085C124.589 111.085 125.099 110.885 125.489 110.495C126.269 109.715 126.269 108.445 125.489 107.665L122.399 104.575H122.409Z" fill="white"/>
</g>
</g>
<defs>
<filter id="filter0_d_529_38045" x="95" y="86" width="41.1602" height="41.1602" filterUnits="userSpaceOnUse" color-interpolation-filters="sRGB">
<feFlood flood-opacity="0" result="BackgroundImageFix"/>
<feColorMatrix in="SourceAlpha" type="matrix" values="0 0 0 0 0 0 0 0 0 0 0 0 0 0 0 0 0 0 127 0" result="hardAlpha"/>
<feOffset dx="-4" dy="2"/>
<feGaussianBlur stdDeviation="2"/>
<feComposite in2="hardAlpha" operator="out"/>
<feColorMatrix type="matrix" values="0 0 0 0 0 0 0 0 0 0 0 0 0 0 0 0 0 0 0.05 0"/>
<feBlend mode="normal" in2="BackgroundImageFix" result="effect1_dropShadow_529_38045"/>
<feBlend mode="normal" in="SourceGraphic" in2="effect1_dropShadow_529_38045" result="shape"/>
</filter>
<linearGradient id="paint0_linear_529_38045" x1="78.505" y1="62.3984" x2="78.505" y2="106.5" gradientUnits="userSpaceOnUse">
<stop offset="0.50937" stop-color="#EAF3F4"/>
<stop offset="1" stop-color="#DCE9EB"/>
</linearGradient>
</defs>
</svg>
