<svg width="247" height="28" viewBox="0 0 247 28" fill="none" xmlns="http://www.w3.org/2000/svg">
<path d="M116.979 19.0047V21.2518H99.6082V19.0047H106.898V16.152H101.606V9.65425H112.309V7.59398H101.584V5.40918H115.015V11.8051H104.329V13.9503H115.451V16.1577H109.638V19.0104H116.968L116.979 19.0047Z" fill="#CCCCCC"/>
<path d="M135.499 13.503V15.6708H118.151V13.503H125.441V11.9805H120.358V4.71289H123.086V6.33734H130.563V4.71289H133.291V11.9805H128.192V13.503H135.505H135.499ZM128.209 16.9613C128.209 18.8122 130.105 20.7083 134.31 21.1894L133.371 23.295C130.207 22.8762 127.977 21.6932 126.811 20.0461C125.645 21.6932 123.415 22.8762 120.251 23.295L119.311 21.1894C123.539 20.7083 125.39 18.8179 125.39 16.9613V16.65H128.203V16.9613H128.209ZM123.086 9.84094H130.563V8.40328H123.086V9.84094Z" fill="#CCCCCC"/>
<path d="M140.519 16.6725C143.434 16.6498 145.851 16.5083 148.557 16.0499L148.845 18.28C145.721 18.8233 142.908 18.9478 139.433 18.9478H137.706V11.052H143.932V7.98989H137.684V5.80509H146.745V13.2198H140.519V16.6781V16.6725ZM152.643 4.158V23.4023H149.892V4.15234H152.643V4.158Z" fill="#CCCCCC"/>
<path d="M164.45 16.4797C165.22 16.44 165.99 16.3551 166.72 16.2702L166.884 18.2683C163.052 18.9361 158.7 19.0154 155.428 19.0154L155.134 16.7853H157.239V8.04045H155.655V5.85565H166.233V8.04045H164.445V16.474L164.45 16.4797ZM159.911 16.7287C160.539 16.7061 161.162 16.6891 161.807 16.6438V8.04045H159.911V16.723V16.7287ZM171.327 4.16895V23.3737H168.577V13.3553H165.724V11.1252H168.577V4.16895H171.327Z" fill="#CCCCCC"/>
<path d="M191.132 18.8344V21.0814H173.761V18.8344H191.132ZM178.323 5.41992V8.52166H186.53V5.41992H189.236V15.6477H175.595V5.41992H178.323ZM178.323 13.4573H186.53V10.6668H178.323V13.4573Z" fill="#CCCCCC"/>
<path d="M209.629 12.2127V14.3805H192.304V12.2127H209.629ZM196.26 6.73373H193.826V4.69043H208.095V6.73373H205.656V9.19021H207.948V11.2335H193.951V9.19021H196.26V6.73373ZM197.03 21.2292H208.027V23.2103H194.302V18.3596H204.818V17.42H194.279V15.439H207.524V20.1878H197.03V21.2292ZM202.922 6.73373H198.988V9.19021H202.922V6.73373Z" fill="#CCCCCC"/>
<path d="M219.817 14.8611C217.649 15.2969 215.799 15.3592 212.946 15.3592H211.616V9.3821H216.217V7.65577H211.593V5.51059H218.861V11.3858H214.259V13.197C216.302 13.1574 217.842 13.0498 219.568 12.7159L219.817 14.8611ZM221.962 16.5874C221.962 18.5684 223.921 20.6514 228.064 21.1721L226.983 23.2946C223.943 22.8588 221.736 21.5853 220.587 19.8137C219.398 21.5853 217.214 22.8531 214.174 23.2946L213.11 21.1721C217.236 20.6514 219.212 18.5684 219.212 16.5874V16.2535H221.962V16.5874ZM223.044 15.4837H220.48V4.50875H223.044V8.82175H224.583V4.1748H227.187V17.0685H224.583V11.0065H223.044V15.4837Z" fill="#CCCCCC"/>
<path d="M246.703 13.463V15.6308H229.377V13.463H236.645V11.9631H231.019V9.77828H233.328V6.88597H230.894V4.70117H245.163V6.88597H242.724V9.77828H244.994V11.9631H239.39V13.463H246.703ZM231.392 16.876H244.637V23.1248H231.392V16.876ZM234.081 20.9796H241.931V19.0439H234.081V20.9796ZM236.062 9.77262H239.996V6.88031H236.062V9.77262Z" fill="#CCCCCC"/>
<path d="M74.5664 15.2766C74.2711 15.2766 74.0452 15.0102 74.0973 14.7149L75.6667 5.87766C75.7073 5.65181 75.9042 5.48386 76.1358 5.48386H90.2545C90.741 5.48386 91.1521 5.1364 91.239 4.66153L91.8355 1.31427C91.9455 0.700409 91.4706 0.138672 90.851 0.138672H71.6651C71.1786 0.138672 70.7674 0.486138 70.6806 0.961009L67.397 19.4462C67.287 20.0601 67.7619 20.6218 68.3815 20.6218H87.5674C88.0539 20.6218 88.4651 20.2743 88.5519 19.7995L89.1484 16.4522C89.2584 15.8384 88.7836 15.2766 88.1639 15.2766H74.5722H74.5664Z" fill="#CCCCCC"/>
<path d="M63.9685 14.5879C65.8101 13.6902 67.2753 11.9529 67.6401 9.9434L68.474 5.3163C69.001 2.38021 67.0147 0.00585938 64.0322 0.00585938H49.3518C48.7032 0.00585938 48.0835 0.527059 47.9735 1.15829L44.6378 19.603C44.5278 20.24 44.9563 20.7554 45.6049 20.7554H49.5197C50.1625 20.7554 50.7764 20.2458 50.898 19.6145C50.9617 19.4929 51.0138 19.3655 51.037 19.2323L51.7146 15.4797C51.7377 15.3581 51.8593 15.2538 51.9867 15.2538H56.6312C56.8571 15.2538 57.054 15.3639 57.1466 15.5492L59.104 19.435L59.4978 20.2052C59.7526 20.7091 60.2159 20.7728 61.6058 20.7496C62.4223 20.7612 63.6616 20.6975 65.6595 20.6975C66.3024 20.6975 66.7019 20.0257 66.3834 19.464L63.8296 14.9122C63.7716 14.8021 63.8353 14.6516 63.9685 14.5879ZM62.1038 6.09231L61.5536 9.13843C61.4494 9.68859 60.9108 10.1403 60.3491 10.1403H52.8438C52.7164 10.1403 52.6353 10.0418 52.6527 9.91444L53.4866 5.31051C53.5098 5.1889 53.6314 5.08466 53.753 5.08466H61.2641C61.8316 5.08466 62.208 5.53637 62.1096 6.09231H62.1038Z" fill="#CCCCCC"/>
<path d="M23.8478 0.747053C24.1547 0.451706 24.0215 0 23.6335 0H17.6513C17.3097 0 16.9622 0.150569 16.7016 0.399586L8.48401 8.32182C8.08442 8.61138 8.1655 8.13071 8.1655 8.13071L9.42796 1.15243C9.54378 0.532782 9.12103 0.0231644 8.48401 0.0231644H4.64451C4.00748 0.0231644 3.39942 0.532782 3.28939 1.15243L0.0174109 19.2381C-0.0926202 19.8635 0.330131 20.3673 0.967152 20.3673H4.80666C5.43789 20.3673 6.04595 19.8635 6.16177 19.2381L6.45133 17.6108C6.48029 17.4486 6.56715 17.2922 6.69456 17.1706L9.44533 14.5415L13.1227 19.9851C13.2964 20.2399 13.5918 20.3847 13.9276 20.3847H19.9099C20.3037 20.3847 20.5932 19.9388 20.3963 19.6434L14.1188 10.3603C14.0608 10.2792 14.084 10.1518 14.1709 10.0707L23.8478 0.741262V0.747053Z" fill="#CCCCCC"/>
<path d="M41.3196 14.5879C43.1612 13.6902 44.6263 11.9529 44.9912 9.9434L45.8251 5.3163C46.3521 2.38021 44.3657 0.00585938 41.3833 0.00585938H26.7029C26.0543 0.00585938 25.4346 0.527059 25.3246 1.15829L21.9889 19.603C21.8789 20.24 22.3074 20.7554 22.956 20.7554H26.8708C27.5136 20.7554 28.1275 20.2458 28.2491 19.6145C28.3128 19.4929 28.3649 19.3655 28.3881 19.2323L29.0656 15.4797C29.0888 15.3581 29.2104 15.2538 29.3378 15.2538H33.9823C34.2081 15.2538 34.405 15.3639 34.4977 15.5492L36.4551 19.435L36.8489 20.2052C37.1037 20.7091 37.567 20.7728 38.9568 20.7496C39.7734 20.7612 41.0127 20.6975 43.0106 20.6975C43.6534 20.6975 44.053 20.0257 43.7345 19.464L41.1806 14.9122C41.1227 14.8021 41.1864 14.6516 41.3196 14.5879ZM39.4549 6.09231L38.9047 9.13843C38.8005 9.68859 38.2619 10.1403 37.7002 10.1403H30.1949C30.0675 10.1403 29.9864 10.0418 30.0038 9.91444L30.8377 5.31051C30.8609 5.1889 30.9825 5.08466 31.1041 5.08466H38.6152C39.1827 5.08466 39.5591 5.53637 39.4607 6.09231H39.4549Z" fill="#CCCCCC"/>
<path d="M0.179565 23.5234H0.874498V25.5967H0.891872L2.55971 23.5234H3.32993L1.96902 25.2202L3.55578 27.9189H2.78556L1.54627 25.7704L0.874498 26.5927V27.9189H0.179565V23.5292V23.5234Z" fill="#CCCCCC"/>
<path d="M3.42261 26.2794C3.42261 25.1791 4.15808 24.5479 4.96883 24.5479C5.77959 24.5479 6.51506 25.1791 6.51506 26.2794C6.51506 27.3797 5.77959 27.9936 4.96883 27.9936C4.15808 27.9936 3.42261 27.3681 3.42261 26.2794ZM5.80854 26.2794C5.80854 25.5787 5.48424 25.1154 4.96883 25.1154C4.45342 25.1154 4.13491 25.5787 4.13491 26.2794C4.13491 26.9801 4.45922 27.4318 4.96883 27.4318C5.47845 27.4318 5.80854 26.9743 5.80854 26.2794Z" fill="#CCCCCC"/>
<path d="M6.96099 24.6348H7.52273L7.57485 25.2255H7.59222C7.82387 24.8027 8.17133 24.5537 8.52459 24.5537C8.68674 24.5537 8.79098 24.5769 8.89522 24.6232L8.76782 25.2197C8.65199 25.1849 8.57092 25.1676 8.43772 25.1676C8.17133 25.1676 7.84703 25.3529 7.63855 25.8741V27.9183H6.9552V24.6348H6.96099Z" fill="#CCCCCC"/>
<path d="M8.75037 26.2794C8.75037 25.2138 9.48005 24.5479 10.2503 24.5479C11.1189 24.5479 11.588 25.1733 11.588 26.1057C11.588 26.2389 11.5764 26.3721 11.5591 26.4531H9.42793C9.48005 27.0786 9.87384 27.455 10.4414 27.455C10.7309 27.455 10.9857 27.3681 11.2232 27.2118L11.4606 27.6461C11.1537 27.8488 10.783 27.9936 10.3487 27.9936C9.46267 27.9936 8.75037 27.3623 8.75037 26.2794ZM10.9915 25.9783C10.9915 25.4107 10.7367 25.0806 10.2561 25.0806C9.84489 25.0806 9.48005 25.3991 9.41634 25.9783H10.9915Z" fill="#CCCCCC"/>
<path d="M11.7156 27.0439C11.7156 26.3374 12.3121 25.9783 13.6788 25.8278C13.673 25.4455 13.534 25.1097 13.0533 25.1097C12.7059 25.1097 12.3873 25.266 12.1036 25.4455L11.8488 24.9823C12.1904 24.768 12.6479 24.5537 13.1749 24.5537C13.9915 24.5537 14.3679 25.0749 14.3679 25.9436V27.9183H13.8062L13.7483 27.5419H13.7309C13.4297 27.7967 13.0823 27.9936 12.6885 27.9936C12.121 27.9936 11.7214 27.623 11.7214 27.0439H11.7156ZM13.6788 27.0671V26.2621C12.7059 26.3837 12.3758 26.6269 12.3758 26.9976C12.3758 27.3219 12.5958 27.4493 12.8912 27.4493C13.1865 27.4493 13.4124 27.3103 13.6788 27.0671Z" fill="#CCCCCC"/>
<path d="M18.4216 27.9131L17.4255 26.141H16.7132V27.9131H16.0183V23.5234H17.4545C18.3637 23.5234 19.0413 23.8477 19.0413 24.7917C19.0413 25.4692 18.6764 25.8746 18.1205 26.0484L19.1918 27.9073H18.41L18.4216 27.9131ZM16.7132 25.5851H17.3734C18.0105 25.5851 18.3579 25.3245 18.3579 24.7917C18.3579 24.2589 18.0105 24.0736 17.3734 24.0736H16.7132V25.5851Z" fill="#CCCCCC"/>
<path d="M19.2148 26.2794C19.2148 25.1791 19.9503 24.5479 20.7611 24.5479C21.5718 24.5479 22.3073 25.1791 22.3073 26.2794C22.3073 27.3797 21.5718 27.9936 20.7611 27.9936C19.9503 27.9936 19.2148 27.3681 19.2148 26.2794ZM21.6008 26.2794C21.6008 25.5787 21.2765 25.1154 20.7611 25.1154C20.2457 25.1154 19.9271 25.5787 19.9271 26.2794C19.9271 26.9801 20.2515 27.4318 20.7611 27.4318C21.2707 27.4318 21.6008 26.9743 21.6008 26.2794Z" fill="#CCCCCC"/>
<path d="M23.3787 27.571H23.3613L23.2976 27.9127H22.759V23.1582H23.4424V24.4149L23.425 24.9766C23.703 24.7334 24.0562 24.5481 24.4037 24.5481C25.2318 24.5481 25.7067 25.2083 25.7067 26.2159C25.7067 27.3452 25.0349 27.988 24.2937 27.988C23.9925 27.988 23.6682 27.8374 23.3845 27.571H23.3787ZM24.9886 26.2275C24.9886 25.5441 24.7685 25.1156 24.2184 25.1156C23.9636 25.1156 23.7088 25.2488 23.4366 25.5152V27.1193C23.6856 27.3394 23.952 27.4205 24.1547 27.4205C24.6296 27.4205 24.9886 26.9977 24.9886 26.2275Z" fill="#CCCCCC"/>
<path d="M25.921 26.2794C25.921 25.1791 26.6565 24.5479 27.4672 24.5479C28.278 24.5479 29.0135 25.1791 29.0135 26.2794C29.0135 27.3797 28.278 27.9936 27.4672 27.9936C26.6565 27.9936 25.921 27.3681 25.921 26.2794ZM28.307 26.2794C28.307 25.5787 27.9827 25.1154 27.4672 25.1154C26.9518 25.1154 26.6333 25.5787 26.6333 26.2794C26.6333 26.9801 26.9576 27.4318 27.4672 27.4318C27.9769 27.4318 28.307 26.9743 28.307 26.2794Z" fill="#CCCCCC"/>
<path d="M29.4304 26.8412V25.1849H28.9556V24.6695L29.4652 24.6348L29.5405 23.7256H30.1196V24.6348H30.9709V25.1849H30.1196V26.847C30.1196 27.2408 30.2586 27.4435 30.5945 27.4435C30.7103 27.4435 30.8493 27.4087 30.9477 27.3682L31.0751 27.8778C30.8898 27.9357 30.6697 27.9994 30.4323 27.9994C29.691 27.9994 29.4362 27.5419 29.4362 26.847L29.4304 26.8412Z" fill="#CCCCCC"/>
<path d="M34.7699 27.9131L33.7738 26.141H33.0615V27.9131H32.3666V23.5234H33.8028C34.712 23.5234 35.3895 23.8477 35.3895 24.7917C35.3895 25.4692 35.0247 25.8746 34.4687 26.0484L35.5401 27.9073H34.7583L34.7699 27.9131ZM33.0615 25.5851H33.7217C34.3587 25.5851 34.7062 25.3245 34.7062 24.7917C34.7062 24.2589 34.3587 24.0736 33.7217 24.0736H33.0615V25.5851Z" fill="#CCCCCC"/>
<path d="M35.5632 26.2794C35.5632 25.2138 36.2929 24.5479 37.0631 24.5479C37.9318 24.5479 38.4009 25.1733 38.4009 26.1057C38.4009 26.2389 38.3893 26.3721 38.3719 26.4531H36.2408C36.2929 27.0786 36.6867 27.455 37.2542 27.455C37.5438 27.455 37.7986 27.3681 38.036 27.2118L38.2735 27.6461C37.9665 27.8488 37.5959 27.9936 37.1616 27.9936C36.2755 27.9936 35.5632 27.3623 35.5632 26.2794ZM37.8044 25.9783C37.8044 25.4107 37.5496 25.0806 37.0689 25.0806C36.6578 25.0806 36.2929 25.3991 36.2292 25.9783H37.8044Z" fill="#CCCCCC"/>
<path d="M40.3872 23.7084C40.2656 23.6563 40.144 23.6274 40.0282 23.6274C39.7386 23.6274 39.5939 23.8185 39.5939 24.2181V24.635H40.254V25.1852H39.5939V27.9186H38.9105V25.1852H38.4646V24.6698L38.9105 24.635V24.2239C38.9105 23.5521 39.2174 23.083 39.9471 23.083C40.1672 23.083 40.3757 23.1293 40.5262 23.1988L40.3872 23.7142V23.7084Z" fill="#CCCCCC"/>
<path d="M40.4568 26.6964V24.6348H41.1459V26.6153C41.1459 27.1829 41.3081 27.4029 41.6961 27.4029C42.003 27.4029 42.2115 27.2581 42.4837 26.9107V24.6348H43.167V27.9183H42.6053L42.5532 27.4203H42.5358C42.2347 27.7678 41.9161 27.9936 41.4644 27.9936C40.7637 27.9936 40.4626 27.5361 40.4626 26.6964H40.4568Z" fill="#CCCCCC"/>
<path d="M43.8388 24.6348H44.4005L44.4527 25.2255H44.47C44.7017 24.8027 45.0491 24.5537 45.4024 24.5537C45.5645 24.5537 45.6688 24.5769 45.773 24.6232L45.6456 25.2197C45.5298 25.1849 45.4487 25.1676 45.3155 25.1676C45.0491 25.1676 44.7248 25.3529 44.5164 25.8741V27.9183H43.833V24.6348H43.8388Z" fill="#CCCCCC"/>
<path d="M46.5431 27.571H46.5257L46.462 27.9127H45.9235V23.1582H46.6068V24.4149L46.5894 24.9766C46.8674 24.7334 47.2207 24.5481 47.5681 24.5481C48.3963 24.5481 48.8711 25.2083 48.8711 26.2159C48.8711 27.3452 48.1994 27.988 47.4581 27.988C47.157 27.988 46.8327 27.8374 46.5489 27.571H46.5431ZM48.153 26.2275C48.153 25.5441 47.933 25.1156 47.3828 25.1156C47.128 25.1156 46.8732 25.2488 46.601 25.5152V27.1193C46.85 27.3394 47.1164 27.4205 47.3191 27.4205C47.794 27.4205 48.153 26.9977 48.153 26.2275Z" fill="#CCCCCC"/>
<path d="M49.2245 23.6105C49.2245 23.3672 49.4098 23.2051 49.6588 23.2051C49.9078 23.2051 50.0989 23.3672 50.0989 23.6105C50.0989 23.8537 49.9078 24.0158 49.6588 24.0158C49.4098 24.0158 49.2245 23.8479 49.2245 23.6105ZM49.3171 24.6297H50.0005V27.9132H49.3171V24.6297Z" fill="#CCCCCC"/>
<path d="M50.3248 27.5361L50.6491 27.0959C50.9387 27.3276 51.2282 27.4724 51.5815 27.4724C51.9753 27.4724 52.1606 27.2813 52.1606 27.0322C52.1606 26.7311 51.79 26.6037 51.4309 26.4647C50.9966 26.2968 50.4928 26.0651 50.4928 25.5092C50.4928 24.9532 50.9329 24.5479 51.6568 24.5479C52.0969 24.5479 52.456 24.7274 52.7224 24.9359L52.398 25.3586C52.1722 25.1907 51.9406 25.0748 51.6626 25.0748C51.3035 25.0748 51.1356 25.2544 51.1356 25.4802C51.1356 25.7582 51.4773 25.8682 51.8363 26.0014C52.2938 26.1752 52.8034 26.3778 52.8034 26.9975C52.8034 27.5476 52.3691 27.9936 51.5583 27.9936C51.1066 27.9936 50.6375 27.8025 50.3248 27.5419V27.5361Z" fill="#CCCCCC"/>
<path d="M53.1798 23.1581H53.8632V24.4148L53.84 25.0634C54.1238 24.7912 54.4539 24.5422 54.8998 24.5422C55.6005 24.5422 55.9074 25.0055 55.9074 25.8452V27.9068H55.2241V25.9263C55.2241 25.3588 55.0561 25.1329 54.6681 25.1329C54.3612 25.1329 54.1527 25.2893 53.8632 25.5788V27.9068H53.1798V23.1523V23.1581Z" fill="#CCCCCC"/>
<path d="M56.527 24.6347H57.0888L57.1409 25.0922H57.1582C57.4362 24.7911 57.7663 24.5479 58.1717 24.5479C58.6581 24.5479 58.9361 24.7737 59.0809 25.1501C59.4052 24.8027 59.7353 24.5479 60.1465 24.5479C60.8356 24.5479 61.1541 25.0111 61.1541 25.8509V27.9125H60.465V25.9319C60.465 25.3644 60.2854 25.1385 59.9148 25.1385C59.689 25.1385 59.4515 25.2891 59.1736 25.5845V27.9125H58.4844V25.9319C58.4844 25.3644 58.3107 25.1385 57.9343 25.1385C57.7142 25.1385 57.471 25.2891 57.193 25.5845V27.9125H56.5096V24.6289L56.527 24.6347Z" fill="#CCCCCC"/>
<path d="M61.5596 26.2794C61.5596 25.2138 62.2893 24.5479 63.0595 24.5479C63.9281 24.5479 64.3972 25.1733 64.3972 26.1057C64.3972 26.2389 64.3856 26.3721 64.3683 26.4531H62.2371C62.2893 27.0786 62.683 27.455 63.2506 27.455C63.5401 27.455 63.7949 27.3681 64.0324 27.2118L64.2698 27.6461C63.9629 27.8488 63.5922 27.9936 63.1579 27.9936C62.2719 27.9936 61.5596 27.3623 61.5596 26.2794ZM63.8007 25.9783C63.8007 25.4107 63.5459 25.0806 63.0653 25.0806C62.6541 25.0806 62.2893 25.3991 62.2255 25.9783H63.8007Z" fill="#CCCCCC"/>
<path d="M64.8084 24.6347H65.3701L65.4223 25.0864H65.4396C65.7466 24.7969 66.0767 24.5479 66.5226 24.5479C67.2233 24.5479 67.5302 25.0111 67.5302 25.8509V27.9125H66.8469V25.9319C66.8469 25.3644 66.6789 25.1385 66.2909 25.1385C65.984 25.1385 65.7755 25.2949 65.486 25.5845V27.9125H64.8026V24.6289L64.8084 24.6347Z" fill="#CCCCCC"/>
<path d="M68.283 26.8412V25.1849H67.8081V24.6695L68.3177 24.6348L68.393 23.7256H68.9721V24.6348H69.8234V25.1849H68.9721V26.847C68.9721 27.2408 69.1111 27.4435 69.447 27.4435C69.5628 27.4435 69.7018 27.4087 69.8002 27.3682L69.9277 27.8778C69.7423 27.9357 69.5223 27.9994 69.2848 27.9994C68.5436 27.9994 68.2888 27.5419 68.2888 26.847L68.283 26.8412Z" fill="#CCCCCC"/>
<path d="M70.9875 25.7298C70.9875 24.2994 71.8561 23.4365 72.968 23.4365C73.5182 23.4365 73.9467 23.6971 74.2131 23.9925L73.8367 24.4326C73.6109 24.201 73.3387 24.0388 72.9796 24.0388C72.221 24.0388 71.694 24.67 71.694 25.7008C71.694 26.7317 72.1862 27.3861 72.9565 27.3861C73.356 27.3861 73.6688 27.2065 73.9294 26.9228L74.3 27.3571C73.9467 27.7625 73.5008 27.9883 72.9333 27.9883C71.8272 27.9883 70.9817 27.166 70.9817 25.7298H70.9875Z" fill="#CCCCCC"/>
<path d="M74.4274 26.2794C74.4274 25.2138 75.157 24.5479 75.9273 24.5479C76.7959 24.5479 77.265 25.1733 77.265 26.1057C77.265 26.2389 77.2534 26.3721 77.236 26.4531H75.1049C75.157 27.0786 75.5508 27.455 76.1184 27.455C76.4079 27.455 76.6627 27.3681 76.9002 27.2118L77.1376 27.6461C76.8307 27.8488 76.46 27.9936 76.0257 27.9936C75.1397 27.9936 74.4274 27.3623 74.4274 26.2794ZM76.6685 25.9783C76.6685 25.4107 76.4137 25.0806 75.9331 25.0806C75.5219 25.0806 75.157 25.3991 75.0933 25.9783H76.6685Z" fill="#CCCCCC"/>
<path d="M77.6762 24.6347H78.2379L78.2901 25.0864H78.3074C78.6144 24.7969 78.9445 24.5479 79.3904 24.5479C80.0911 24.5479 80.398 25.0111 80.398 25.8509V27.9125H79.7147V25.9319C79.7147 25.3644 79.5467 25.1385 79.1587 25.1385C78.8518 25.1385 78.6433 25.2949 78.3538 25.5845V27.9125H77.6704V24.6289L77.6762 24.6347Z" fill="#CCCCCC"/>
<path d="M81.1508 26.8412V25.1849H80.6759V24.6695L81.1855 24.6348L81.2608 23.7256H81.8399V24.6348H82.6912V25.1849H81.8399V26.847C81.8399 27.2408 81.9789 27.4435 82.3148 27.4435C82.4306 27.4435 82.5696 27.4087 82.668 27.3682L82.7955 27.8778C82.6101 27.9357 82.3901 27.9994 82.1526 27.9994C81.4114 27.9994 81.1566 27.5419 81.1566 26.847L81.1508 26.8412Z" fill="#CCCCCC"/>
<path d="M82.7145 26.2794C82.7145 25.2138 83.4442 24.5479 84.2144 24.5479C85.083 24.5479 85.5521 25.1733 85.5521 26.1057C85.5521 26.2389 85.5405 26.3721 85.5232 26.4531H83.392C83.4442 27.0786 83.838 27.455 84.4055 27.455C84.695 27.455 84.9498 27.3681 85.1873 27.2118L85.4247 27.6461C85.1178 27.8488 84.7472 27.9936 84.3128 27.9936C83.4268 27.9936 82.7145 27.3623 82.7145 26.2794ZM84.9556 25.9783C84.9556 25.4107 84.7008 25.0806 84.2202 25.0806C83.809 25.0806 83.4442 25.3991 83.3805 25.9783H84.9556Z" fill="#CCCCCC"/>
<path d="M85.9574 24.6348H86.5192L86.5713 25.2255H86.5887C86.8203 24.8027 87.1678 24.5537 87.5211 24.5537C87.6832 24.5537 87.7874 24.5769 87.8917 24.6232L87.7643 25.2197C87.6485 25.1849 87.5674 25.1676 87.4342 25.1676C87.1678 25.1676 86.8435 25.3529 86.635 25.8741V27.9183H85.9517V24.6348H85.9574Z" fill="#CCCCCC"/>
</svg>
